SplineFontDB: 3.2
FontName: CraftyPE
FullName: Crafty PE
FamilyName: CraftyPE
Weight: Regular
Copyright: 
UComments: "Original Mojangles font made by Mojang Studios.+AAoA-Designed by ParanormalChicken / Erek Butcher in 2022.+AAoA-Inspiration from ArtsyOmni / Omni Jacala of Curiomatic & Curioglyphic (https://curiomatic.com/fonts).+AAoA-Special thanks to the toki pona community (https://tokipona.org)+AAoA-Created with FontForge (http://fontforge.org)+AAoACgAA-This font is currently in beta. Features may change before final release.+AAoACgAA-I am not affiliated with Mojang Studios, Curiomatic, Curioglyphic, or FontForge. "
Version: Beta 3
ItalicAngle: 0
UnderlinePosition: -1600
UnderlineWidth: 800
Ascent: 112
Descent: 16
InvalidEm: 0
LayerCount: 2
Layer: 0 0 "Back" 1
Layer: 1 0 "Fore" 0
XUID: [1021 164 -1670062982 21816]
StyleMap: 0x0000
FSType: 0
OS2Version: 0
OS2_WeightWidthSlopeOnly: 0
OS2_UseTypoMetrics: 1
CreationTime: 1650157296
ModificationTime: 1667428744
PfmFamily: 17
TTFWeight: 400
TTFWidth: 5
LineGap: 12
VLineGap: 0
OS2TypoAscent: 0
OS2TypoAOffset: 1
OS2TypoDescent: 0
OS2TypoDOffset: 1
OS2TypoLinegap: 12
OS2WinAscent: 0
OS2WinAOffset: 1
OS2WinDescent: 0
OS2WinDOffset: 1
HheadAscent: 0
HheadAOffset: 1
HheadDescent: 0
HheadDOffset: 1
OS2Vendor: 'PfEd'
Lookup: 1 0 0 "'ss02' Style Set 2 lookup 2" { "'ss02' Style Set 2 lookup 2-1" ("igr") } ['ss02' ('DFLT' <'dflt' > 'armn' <'dflt' > 'cyrl' <'dflt' > 'geor' <'dflt' > 'goth' <'dflt' > 'grek' <'dflt' > 'hebr' <'dflt' > 'latn' <'dflt' > 'runr' <'dflt' > ) ]
Lookup: 1 0 0 "'ss01' Style Set 1 lookup 1" { "'ss01' Style Set 1 lookup 1-1" ("sga") } ['ss01' ('DFLT' <'dflt' > 'armn' <'dflt' > 'cyrl' <'dflt' > 'geor' <'dflt' > 'goth' <'dflt' > 'grek' <'dflt' > 'hebr' <'dflt' > 'latn' <'dflt' > 'runr' <'dflt' > ) ]

StartChar: uni0410
Encoding: 1040 1040 0
AltUni2: 001d2c.ffffffff.0 000410.ffffffff.0 000391.ffffffff.0
Width: 96
Flags: W
HStem: 0 21G<0 16 64 80> 64 16<16 64> 96 16<18.2861 61.7139>
VStem: 0 16<0 64 80 93.5369> 64 16<0 64 80 93.5369>
AnchorPoint: "Top" 40 112 basechar 0
LayerCount: 2
Back
Fore
SplineSet
16 80 m 1
 64 80 l 1
 64 96 64 96 40 96 c 0
 16 96 16 96 16 80 c 1
0 0 m 1
 0 80 l 2
 0 104 8 112 40 112 c 0
 72 112 80 104 80 80 c 2
 80 0 l 1
 64 0 l 1
 64 64 l 1
 16 64 l 1
 16 0 l 1
 0 0 l 1
EndSplineSet
Validated: 513
Substitution2: "'ss02' Style Set 2 lookup 2-1" a.igr
Substitution2: "'ss01' Style Set 1 lookup 1-1" a.sga
Substitution2: "'c2sc' Capitals to Small Capitals lookup 0-1" A.smallcaps
EndChar

StartChar: uni0412
Encoding: 1042 1042 1
AltUni2: 001d2e.ffffffff.0 000412.ffffffff.0 000392.ffffffff.0
Width: 96
Flags: W
HStem: 0 16<16 52.9335> 64 16<16 53.1384> 96 16<16 52.9335>
VStem: 0 16<16 64 80 96> 64 16<22.0686 58.0986 82.0391 93.8359>
AnchorPoint: "Top" 40 112 basechar 0
LayerCount: 2
Back
Fore
SplineSet
64 40 m 0
 64 64 64 64 16 64 c 1
 16 16 l 1
 64 16 64 16 64 40 c 0
16 96 m 1
 16 80 l 1
 64 80 64 80 64 88 c 0
 64 96 64 96 16 96 c 1
0 112 m 1
 16 112 l 2
 76 112 80 104 80 88 c 0
 80 80 73 72 64 72 c 1
 73 72 80 64 80 40 c 0
 80 8 76 0 16 0 c 2
 0 0 l 1
 0 112 l 1
EndSplineSet
Validated: 513
Substitution2: "'ss02' Style Set 2 lookup 2-1" b.igr
Substitution2: "'ss01' Style Set 1 lookup 1-1" b.sga
Substitution2: "'c2sc' Capitals to Small Capitals lookup 0-1" B.smallcaps
EndChar

StartChar: uni0421
Encoding: 1057 1057 2
AltUni2: 000421.ffffffff.0
Width: 96
Flags: W
HStem: 0 16<21.1364 61.7139> 96 16<21.1364 61.7139>
VStem: 0 16<22.4931 89.5069> 64 16<18.4631 32 80 93.5369>
AnchorPoint: "Top" 40 112 basechar 0
LayerCount: 2
Back
Fore
SplineSet
40 0 m 0
 8 0 0 8 0 56 c 0
 0 104 8 112 40 112 c 0
 72 112 80 104 80 80 c 1
 64 80 l 1
 64 96 64 96 40 96 c 0
 16 96 16 96 16 56 c 0
 16 16 16 16 40 16 c 0
 64 16 64 16 64 32 c 1
 80 32 l 1
 80 8 72 0 40 0 c 0
EndSplineSet
Validated: 1
Substitution2: "'ss02' Style Set 2 lookup 2-1" c.igr
Substitution2: "'ss01' Style Set 1 lookup 1-1" c.sga
Substitution2: "'c2sc' Capitals to Small Capitals lookup 0-1" C.smallcaps
EndChar

StartChar: D
Encoding: 68 68 3
AltUni2: 001d30.ffffffff.0
Width: 96
Flags: W
HStem: 0 16<16 52.7493> 96 16<16 52.7493>
VStem: 0 16<16 96> 64 16<25.6913 86.3087>
AnchorPoint: "Top" 40 112 basechar 0
LayerCount: 2
Back
Fore
SplineSet
16 96 m 1
 16 16 l 1
 64 16 64 16 64 56 c 0
 64 96 64 96 16 96 c 1
0 112 m 1
 16 112 l 2
 72 112 80 104 80 56 c 0
 80 8 72 0 16 0 c 2
 0 0 l 1
 0 112 l 1
EndSplineSet
Validated: 513
Substitution2: "'ss02' Style Set 2 lookup 2-1" d.igr
Substitution2: "'ss01' Style Set 1 lookup 1-1" d.sga
Substitution2: "'c2sc' Capitals to Small Capitals lookup 0-1" D.smallcaps
EndChar

StartChar: uni0415
Encoding: 1045 1045 4
AltUni2: 001d31.ffffffff.0 000415.ffffffff.0 000395.ffffffff.0
Width: 96
Flags: W
HStem: 0 16<16 80> 64 16<16 48> 96 16<16 80>
VStem: 0 16<16 64 80 96>
AnchorPoint: "Top" 40 112 basechar 0
LayerCount: 2
Fore
SplineSet
0 112 m 1
 80 112 l 1
 80 96 l 1
 16 96 l 1
 16 80 l 1
 48 80 l 1
 48 64 l 1
 16 64 l 1
 16 16 l 1
 80 16 l 1
 80 0 l 1
 0 0 l 1
 0 112 l 1
EndSplineSet
Validated: 513
Substitution2: "'ss02' Style Set 2 lookup 2-1" e.igr
Substitution2: "'ss01' Style Set 1 lookup 1-1" e.sga
Substitution2: "'c2sc' Capitals to Small Capitals lookup 0-1" E.smallcaps
EndChar

StartChar: F
Encoding: 70 70 5
Width: 96
Flags: W
HStem: 0 21G<0 16> 64 16<16 48> 96 16<16 80>
VStem: 0 16<0 64 80 96>
AnchorPoint: "Top" 40 112 basechar 0
LayerCount: 2
Fore
SplineSet
0 112 m 1
 80 112 l 1
 80 96 l 1
 16 96 l 1
 16 80 l 1
 48 80 l 1
 48 64 l 1
 16 64 l 1
 16 0 l 1
 0 0 l 1
 0 112 l 1
EndSplineSet
Validated: 513
Substitution2: "'ss02' Style Set 2 lookup 2-1" f.igr
Substitution2: "'ss01' Style Set 1 lookup 1-1" f.sga
Substitution2: "'c2sc' Capitals to Small Capitals lookup 0-1" F.smallcaps
EndChar

StartChar: G
Encoding: 71 71 6
AltUni2: 001d33.ffffffff.0
Width: 96
Flags: W
HStem: 0 16<21.8241 58.1759> 64 16<48 64> 96 16<44.3955 80>
VStem: 0 16<26.964 86.8522> 64 16<44.3955 64>
AnchorPoint: "Top" 40 112 basechar 0
LayerCount: 2
Back
Fore
SplineSet
40 0 m 0
 4 0 0 4 0 64 c 0
 0 103 4 112 80 112 c 1
 80 96 l 1
 16 96 16 96 16 64 c 0
 16 16 16 16 40 16 c 0
 64 16 64 16 64 64 c 1
 48 64 l 1
 48 80 l 1
 80 80 l 1
 80 4 76 0 40 0 c 0
EndSplineSet
Validated: 513
Substitution2: "'ss02' Style Set 2 lookup 2-1" g.igr
Substitution2: "'ss01' Style Set 1 lookup 1-1" g.sga
Substitution2: "'c2sc' Capitals to Small Capitals lookup 0-1" G.smallcaps
EndChar

StartChar: uni041D
Encoding: 1053 1053 7
AltUni2: 001d34.ffffffff.0 00041d.ffffffff.0 000397.ffffffff.0
Width: 96
Flags: W
HStem: 0 21G<0 16 64 80> 64 16<16 64>
VStem: 0 16<0 64 80 112> 64 16<0 64 80 112>
AnchorPoint: "Top" 40 112 basechar 0
LayerCount: 2
Fore
SplineSet
16 112 m 1
 16 80 l 1
 64 80 l 1
 64 112 l 1
 80 112 l 1
 80 0 l 1
 64 0 l 1
 64 64 l 1
 16 64 l 1
 16 0 l 1
 0 0 l 1
 0 112 l 1
 16 112 l 1
EndSplineSet
Validated: 513
Substitution2: "'ss02' Style Set 2 lookup 2-1" h.igr
Substitution2: "'ss01' Style Set 1 lookup 1-1" h.sga
Substitution2: "'c2sc' Capitals to Small Capitals lookup 0-1" H.smallcaps
EndChar

StartChar: uni04C0
Encoding: 1216 1216 8
AltUni2: 001d35.ffffffff.0 0004c0.ffffffff.0 000406.ffffffff.0 000399.ffffffff.0
Width: 64
Flags: W
HStem: 0 16<0 16 32 48> 96 16<0 16 32 48>
VStem: 16 16<16 96>
AnchorPoint: "Top" 40 112 basechar 0
LayerCount: 2
Fore
SplineSet
0 112 m 1
 48 112 l 1
 48 96 l 1
 32 96 l 1
 32 16 l 1
 48 16 l 1
 48 0 l 1
 0 0 l 1
 0 16 l 1
 16 16 l 1
 16 96 l 1
 0 96 l 1
 0 112 l 1
EndSplineSet
Validated: 513
Substitution2: "'ss02' Style Set 2 lookup 2-1" i.igr
Substitution2: "'ss01' Style Set 1 lookup 1-1" i.sga
Substitution2: "'c2sc' Capitals to Small Capitals lookup 0-1" I.smallcaps
EndChar

StartChar: uni0408
Encoding: 1032 1032 9
AltUni2: 001d36.ffffffff.0 000408.ffffffff.0
Width: 96
Flags: W
HStem: 0 16<18.2861 55.763>
VStem: 0 16<18.4631 32> 64 16<76.9283 112>
AnchorPoint: "Top" 40 112 basechar 0
LayerCount: 2
Fore
SplineSet
40 0 m 0
 8 0 0 8 0 32 c 1
 16 32 l 1
 16 16 16 16 40 16 c 0
 64 16 64 16 64 112 c 0
 80 112 l 0
 80 4 76 0 40 0 c 0
EndSplineSet
Validated: 1
Substitution2: "'ss02' Style Set 2 lookup 2-1" j.igr
Substitution2: "'ss01' Style Set 1 lookup 1-1" j.sga
Substitution2: "'c2sc' Capitals to Small Capitals lookup 0-1" J.smallcaps
EndChar

StartChar: uni041A
Encoding: 1050 1050 10
AltUni2: 001d37.ffffffff.0 00041a.ffffffff.0 00039a.ffffffff.0
Width: 96
Flags: W
HStem: 0 21G<0 16 64 80> 64 16<16 44.5538>
VStem: 0 16<0 64 80 112> 64 16<0 35.5651 96.0469 112>
AnchorPoint: "Top" 40 112 basechar 0
LayerCount: 2
Back
Fore
SplineSet
0 112 m 1
 16 112 l 1
 16 80 l 1
 53 80 64 87 64 112 c 1
 80 112 l 1
 80 89 66 72 48 72 c 1
 76 72 80 62 80 0 c 1
 64 0 l 1
 64 64 64 64 16 64 c 1
 16 0 l 1
 0 0 l 1
 0 112 l 1
EndSplineSet
Validated: 513
Substitution2: "'ss02' Style Set 2 lookup 2-1" k.igr
Substitution2: "'ss01' Style Set 1 lookup 1-1" k.sga
Substitution2: "'c2sc' Capitals to Small Capitals lookup 0-1" K.smallcaps
EndChar

StartChar: L
Encoding: 76 76 11
AltUni2: 001d38.ffffffff.0
Width: 96
Flags: W
HStem: 0 16<16 80>
VStem: 0 16<16 112>
AnchorPoint: "Top" 40 112 basechar 0
LayerCount: 2
Fore
SplineSet
0 112 m 1
 16 112 l 1
 16 16 l 1
 80 16 l 1
 80 0 l 1
 0 0 l 1
 0 112 l 1
EndSplineSet
Validated: 513
Substitution2: "'ss02' Style Set 2 lookup 2-1" l.igr
Substitution2: "'ss01' Style Set 1 lookup 1-1" l.sga
Substitution2: "'c2sc' Capitals to Small Capitals lookup 0-1" L.smallcaps
EndChar

StartChar: uni041C
Encoding: 1052 1052 12
AltUni2: 001d39.ffffffff.0 00041c.ffffffff.0 00039c.ffffffff.0
Width: 96
Flags: W
HStem: 0 21G<0 16 64 80>
VStem: 0 16<0 90> 64 16<0 90>
AnchorPoint: "Top" 40 112 basechar 0
LayerCount: 2
Back
Fore
SplineSet
0 112 m 1
 16 112 l 1
 40 82 l 1
 64 112 l 1
 80 112 l 1
 80 0 l 1
 64 0 l 1
 64 90 l 1
 40 60 l 1
 16 90 l 1
 16 0 l 1
 0 0 l 1
 0 112 l 1
EndSplineSet
Validated: 513
Substitution2: "'ss02' Style Set 2 lookup 2-1" m.igr
Substitution2: "'ss01' Style Set 1 lookup 1-1" m.sga
Substitution2: "'c2sc' Capitals to Small Capitals lookup 0-1" M.smallcaps
EndChar

StartChar: Nu
Encoding: 925 925 13
AltUni2: 001d3a.ffffffff.0 00039d.ffffffff.0
Width: 96
Flags: W
HStem: 0 21G<0 16 64 80>
VStem: 0 16<0 90> 64 16<0 42 64 112>
AnchorPoint: "Top" 40 112 basechar 0
LayerCount: 2
Fore
SplineSet
64 64 m 1
 64 112 l 1
 80 112 l 1
 80 0 l 1
 64 0 l 1
 64 42 l 1
 16 90 l 1
 16 0 l 1
 0 0 l 1
 0 112 l 1
 16 112 l 1
 64 64 l 1
EndSplineSet
Validated: 513
Substitution2: "'ss02' Style Set 2 lookup 2-1" n.igr
Substitution2: "'ss01' Style Set 1 lookup 1-1" n.sga
Substitution2: "'c2sc' Capitals to Small Capitals lookup 0-1" N.smallcaps
EndChar

StartChar: uni0555
Encoding: 1365 1365 14
AltUni2: 001d3c.ffffffff.0 000555.ffffffff.0 00041e.ffffffff.0 00039f.ffffffff.0
Width: 96
Flags: W
HStem: 0 16<21.2502 58.7498> 96 16<21.2502 58.7498>
VStem: 0 16<21.6129 90.3871> 64 16<21.6129 90.3871>
AnchorPoint: "Top" 40 112 basechar 0
LayerCount: 2
Fore
SplineSet
40 16 m 0
 64 16 64 16 64 56 c 0
 64 96 64 96 40 96 c 0
 16 96 16 96 16 56 c 0
 16 16 16 16 40 16 c 0
40 112 m 0
 74 112 80 104 80 56 c 0
 80 8 74 0 40 0 c 0
 6 0 0 8 0 56 c 0
 0 104 6 112 40 112 c 0
EndSplineSet
Validated: 513
Substitution2: "'ss02' Style Set 2 lookup 2-1" o.igr
Substitution2: "'ss01' Style Set 1 lookup 1-1" o.sga
Substitution2: "'c2sc' Capitals to Small Capitals lookup 0-1" O.smallcaps
EndChar

StartChar: uni0420
Encoding: 1056 1056 15
AltUni2: 001d3e.ffffffff.0 000420.ffffffff.0 0003a1.ffffffff.0
Width: 96
Flags: W
HStem: 0 21G<0 16> 64 16<16 52.9335> 96 16<16 52.9335>
VStem: 0 16<0 64 80 96> 64 16<82.1641 93.8359>
AnchorPoint: "Top" 40 112 basechar 0
LayerCount: 2
Fore
SplineSet
16 64 m 1
 16 0 l 1
 0 0 l 1
 0 112 l 1
 16 112 l 2
 76 112 80 104 80 88 c 0
 80 72 76 64 16 64 c 1
16 96 m 1
 16 80 l 1
 64 80 64 80 64 88 c 0
 64 96 64 96 16 96 c 1
EndSplineSet
Validated: 513
Substitution2: "'ss02' Style Set 2 lookup 2-1" p.igr
Substitution2: "'ss01' Style Set 1 lookup 1-1" p.sga
Substitution2: "'c2sc' Capitals to Small Capitals lookup 0-1" P.smallcaps
EndChar

StartChar: Q
Encoding: 81 81 16
Width: 96
Flags: W
HStem: 0 16<21.2502 52.0955> 96 16<21.2502 58.7498>
VStem: 0 16<21.6129 90.3871> 64 16<32.1273 90.3871>
AnchorPoint: "Top" 40 112 basechar 0
LayerCount: 2
Back
Fore
SplineSet
40 96 m 0
 16 96 16 96 16 56 c 0
 16 16 16 16 40 16 c 0
 45 16 50 17 54 20 c 1
 48 32 l 1
 62 32 l 1
 64 36 64 40 64 56 c 0
 64 96 64 96 40 96 c 0
40 112 m 0
 74 112 80 104 80 56 c 0
 80 34 80 26 72 16 c 1
 80 0 l 1
 64 0 l 1
 60 8 l 1
 53 2 47 0 40 0 c 0
 6 0 0 8 0 56 c 0
 0 104 6 112 40 112 c 0
EndSplineSet
Validated: 513
Substitution2: "'ss02' Style Set 2 lookup 2-1" q.igr
Substitution2: "'ss01' Style Set 1 lookup 1-1" q.sga
Substitution2: "'c2sc' Capitals to Small Capitals lookup 0-1" Q.smallcaps
EndChar

StartChar: R
Encoding: 82 82 17
AltUni2: 001d3f.ffffffff.0
Width: 96
Flags: W
HStem: 0 21G<0 16 64 80> 64 16<16 50.4341> 96 16<16 52.9335>
VStem: 0 16<0 64 80 96> 64 16<0 36.3895 82.0103 93.8359>
AnchorPoint: "Top" 40 112 basechar 0
LayerCount: 2
Fore
SplineSet
16 64 m 1
 16 0 l 1
 0 0 l 1
 0 112 l 1
 16 112 l 2
 76 112 80 104 80 88 c 0
 80 76 72 72 64 72 c 1
 72 72 80 64 80 0 c 1
 64 0 l 1
 64 64 64 64 16 64 c 1
16 80 m 1
 64 80 64 80 64 88 c 0
 64 96 64 96 16 96 c 1
 16 80 l 1
EndSplineSet
Validated: 513
Substitution2: "'ss02' Style Set 2 lookup 2-1" r.igr
Substitution2: "'ss01' Style Set 1 lookup 1-1" r.sga
Substitution2: "'c2sc' Capitals to Small Capitals lookup 0-1" R.smallcaps
EndChar

StartChar: uni0405
Encoding: 1029 1029 18
AltUni2: 000405.ffffffff.0
Width: 96
Flags: W
HStem: 0 16<18.5041 60.7148> 64 16<17.0198 60.7099> 96 16<43.7546 80>
VStem: 0 16<18.9015 32 81.2549 93.468> 64 16<19.2852 60.7148>
AnchorPoint: "Top" 40 112 basechar 0
LayerCount: 2
Back
Fore
SplineSet
80 112 m 1
 80 96 l 0
 16 96 16 96 16 88 c 0
 16 80 16 80 40 80 c 0
 72 80 80 72 80 40 c 0
 80 8 72 0 40 0 c 0
 9 0 0 7 0 32 c 0
 16 32 l 0
 16 16 16 16 40 16 c 0
 64 16 64 16 64 40 c 0
 64 64 64 64 40 64 c 0
 11 64 0 71 0 88 c 0
 0 112 14 112 80 112 c 1
EndSplineSet
Validated: 1
Substitution2: "'ss02' Style Set 2 lookup 2-1" s.igr
Substitution2: "'ss01' Style Set 1 lookup 1-1" s.sga
Substitution2: "'c2sc' Capitals to Small Capitals lookup 0-1" S.smallcaps
EndChar

StartChar: uni0422
Encoding: 1058 1058 19
AltUni2: 001d40.ffffffff.0 000422.ffffffff.0 0003a4.ffffffff.0
Width: 96
Flags: W
HStem: 0 21G<32 48> 96 16<0 32 48 80>
VStem: 32 16<0 96>
AnchorPoint: "Top" 40 112 basechar 0
LayerCount: 2
Fore
SplineSet
0 112 m 1
 80 112 l 1
 80 96 l 1
 48 96 l 1
 48 0 l 1
 32 0 l 1
 32 96 l 1
 0 96 l 1
 0 112 l 1
EndSplineSet
Validated: 513
Substitution2: "'ss02' Style Set 2 lookup 2-1" t.igr
Substitution2: "'ss01' Style Set 1 lookup 1-1" t.sga
Substitution2: "'c2sc' Capitals to Small Capitals lookup 0-1" T.smallcaps
EndChar

StartChar: U
Encoding: 85 85 20
AltUni2: 001d41.ffffffff.0
Width: 96
Flags: W
HStem: 0 16<24.3843 55.6157>
VStem: 0 16<77.3281 112> 64 16<77.3281 112>
AnchorPoint: "Top" 40 112 basechar 0
LayerCount: 2
Fore
SplineSet
40 16 m 0
 64 16 64 16 64 112 c 1
 80 112 l 1
 80 8 72 0 40 0 c 0
 8 0 0 8 0 112 c 1
 16 112 l 1
 16 16 16 16 40 16 c 0
EndSplineSet
Validated: 513
Substitution2: "'ss02' Style Set 2 lookup 2-1" u.igr
Substitution2: "'ss01' Style Set 1 lookup 1-1" u.sga
Substitution2: "'c2sc' Capitals to Small Capitals lookup 0-1" U.smallcaps
EndChar

StartChar: V
Encoding: 86 86 21
Width: 96
Flags: W
HStem: 0 21G<26.2857 53.7143>
AnchorPoint: "Top" 40 112 basechar 0
LayerCount: 2
Back
Fore
SplineSet
0 112 m 1
 16 112 l 1
 40 28 l 1
 64 112 l 1
 80 112 l 1
 48 0 l 1
 32 0 l 1
 0 112 l 1
EndSplineSet
Validated: 513
Substitution2: "'ss02' Style Set 2 lookup 2-1" v.igr
Substitution2: "'ss01' Style Set 1 lookup 1-1" v.sga
Substitution2: "'c2sc' Capitals to Small Capitals lookup 0-1" V.smallcaps
EndChar

StartChar: W
Encoding: 87 87 22
AltUni2: 001d42.ffffffff.0
Width: 96
Flags: W
HStem: 0 21G<0 32 48 80>
VStem: 0 16<23 112> 64 16<23 112>
AnchorPoint: "Top" 40 112 basechar 0
LayerCount: 2
Back
Fore
SplineSet
80 0 m 1
 64 0 l 1
 40 30 l 1
 16 0 l 1
 0 0 l 1
 0 112 l 1
 16 112 l 1
 16 23 l 1
 40 53 l 1
 64 23 l 1
 64 112 l 1
 80 112 l 1
 80 0 l 1
EndSplineSet
Validated: 513
Substitution2: "'ss02' Style Set 2 lookup 2-1" w.igr
Substitution2: "'ss01' Style Set 1 lookup 1-1" w.sga
Substitution2: "'c2sc' Capitals to Small Capitals lookup 0-1" W.smallcaps
EndChar

StartChar: uni0425
Encoding: 1061 1061 23
AltUni2: 000425.ffffffff.0 0003a7.ffffffff.0
Width: 96
Flags: W
HStem: 0 21G<0 28 52 80>
AnchorPoint: "Top" 40 112 basechar 0
LayerCount: 2
Back
Fore
SplineSet
0 112 m 1
 18 112 l 1
 40 68 l 1
 62 112 l 1
 80 112 l 1
 50 56 l 1
 80 0 l 1
 62 0 l 1
 40 44 l 1
 18 0 l 1
 0 0 l 1
 30 56 l 1
 0 112 l 1
EndSplineSet
Validated: 1
Substitution2: "'ss02' Style Set 2 lookup 2-1" x.igr
Substitution2: "'ss01' Style Set 1 lookup 1-1" x.sga
Substitution2: "'c2sc' Capitals to Small Capitals lookup 0-1" x
EndChar

StartChar: uni04AE
Encoding: 1198 1198 24
AltUni2: 0004ae.ffffffff.0 0003d2.ffffffff.0 0003a5.ffffffff.0
Width: 96
Flags: W
HStem: 0 21G<32 48>
VStem: 32 16<0 68>
AnchorPoint: "Top" 40 112 basechar 0
LayerCount: 2
Back
Fore
SplineSet
0 112 m 1
 18 112 l 1
 40 82 l 1
 62 112 l 1
 80 112 l 1
 48 68 l 1
 48 0 l 1
 32 0 l 1
 32 68 l 1
 0 112 l 1
EndSplineSet
Validated: 513
Substitution2: "'ss02' Style Set 2 lookup 2-1" y.igr
Substitution2: "'ss01' Style Set 1 lookup 1-1" y.sga
Substitution2: "'c2sc' Capitals to Small Capitals lookup 0-1" Y.smallcaps
EndChar

StartChar: Zeta
Encoding: 918 918 25
AltUni2: 000396.ffffffff.0
Width: 96
Flags: W
HStem: 0 16<20 80> 96 16<0 60>
AnchorPoint: "Top" 40 112 basechar 0
LayerCount: 2
Back
Fore
SplineSet
0 0 m 1
 0 16 l 1
 60 96 l 1
 0 96 l 1
 0 112 l 1
 80 112 l 1
 80 96 l 1
 20 16 l 1
 80 16 l 1
 80 0 l 1
 0 0 l 1
EndSplineSet
Validated: 513
Substitution2: "'ss02' Style Set 2 lookup 2-1" z.igr
Substitution2: "'ss01' Style Set 1 lookup 1-1" z.sga
Substitution2: "'c2sc' Capitals to Small Capitals lookup 0-1" Z.smallcaps
EndChar

StartChar: uni0430
Encoding: 1072 1072 26
AltUni2: 001d43.ffffffff.0 000430.ffffffff.0
Width: 96
Flags: W
HStem: 0 16<26.8616 64> 32 16<27.2507 64> 64 16<16 53>
VStem: 0 16<18.1641 29.8359> 64 16<16 31.9458>
CounterMasks: 1 e0
AnchorPoint: "Top" 40 80 basechar 0
LayerCount: 2
Back
Fore
SplineSet
16 24 m 0
 16 16 16 16 64 16 c 1
 64 32 l 1
 16 32 16 32 16 24 c 0
16 80 m 1
 80 80 80 80 80 0 c 1
 64 0 l 1
 7 0 0 8 0 24 c 0
 0 40 8 48 64 48 c 1
 64 64 64 64 16 64 c 1
 16 80 l 1
EndSplineSet
Validated: 1
Substitution2: "'ss02' Style Set 2 lookup 2-1" a.igr
Substitution2: "'ss01' Style Set 1 lookup 1-1" a.sga
EndChar

StartChar: b
Encoding: 98 98 27
AltUni2: 001d47.ffffffff.0
Width: 96
Flags: W
HStem: 0 16<16 52.7493> 64 16<33.9659 61.6717>
VStem: 0 16<16 50.6145 68 112> 64 16<22.0686 61.7139>
AnchorPoint: "Top" 40 112 basechar 0
LayerCount: 2
Back
Fore
SplineSet
0 112 m 1
 16 112 l 1
 16 68 l 1
 24 73 32 80 48 80 c 0
 72 80 80 72 80 40 c 0
 80 8 72 0 16 0 c 2
 0 0 l 1
 0 112 l 1
16 48 m 1
 16 16 l 1
 64 16 64 16 64 40 c 0
 64 64 64 64 48 64 c 0
 33 64 24 56 16 48 c 1
EndSplineSet
Validated: 1
Substitution2: "'ss02' Style Set 2 lookup 2-1" b.igr
Substitution2: "'ss01' Style Set 1 lookup 1-1" b.sga
EndChar

StartChar: uni0441
Encoding: 1089 1089 28
AltUni2: 001d9c.ffffffff.0 000441.ffffffff.0
Width: 96
Flags: W
HStem: 0 16<19.2852 61.7139> 64 16<19.2852 61.7139>
VStem: 0 16<19.2852 60.7148> 64 16<18.4631 32 48 61.5369>
AnchorPoint: "Top" 40 80 basechar 0
LayerCount: 2
Back
Fore
SplineSet
40 0 m 0
 8 0 0 8 0 40 c 0
 0 72 8 80 40 80 c 0
 72 80 80 72 80 48 c 1
 64 48 l 1
 64 64 64 64 40 64 c 0
 16 64 16 64 16 40 c 0
 16 16 16 16 40 16 c 0
 64 16 64 16 64 32 c 1
 80 32 l 1
 80 8 72 0 40 0 c 0
EndSplineSet
Validated: 1
Substitution2: "'ss02' Style Set 2 lookup 2-1" c.igr
Substitution2: "'ss01' Style Set 1 lookup 1-1" c.sga
EndChar

StartChar: d
Encoding: 100 100 29
AltUni2: 001d48.ffffffff.0
Width: 96
Flags: W
HStem: 0 16<27.2507 64> 64 16<18.3283 46.0341>
VStem: 0 16<22.0686 61.7139> 64 16<16 50.6145 68 112>
AnchorPoint: "Top" 40 112 basechar 0
LayerCount: 2
Fore
SplineSet
80 112 m 1
 80 0 l 1
 64 0 l 2
 8 0 0 8 0 40 c 0
 0 72 8 80 32 80 c 0
 48 80 56 73 64 68 c 1
 64 112 l 1
 80 112 l 1
64 48 m 1
 56 56 47 64 32 64 c 0
 16 64 16 64 16 40 c 0
 16 16 16 16 64 16 c 1
 64 48 l 1
EndSplineSet
Validated: 1
Substitution2: "'ss02' Style Set 2 lookup 2-1" d.igr
Substitution2: "'ss01' Style Set 1 lookup 1-1" d.sga
EndChar

StartChar: uni0435
Encoding: 1077 1077 30
AltUni2: 001d49.ffffffff.0 000435.ffffffff.0
Width: 96
Flags: W
HStem: 0 16<43.5775 80> 32 16<16 64> 64 16<18.5041 61.6023>
VStem: 0 16<21.4551 32 48 61.6606> 64 16<48 60.8574>
CounterMasks: 1 e0
AnchorPoint: "Top" 40 80 basechar 0
LayerCount: 2
Back
Fore
SplineSet
80 0 m 1
 8 0 0 0 0 40 c 0
 0 72 9 80 40 80 c 0
 76 80 80 72 80 32 c 1
 16 32 l 1
 16 16 16 16 80 16 c 1
 80 0 l 1
16 48 m 1
 64 48 l 1
 64 64 64 64 40 64 c 0
 16 64 16 64 16 48 c 1
EndSplineSet
Validated: 1
Substitution2: "'ss02' Style Set 2 lookup 2-1" e.igr
Substitution2: "'ss01' Style Set 1 lookup 1-1" e.sga
EndChar

StartChar: f
Encoding: 102 102 31
AltUni2: 001da0.ffffffff.0
Width: 80
Flags: W
HStem: 0 21G<16 32> 64 16<0 16 32 64> 96 16<35.5663 64>
VStem: 16 16<0 64 80 92.4121>
AnchorPoint: "Top" 40 112 basechar 0
LayerCount: 2
Back
Fore
SplineSet
64 112 m 1
 64 96 l 1
 32 96 32 96 32 80 c 1
 64 80 l 1
 64 64 l 1
 32 64 l 1
 32 0 l 1
 16 0 l 1
 16 64 l 1
 0 64 l 1
 0 80 l 1
 16 80 l 1
 16 108 20 112 64 112 c 1
EndSplineSet
Validated: 1
Substitution2: "'ss02' Style Set 2 lookup 2-1" f.igr
Substitution2: "'ss01' Style Set 1 lookup 1-1" f.sga
EndChar

StartChar: g
Encoding: 103 103 32
AltUni2: 001d4d.ffffffff.0
Width: 96
Flags: W
HStem: -16 16<0 37> 16 16<30.5582 64> 64 16<30.5582 64>
VStem: 0 16<39.6266 56.3734> 64 16<4.55652 16 32 64>
AnchorPoint: "Top" 40 80 basechar 0
LayerCount: 2
Back
Fore
SplineSet
16 48 m 0
 16 40 16 32 64 32 c 1
 64 64 l 1
 16 64 16 56 16 48 c 0
0 -16 m 1
 0 0 l 1
 64 0 64 0 64 16 c 1
 8 16 0 32 0 48 c 0
 0 64 7 80 64 80 c 2
 80 80 l 1
 80 16 l 2
 80 -12 68 -16 0 -16 c 1
EndSplineSet
Validated: 1
Substitution2: "'ss02' Style Set 2 lookup 2-1" g.igr
Substitution2: "'ss01' Style Set 1 lookup 1-1" g.sga
EndChar

StartChar: uni0570
Encoding: 1392 1392 33
AltUni2: 000570.ffffffff.0
Width: 96
Flags: W
HStem: 0 21G<0 16 64 80> 64 16<33.9659 59.4608>
VStem: 0 16<0 50.6145 68 112> 64 16<0 35.6045>
AnchorPoint: "Top" 40 112 basechar 0
LayerCount: 2
Fore
SplineSet
48 80 m 0
 76 80 80 76 80 0 c 0
 64 0 l 0
 64 64 64 64 48 64 c 0
 33 64 24 56 16 48 c 1
 16 0 l 1
 0 0 l 1
 0 112 l 1
 16 112 l 1
 16 68 l 1
 24 73 32 80 48 80 c 0
EndSplineSet
Validated: 1
Substitution2: "'ss02' Style Set 2 lookup 2-1" h.igr
Substitution2: "'ss01' Style Set 1 lookup 1-1" h.sga
EndChar

StartChar: k
Encoding: 107 107 36
AltUni2: 001d4f.ffffffff.0
Width: 80
Flags: W
HStem: 0 21G<0 16 25.3333 64>
VStem: 0 16<0 30 50 112>
AnchorPoint: "Top" 40 112 basechar 0
LayerCount: 2
Back
Fore
SplineSet
0 112 m 1
 16 112 l 1
 16 50 l 1
 44 80 l 1
 64 80 l 1
 25 40 l 1
 64 0 l 1
 44 0 l 1
 16 30 l 1
 16 0 l 1
 0 0 l 1
 0 112 l 1
EndSplineSet
Validated: 1
Substitution2: "'ss02' Style Set 2 lookup 2-1" k.igr
Substitution2: "'ss01' Style Set 1 lookup 1-1" k.sga
EndChar

StartChar: uni02E1
Encoding: 737 737 37
AltUni2: 0002e1.ffffffff.0
Width: 48
Flags: W
HStem: 0 16<21.5618 32>
VStem: 0 16<77.3281 112>
AnchorPoint: "Top" 8 112 basechar 0
LayerCount: 2
Back
Fore
SplineSet
0 112 m 1
 16 112 l 1
 16 16 16 16 32 16 c 1
 32 0 l 1
 0 0 0 8 0 112 c 1
EndSplineSet
Validated: 1
Substitution2: "'ss02' Style Set 2 lookup 2-1" l.igr
Substitution2: "'ss01' Style Set 1 lookup 1-1" l.sga
EndChar

StartChar: m
Encoding: 109 109 38
AltUni2: 000560.ffffffff.0 001d50.ffffffff.0
Width: 96
Flags: W
HStem: 0 21G<0 16 64 80> 64 16<16 29.1523 49.4805 61.476>
VStem: 0 16<0 64> 32 16<32 61.0228> 64 16<0 36.4225>
CounterMasks: 1 38
AnchorPoint: "Top" 40 80 basechar 0
LayerCount: 2
Back
Fore
SplineSet
16 64 m 1
 16 0 l 1
 0 0 l 1
 0 80 l 1
 16 80 l 2
 28 80 32 80 40 72 c 1
 44 78 46 80 56 80 c 0
 76 80 80 72 80 0 c 1
 64 0 l 1
 64 64 64 64 56 64 c 0
 48 64 48 64 48 32 c 1
 32 32 l 1
 32 64 32 64 16 64 c 1
EndSplineSet
Validated: 1
Substitution2: "'ss02' Style Set 2 lookup 2-1" m.igr
Substitution2: "'ss01' Style Set 1 lookup 1-1" m.sga
EndChar

StartChar: n
Encoding: 110 110 39
Width: 96
Flags: W
HStem: 0 21G<0 16 64 80> 64 16<16 49.6285>
VStem: 0 16<0 64> 64 16<0 36.4225>
AnchorPoint: "Top" 40 80 basechar 0
LayerCount: 2
Fore
SplineSet
16 64 m 1
 16 0 l 1
 0 0 l 1
 0 80 l 1
 16 80 l 2
 76 80 80 72 80 0 c 1
 64 0 l 1
 64 64 64 64 16 64 c 1
EndSplineSet
Validated: 1
Substitution2: "'ss02' Style Set 2 lookup 2-1" n.igr
Substitution2: "'ss01' Style Set 1 lookup 1-1" n.sga
EndChar

StartChar: uni0585
Encoding: 1413 1413 40
AltUni2: 001d52.ffffffff.0 000585.ffffffff.0 00043e.ffffffff.0 0003bf.ffffffff.0
Width: 96
Flags: W
HStem: 0 16<19.2852 60.7148> 64 16<19.2852 60.7148>
VStem: 0 16<19.2852 60.7148> 64 16<19.2852 60.7148>
AnchorPoint: "Top" 40 80 basechar 0
LayerCount: 2
Back
Fore
SplineSet
40 16 m 0
 64 16 64 16 64 40 c 0
 64 64 64 64 40 64 c 0
 16 64 16 64 16 40 c 0
 16 16 16 16 40 16 c 0
40 80 m 0
 72 80 80 72 80 40 c 0
 80 8 72 0 40 0 c 0
 8 0 0 8 0 40 c 0
 0 72 8 80 40 80 c 0
EndSplineSet
Validated: 1
Substitution2: "'ss02' Style Set 2 lookup 2-1" o.igr
Substitution2: "'ss01' Style Set 1 lookup 1-1" o.sga
EndChar

StartChar: uni0440
Encoding: 1088 1088 41
AltUni2: 001d56.ffffffff.0 000440.ffffffff.0
Width: 96
Flags: W
HStem: 16 16<16 52.7493> 64 16<33.9659 62.4263>
VStem: 0 16<-16 16 32 50.6145 68 80> 64 16<36.0205 62.4263>
AnchorPoint: "Top" 40 80 basechar 0
LayerCount: 2
Back
Fore
SplineSet
16 68 m 1
 24 73 32 80 48 80 c 0
 72 80 80 72 80 48 c 0
 80 24 72 16 16 16 c 1
 16 -16 l 1
 0 -16 l 1
 0 80 l 1
 16 80 l 1
 16 68 l 1
16 48 m 1
 16 32 l 1
 64 32 64 32 64 48 c 0
 64 64 64 64 48 64 c 0
 33 64 24 56 16 48 c 1
EndSplineSet
Validated: 1
Substitution2: "'ss02' Style Set 2 lookup 2-1" p.igr
Substitution2: "'ss01' Style Set 1 lookup 1-1" p.sga
EndChar

StartChar: q
Encoding: 113 113 42
Width: 96
Flags: W
HStem: 16 16<27.2507 64> 64 16<17.5737 46.0341>
VStem: 0 16<36.0205 62.4263> 64 16<-16 16 32 50.6145 68 80>
AnchorPoint: "Top" 40 80 basechar 0
LayerCount: 2
Fore
SplineSet
64 68 m 1
 64 80 l 1
 80 80 l 1
 80 -16 l 1
 64 -16 l 1
 64 16 l 1
 8 16 0 24 0 48 c 0
 0 72 8 80 32 80 c 0
 48 80 56 73 64 68 c 1
64 48 m 1
 56 56 47 64 32 64 c 0
 16 64 16 64 16 48 c 0
 16 32 16 32 64 32 c 1
 64 48 l 1
EndSplineSet
Validated: 1
Substitution2: "'ss02' Style Set 2 lookup 2-1" q.igr
Substitution2: "'ss01' Style Set 1 lookup 1-1" q.sga
EndChar

StartChar: r
Encoding: 114 114 43
AltUni2: 001d63.ffffffff.0
Width: 96
Flags: W
HStem: 0 21G<0 16> 64 16<33.9659 62.4263>
VStem: 0 16<0 50.6145 68 80> 64 16<48 61.9374>
AnchorPoint: "Top" 40 80 basechar 0
LayerCount: 2
Back
Fore
SplineSet
16 48 m 1
 16 0 l 1
 0 0 l 1
 0 80 l 1
 16 80 l 1
 16 68 l 1
 24 73 32 80 48 80 c 0
 72 80 80 73 80 48 c 1
 64 48 l 1
 64 64 64 64 48 64 c 0
 33 64 24 56 16 48 c 1
EndSplineSet
Validated: 1
Substitution2: "'ss02' Style Set 2 lookup 2-1" r.igr
Substitution2: "'ss01' Style Set 1 lookup 1-1" r.sga
EndChar

StartChar: uni0455
Encoding: 1109 1109 44
AltUni2: 000455.ffffffff.0 0002e2.ffffffff.0
Width: 96
Flags: W
HStem: 0 16<0 36.4225> 32 16<16.9861 62.5729> 64 16<43.5775 80>
VStem: 0 16<49.1616 61.476> 64 16<18.524 30.9009>
CounterMasks: 1 e0
AnchorPoint: "Top" 40 80 basechar 0
LayerCount: 2
Back
Fore
SplineSet
0 0 m 0
 0 16 l 0
 64 16 64 16 64 24 c 0
 64 32 64 32 40 32 c 0
 9 32 0 36 0 56 c 0
 0 76 8 80 80 80 c 0
 80 64 l 0
 16 64 16 64 16 56 c 0
 16 48 16 48 40 48 c 0
 72 48 80 42 80 24 c 0
 80 4 72 0 0 0 c 0
EndSplineSet
Validated: 1
Substitution2: "'ss02' Style Set 2 lookup 2-1" s.igr
Substitution2: "'ss01' Style Set 1 lookup 1-1" s.sga
EndChar

StartChar: t
Encoding: 116 116 45
AltUni2: 001d57.ffffffff.0
Width: 64
Flags: W
HStem: 0 16<36.5565 48> 64 16<0 16 32 48>
VStem: 16 16<27.2507 64 80 112>
AnchorPoint: "Top" 40 112 basechar 0
LayerCount: 2
Back
Fore
SplineSet
48 0 m 1
 20 0 16 8 16 64 c 1
 0 64 l 1
 0 80 l 1
 16 80 l 1
 16 112 l 1
 32 112 l 1
 32 80 l 1
 48 80 l 1
 48 64 l 1
 32 64 l 1
 32 16 32 16 48 16 c 1
 48 0 l 1
EndSplineSet
Validated: 1
Substitution2: "'ss02' Style Set 2 lookup 2-1" t.igr
Substitution2: "'ss01' Style Set 1 lookup 1-1" t.sga
EndChar

StartChar: uni057D
Encoding: 1405 1405 46
AltUni2: 001d64.ffffffff.0 001d58.ffffffff.0 00057d.ffffffff.0
Width: 96
Flags: W
HStem: 0 16<30.3715 64>
VStem: 0 16<43.5775 80> 64 16<16 80>
AnchorPoint: "Top" 40 80 basechar 0
LayerCount: 2
Fore
SplineSet
64 16 m 1
 64 80 l 1
 80 80 l 1
 80 0 l 1
 64 0 l 2
 4 0 0 8 0 80 c 1
 16 80 l 1
 16 16 16 16 64 16 c 1
EndSplineSet
Validated: 1
Substitution2: "'ss02' Style Set 2 lookup 2-1" u.igr
Substitution2: "'ss01' Style Set 1 lookup 1-1" u.sga
EndChar

StartChar: v
Encoding: 118 118 47
AltUni2: 001d65.ffffffff.0 001d5b.ffffffff.0
Width: 96
Flags: W
HStem: 0 21G<24 56>
AnchorPoint: "Top" 40 80 basechar 0
LayerCount: 2
Back
Fore
SplineSet
0 80 m 1
 18 80 l 1
 40 22 l 1
 62 80 l 1
 80 80 l 1
 48 0 l 1
 32 0 l 1
 0 80 l 1
EndSplineSet
Validated: 1
Substitution2: "'ss02' Style Set 2 lookup 2-1" v.igr
Substitution2: "'ss01' Style Set 1 lookup 1-1" v.sga
EndChar

StartChar: w
Encoding: 119 119 48
AltUni2: 000561.ffffffff.0
Width: 96
Flags: W
HStem: 0 16<18.524 30.5195 50.8477 64>
VStem: 0 16<43.5775 80> 32 16<18.9772 48> 64 16<16 80>
CounterMasks: 1 70
AnchorPoint: "Top" 40 80 basechar 0
LayerCount: 2
Fore
SplineSet
64 16 m 1
 64 80 l 1
 80 80 l 1
 80 0 l 1
 64 0 l 2
 52 0 48 0 40 8 c 1
 36 2 34 0 24 0 c 0
 4 0 0 8 0 80 c 1
 16 80 l 1
 16 16 16 16 24 16 c 0
 32 16 32 16 32 48 c 1
 48 48 l 1
 48 16 48 16 64 16 c 1
EndSplineSet
Validated: 1
Substitution2: "'ss02' Style Set 2 lookup 2-1" w.igr
Substitution2: "'ss01' Style Set 1 lookup 1-1" w.sga
EndChar

StartChar: uni0445
Encoding: 1093 1093 49
AltUni2: 000445.ffffffff.0 0002e3.ffffffff.0
Width: 96
Flags: W
HStem: 0 21G<0 34.2857 45.7143 80>
AnchorPoint: "Top" 40 80 basechar 0
LayerCount: 2
Back
Fore
SplineSet
0 80 m 1
 20 80 l 1
 40 52 l 1
 60 80 l 1
 80 80 l 1
 50 40 l 1
 80 0 l 1
 60 0 l 1
 40 28 l 1
 20 0 l 1
 0 0 l 1
 30 40 l 1
 0 80 l 1
EndSplineSet
Validated: 1
Substitution2: "'ss02' Style Set 2 lookup 2-1" x.igr
Substitution2: "'ss01' Style Set 1 lookup 1-1" x.sga
EndChar

StartChar: uni0443
Encoding: 1091 1091 50
AltUni2: 000443.ffffffff.0
Width: 96
Flags: W
HStem: -16 16<0 37> 16 16<28.6875 64>
VStem: 0 16<43.7188 80> 64 16<4.55652 16 32 80>
AnchorPoint: "Top" 40 80 basechar 0
LayerCount: 2
Back
Fore
SplineSet
64 16 m 1
 4 16 0 28 0 80 c 1
 16 80 l 1
 16 32 16 32 64 32 c 1
 64 80 l 1
 80 80 l 1
 80 16 l 2
 80 -12 68 -16 0 -16 c 1
 0 0 l 1
 64 0 64 0 64 16 c 1
EndSplineSet
Validated: 1
Substitution2: "'ss02' Style Set 2 lookup 2-1" y.igr
Substitution2: "'ss01' Style Set 1 lookup 1-1" y.sga
EndChar

StartChar: z
Encoding: 122 122 51
AltUni2: 001dbb.ffffffff.0
Width: 96
Flags: W
HStem: 0 16<31 80> 64 16<0 48>
AnchorPoint: "Top" 40 80 basechar 0
LayerCount: 2
Back
Fore
SplineSet
0 80 m 1
 80 80 l 1
 31 16 l 1
 80 16 l 1
 80 0 l 1
 0 0 l 1
 48 64 l 1
 0 64 l 1
 0 80 l 1
EndSplineSet
Validated: 1
Substitution2: "'ss02' Style Set 2 lookup 2-1" z.igr
Substitution2: "'ss01' Style Set 1 lookup 1-1" z.sga
EndChar

StartChar: zero
Encoding: 48 48 52
Width: 96
Flags: W
HStem: 0 16<20.3394 58.5462> 96 16<21.4538 59.6606>
VStem: 0 16<20.5394 32 50 87.1116> 64 16<24.8884 62 80 91.4606>
LayerCount: 2
Back
Fore
SplineSet
40 112 m 0
 74 112 80 104 80 56 c 0
 80 8 74 0 40 0 c 0
 6 0 0 8 0 56 c 0
 0 104 6 112 40 112 c 0
40 16 m 0
 64 16 64 16 64 62 c 1
 16 32 l 1
 16 16 22 16 40 16 c 0
64 80 m 1
 64 96 58 96 40 96 c 0
 16 96 16 96 16 50 c 1
 64 80 l 1
EndSplineSet
Validated: 1
Substitution2: "'ss02' Style Set 2 lookup 2-1" zero.igr
EndChar

StartChar: one
Encoding: 49 49 53
Width: 96
Flags: W
HStem: 0 16<0 32 48 80>
VStem: 32 16<16 80>
LayerCount: 2
Back
Fore
SplineSet
0 0 m 1
 0 16 l 1
 32 16 l 1
 32 80 l 1
 16 80 l 1
 32 112 l 1
 48 112 l 1
 48 16 l 1
 80 16 l 1
 80 0 l 1
 0 0 l 1
EndSplineSet
Validated: 1
Substitution2: "'ss02' Style Set 2 lookup 2-1" one.igr
EndChar

StartChar: two
Encoding: 50 50 54
Width: 96
Flags: W
HStem: 0 16<16 64> 48 16<29.3665 61.6606> 96 16<18.5041 61.7139>
VStem: 0 16<16 31.8501 80 93.0985> 64 16<16 32 66.3283 93.6717>
CounterMasks: 1 e0
LayerCount: 2
Back
Fore
SplineSet
80 32 m 1
 80 0 l 1
 0 0 l 1
 0 16 l 2
 0 47 16 64 40 64 c 0
 64 64 64 64 64 80 c 0
 64 96 64 96 40 96 c 0
 16 96 16 96 16 80 c 1
 0 80 l 1
 0 105 9 112 40 112 c 0
 72 112 80 104 80 80 c 0
 80 56 72 48 40 48 c 0
 23 48 16 32 16 16 c 1
 64 16 l 1
 64 32 l 1
 80 32 l 1
EndSplineSet
Validated: 1
Substitution2: "'ss02' Style Set 2 lookup 2-1" two.igr
EndChar

StartChar: three
Encoding: 51 51 55
Width: 96
Flags: W
HStem: 0 16<18.5041 61.7139> 48 16<32 61.0228> 96 16<18.5041 61.7139>
VStem: 0 16<18.9015 32 80 93.0985> 64 16<18.3283 45.1288 66.8712 93.6717>
CounterMasks: 1 e0
LayerCount: 2
Back
Fore
SplineSet
72 56 m 1
 78 51 80 43 80 32 c 0
 80 8 72 0 40 0 c 0
 9 0 0 7 0 32 c 1
 16 32 l 1
 16 16 16 16 40 16 c 0
 64 16 64 16 64 32 c 0
 64 48 64 48 32 48 c 1
 32 64 l 1
 64 64 64 64 64 80 c 0
 64 96 64 96 40 96 c 0
 16 96 16 96 16 80 c 1
 0 80 l 1
 0 105 9 112 40 112 c 0
 72 112 80 104 80 80 c 0
 80 69 78 61 72 56 c 1
EndSplineSet
Validated: 1
Substitution2: "'ss02' Style Set 2 lookup 2-1" three.igr
EndChar

StartChar: four
Encoding: 52 52 56
Width: 96
Flags: W
HStem: 0 21G<64 80> 32 16<16 64>
VStem: 64 16<0 32 48 96>
LayerCount: 2
Back
Fore
SplineSet
16 48 m 1
 64 48 l 1
 64 96 l 1
 16 48 l 1
80 112 m 1
 80 0 l 1
 64 0 l 1
 64 32 l 1
 0 32 l 1
 0 56 l 1
 56 112 l 1
 80 112 l 1
EndSplineSet
Validated: 1
Substitution2: "'ss02' Style Set 2 lookup 2-1" four.igr
EndChar

StartChar: five
Encoding: 53 53 57
Width: 96
Flags: W
HStem: 0 16<18.5041 60.7148> 64 16<16 37> 96 16<16 80>
VStem: 0 16<18.9015 32 80 96> 64 16<19.2852 56.9402>
LayerCount: 2
Back
Fore
SplineSet
16 80 m 0
 72 80 80 72 80 40 c 0
 80 8 72 0 40 0 c 0
 9 0 0 7 0 32 c 1
 16 32 l 1
 16 16 16 16 40 16 c 0
 64 16 64 16 64 40 c 0
 64 64 64 64 0 64 c 1
 0 112 l 1
 80 112 l 1
 80 96 l 1
 16 96 l 0
 16 80 l 0
EndSplineSet
Validated: 1
Substitution2: "'ss02' Style Set 2 lookup 2-1" five.igr
EndChar

StartChar: six
Encoding: 54 54 58
Width: 96
Flags: W
HStem: 0 16<20.5542 61.6732> 48 16<16 52.7493> 96 16<32.0202 64>
VStem: 0 16<21.0023 47.7298> 64 16<18.354 43.9795>
CounterMasks: 1 e0
LayerCount: 2
Back
Fore
SplineSet
80 32 m 0
 80 6 74 0 40 0 c 0
 7 0 0 8 0 32 c 0
 0 104 8 112 64 112 c 1
 64 96 l 1
 25 96 16 92 16 64 c 1
 72 64 80 56 80 32 c 0
40 16 m 0
 64 16 64 16 64 32 c 0
 64 48 64 48 16 48 c 1
 16 16 16 16 40 16 c 0
EndSplineSet
Validated: 1
Substitution2: "'ss02' Style Set 2 lookup 2-1" six.igr
EndChar

StartChar: seven
Encoding: 55 55 59
Width: 96
Flags: W
HStem: 0 21G<32 54.6667> 96 16<16 63>
VStem: 0 16<80 96>
LayerCount: 2
Back
Fore
SplineSet
32 0 m 1
 63 96 l 1
 16 96 l 1
 16 80 l 1
 0 80 l 1
 0 112 l 1
 80 112 l 1
 80 96 l 1
 48 0 l 1
 32 0 l 1
EndSplineSet
Validated: 1
Substitution2: "'ss02' Style Set 2 lookup 2-1" seven.igr
EndChar

StartChar: eight
Encoding: 56 56 60
Width: 96
Flags: W
HStem: 0 16<18.5417 61.6732> 48 16<18.2329 61.7671> 96 16<18.5417 61.4583>
VStem: 0 16<18.3283 45.6489 66.3511 93.6717> 64 16<18.3283 45.6489 66.3511 93.6717>
CounterMasks: 1 e0
LayerCount: 2
Back
Fore
SplineSet
40 16 m 0
 64 16 64 16 64 32 c 0
 64 48 64 48 40 48 c 0
 16 48 16 48 16 32 c 0
 16 16 16 16 40 16 c 0
40 112 m 0
 73 112 80 104 80 80 c 0
 80 69 77 61 72 56 c 1
 77 51 80 43 80 32 c 0
 80 8 74 0 40 0 c 0
 7 0 0 8 0 32 c 0
 0 43 3 51 8 56 c 1
 3 61 0 69 0 80 c 0
 0 104 7 112 40 112 c 0
40 64 m 0
 64 64 64 64 64 80 c 0
 64 96 64 96 40 96 c 0
 16 96 16 96 16 80 c 0
 16 64 16 64 40 64 c 0
EndSplineSet
Validated: 1
Substitution2: "'ss02' Style Set 2 lookup 2-1" eight.igr
EndChar

StartChar: nine
Encoding: 57 57 61
Width: 96
Flags: W
HStem: 0 16<16 47.9798> 48 16<27.2507 64> 96 16<18.3268 59.4458>
VStem: 0 16<68.0205 93.646> 64 16<64.2702 90.9977>
CounterMasks: 1 e0
LayerCount: 2
Fore
SplineSet
0 80 m 0
 0 106 6 112 40 112 c 0
 73 112 80 104 80 80 c 0
 80 8 72 0 16 0 c 1
 16 16 l 1
 55 16 64 20 64 48 c 1
 8 48 0 56 0 80 c 0
40 96 m 0
 16 96 16 96 16 80 c 0
 16 64 16 64 64 64 c 1
 64 96 64 96 40 96 c 0
EndSplineSet
Validated: 1
Substitution2: "'ss02' Style Set 2 lookup 2-1" nine.igr
EndChar

StartChar: exclam
Encoding: 33 33 62
Width: 32
Flags: W
HStem: 0 16<0 16>
VStem: 0 16<0 16 32 112>
LayerCount: 2
Back
Fore
SplineSet
0 16 m 1
 16 16 l 1
 16 0 l 1
 0 0 l 1
 0 16 l 1
0 112 m 1
 16 112 l 1
 16 32 l 1
 0 32 l 1
 0 112 l 1
EndSplineSet
Validated: 1
Substitution2: "'ss02' Style Set 2 lookup 2-1" exclam.igr
EndChar

StartChar: uni02BA
Encoding: 698 698 63
AltUni2: 00030e.ffffffff.0 00030b.ffffffff.0 0002ba.ffffffff.0
Width: 64
Flags: W
HStem: 80 32<0 16 32 48>
VStem: 0 16<80 112> 32 16<80 112>
LayerCount: 2
Back
Fore
SplineSet
16 112 m 1
 16 80 l 1
 0 80 l 1
 0 112 l 1
 16 112 l 1
48 112 m 5
 48 80 l 5
 32 80 l 5
 32 112 l 5
 48 112 l 5
EndSplineSet
Validated: 1
EndChar

StartChar: numbersign
Encoding: 35 35 64
Width: 96
Flags: W
HStem: 0 21G<16 32 48 64> 32 16<0 16 32 48 64 80> 64 16<0 16 32 48 64 80>
VStem: 16 16<0 32 48 64 80 112> 48 16<0 32 48 64 80 112>
LayerCount: 2
Back
Fore
SplineSet
16 112 m 1
 32 112 l 1
 32 80 l 1
 48 80 l 1
 48 112 l 1
 64 112 l 1
 64 80 l 1
 80 80 l 1
 80 64 l 1
 64 64 l 1
 64 48 l 1
 80 48 l 1
 80 32 l 1
 64 32 l 1
 64 0 l 1
 48 0 l 1
 48 32 l 1
 32 32 l 1
 32 0 l 1
 16 0 l 1
 16 32 l 1
 0 32 l 1
 0 48 l 1
 16 48 l 1
 16 64 l 1
 0 64 l 1
 0 80 l 1
 16 80 l 1
 16 112 l 1
48 48 m 1
 48 64 l 1
 32 64 l 1
 32 48 l 1
 48 48 l 1
EndSplineSet
Validated: 1
EndChar

StartChar: dollar
Encoding: 36 36 65
Width: 96
Flags: W
HStem: 0 21G<32 48> 16 16<0 31.6145> 48 16<16.9861 62.5729> 80 16<48.3855 80>
VStem: 0 16<65.1616 77.6956> 32 16<0 16 96 112> 64 16<34.3044 46.9009>
CounterMasks: 1 0e
LayerCount: 2
Back
Fore
SplineSet
0 16 m 1x7e
 0 32 l 1
 64 32 64 32 64 40 c 0
 64 48 64 48 40 48 c 0
 9 48 0 52 0 72 c 0
 0 86 4 96 32 96 c 1
 32 112 l 1
 48 112 l 1
 48 96 l 1
 80 96 l 1
 80 80 l 1
 16 80 16 80 16 72 c 0
 16 64 16 64 40 64 c 0
 72 64 80 58 80 40 c 0
 80 26 76 16 48 16 c 1x7e
 48 0 l 1
 32 0 l 1xbe
 32 16 l 1
 0 16 l 1x7e
EndSplineSet
Validated: 1
EndChar

StartChar: percent
Encoding: 37 37 66
Width: 96
Flags: W
HStem: 0 32<59.7969 76.2031> 80 32<3.79688 20.2031>
VStem: 0 24<83.7388 108.261> 56 24<3.73878 28.2612>
LayerCount: 2
Back
Fore
SplineSet
12 112 m 0
 20 112 24 108 24 96 c 0
 24 84 20 80 12 80 c 0
 4 80 0 84 0 96 c 0
 0 108 4 112 12 112 c 0
68 32 m 4
 76 32 80 28 80 16 c 4
 80 4 76 0 68 0 c 4
 60 0 56 4 56 16 c 4
 56 28 60 32 68 32 c 4
0 0 m 1
 62 112 l 1
 80 112 l 1
 18 0 l 1
 0 0 l 1
EndSplineSet
Validated: 1
EndChar

StartChar: ampersand
Encoding: 38 38 67
Width: 96
Flags: W
HStem: 0 16<17.5737 46.5043> 48 16<18.4631 32> 96 16<32.3342 47.6658>
VStem: 0 16<17.5737 45.6717> 16 16<80.3342 95.6658> 48 16<80.3342 95.6658>
CounterMasks: 1 e0
LayerCount: 2
Back
Fore
SplineSet
48 88 m 0xec
 48 96 48 96 40 96 c 0
 32 96 32 96 32 88 c 0
 32 80 32 80 40 80 c 0
 48 80 48 80 48 88 c 0xec
16 88 m 0
 16 104 24 112 40 112 c 0
 56 112 64 104 64 88 c 0
 64 72 56 64 48 64 c 1
 56 50 l 1
 62 64 l 1
 80 64 l 1
 64 32 l 1
 80 0 l 1
 62 0 l 1
 58 8 l 1
 52 0 48 0 32 0 c 0xec
 8 0 0 8 0 32 c 1xf4
 0 56 8 64 32 64 c 1
 24 64 16 72 16 88 c 0
16 32 m 0xf4
 16 16 16 16 32 16 c 0xec
 48 16 48 16 48 32 c 1
 40 48 l 1
 16 48 16 48 16 32 c 0xf4
EndSplineSet
Validated: 1
EndChar

StartChar: uni0374
Encoding: 884 884 68
AltUni2: 000374.ffffffff.0 0002c8.ffffffff.0 0002bc.ffffffff.0 0002b9.ffffffff.0
Width: 48
Flags: W
HStem: 80 32<0 16>
VStem: 0 16<80 112>
AnchorPoint: "Top" 8 64 mark 0
LayerCount: 2
Back
Fore
SplineSet
0 112 m 1
 16 112 l 1
 16 80 l 1
 0 80 l 1
 0 112 l 1
EndSplineSet
Validated: 1
EndChar

StartChar: parenleft
Encoding: 40 40 69
Width: 64
Flags: W
HStem: 0 16<36.75 48> 96 16<36.75 48>
VStem: 0 16<40.596 71.404>
LayerCount: 2
Back
Fore
SplineSet
48 0 m 4
 16 0 0 32 0 56 c 4
 0 80 16 112 48 112 c 4
 48 96 l 4
 26 96 16 72 16 56 c 4
 16 40 26 16 48 16 c 4
 48 0 l 4
EndSplineSet
Validated: 1
EndChar

StartChar: parenright
Encoding: 41 41 70
Width: 64
Flags: W
HStem: 0 16<0 11.25> 96 16<0 11.25>
VStem: 32 16<40.596 71.404>
LayerCount: 2
Fore
SplineSet
0 112 m 0
 32 112 48 80 48 56 c 0
 48 32 32 0 0 0 c 0
 0 16 l 0
 22 16 32 40 32 56 c 0
 32 72 22 96 0 96 c 0
 0 112 l 0
EndSplineSet
Validated: 1
EndChar

StartChar: asterisk
Encoding: 42 42 71
Width: 64
Flags: W
LayerCount: 2
Back
Fore
SplineSet
8 100 m 1
 20 112 l 1
 32 100 l 1
 44 112 l 1
 56 100 l 1
 44 88 l 1
 56 76 l 1
 44 64 l 1
 32 76 l 1
 20 64 l 1
 8 76 l 1
 20 88 l 1
 8 100 l 1
EndSplineSet
Validated: 1
EndChar

StartChar: plus
Encoding: 43 43 72
Width: 96
Flags: W
HStem: 48 16<0 32 48 80>
VStem: 32 16<16 48 64 96>
LayerCount: 2
Back
Fore
SplineSet
32 96 m 1
 48 96 l 1
 48 64 l 1
 80 64 l 1
 80 48 l 1
 48 48 l 1
 48 16 l 1
 32 16 l 1
 32 48 l 1
 0 48 l 1
 0 64 l 1
 32 64 l 1
 32 96 l 1
EndSplineSet
Validated: 1
EndChar

StartChar: comma
Encoding: 44 44 73
Width: 48
Flags: W
HStem: -16 32
VStem: 0 32
LayerCount: 2
Back
Fore
SplineSet
32 16 m 1
 16 -16 l 1
 0 -16 l 1
 16 16 l 1
 32 16 l 1
EndSplineSet
Validated: 1
Substitution2: "'ss02' Style Set 2 lookup 2-1" comma.igr
EndChar

StartChar: hyphen
Encoding: 45 45 74
Width: 96
Flags: W
HStem: 48 16<0 80>
LayerCount: 2
Back
Fore
SplineSet
0 64 m 1
 80 64 l 1
 80 48 l 1
 0 48 l 1
 0 64 l 1
EndSplineSet
Validated: 1
Substitution2: "'ss02' Style Set 2 lookup 2-1" hyphen.igr
EndChar

StartChar: period
Encoding: 46 46 75
Width: 32
Flags: W
HStem: 0 16<0 16>
VStem: 0 16<0 16>
LayerCount: 2
Fore
SplineSet
0 0 m 1
 0 16 l 1
 16 16 l 1
 16 0 l 1
 0 0 l 1
EndSplineSet
Validated: 1
Substitution2: "'ss01' Style Set 1 lookup 1-1" period.sga
Substitution2: "'ss02' Style Set 2 lookup 2-1" period.igr
EndChar

StartChar: slash
Encoding: 47 47 76
Width: 96
Flags: W
HStem: 0 21G<0 29.0714>
LayerCount: 2
Back
Fore
SplineSet
0 0 m 1
 62 112 l 1
 80 112 l 1
 18 0 l 1
 0 0 l 1
EndSplineSet
Validated: 1
EndChar

StartChar: colon
Encoding: 58 58 77
AltUni2: 000589.ffffffff.0
Width: 32
Flags: W
HStem: 0 16<0 16> 64 16<0 16>
VStem: 0 16<0 16 64 80>
LayerCount: 2
Back
Fore
SplineSet
0 16 m 1
 16 16 l 1
 16 0 l 1
 0 0 l 1
 0 16 l 1
0 80 m 1
 16 80 l 1
 16 64 l 1
 0 64 l 1
 0 80 l 1
EndSplineSet
Validated: 1
EndChar

StartChar: uni037E
Encoding: 894 894 78
AltUni2: 00037e.ffffffff.0
Width: 40
Flags: W
HStem: 64 16<8 24>
VStem: 8 16<64 80>
LayerCount: 2
Fore
SplineSet
8 16 m 1
 24 16 l 1
 16 -16 l 1
 0 -16 l 1
 8 16 l 1
8 80 m 1
 24 80 l 1
 24 64 l 1
 8 64 l 1
 8 80 l 1
EndSplineSet
Validated: 1
EndChar

StartChar: less
Encoding: 60 60 79
Width: 80
Flags: W
HStem: 0 21G<28.2857 64>
LayerCount: 2
Back
Fore
SplineSet
64 0 m 1
 44 0 l 1
 0 56 l 0
 44 112 l 1
 64 112 l 1
 20 56 l 1
 64 0 l 1
EndSplineSet
Validated: 1
EndChar

StartChar: greater
Encoding: 62 62 80
Width: 80
Flags: W
HStem: 0 21G<0 35.7143>
LayerCount: 2
Fore
SplineSet
0 0 m 1
 44 56 l 1
 0 112 l 1
 20 112 l 1
 64 56 l 0
 20 0 l 1
 0 0 l 1
EndSplineSet
Validated: 1
EndChar

StartChar: equal
Encoding: 61 61 81
Width: 96
Flags: W
HStem: 16 16<0 80> 64 16<0 80>
LayerCount: 2
Back
Fore
SplineSet
0 32 m 1
 80 32 l 1
 80 16 l 1
 0 16 l 1
 0 32 l 1
0 80 m 1
 80 80 l 1
 80 64 l 1
 0 64 l 1
 0 80 l 1
EndSplineSet
Validated: 1
EndChar

StartChar: question
Encoding: 63 63 82
Width: 96
Flags: W
HStem: 0 16<32 48> 48 16<49.4886 62.5114> 96 16<18.5417 61.4583>
VStem: 0 16<80 93.5369> 32 16<0 16 32 46.3413> 64 16<65.7797 93.6717>
CounterMasks: 1 fc
LayerCount: 2
Back
Fore
SplineSet
32 0 m 1
 32 16 l 1
 48 16 l 1
 48 0 l 1
 32 0 l 1
32 32 m 1
 32 56 40 64 48 64 c 0
 64 64 64 64 64 80 c 0
 64 96 64 96 40 96 c 0
 16 96 16 96 16 80 c 1
 0 80 l 1
 0 104 7 112 40 112 c 0
 73 112 80 104 80 80 c 0
 80 57 71 48 64 48 c 1
 48 48 48 48 48 32 c 9
 32 32 l 1
EndSplineSet
Validated: 1
Substitution2: "'ss02' Style Set 2 lookup 2-1" question.igr
EndChar

StartChar: at
Encoding: 64 64 83
Width: 112
Flags: W
HStem: -16 16<43.5775 80> 16 16<42.762 56 72 80> 80 16<23.1616 70.9893>
VStem: 0 16<11.1525 72.946> 24 16<32.9854 47.2329> 56 16<32 47.8073> 80 16<32 67.6443>
LayerCount: 2
Back
Fore
SplineSet
40 64 m 0
 72 64 72 64 72 32 c 1
 80 32 l 1
 80 80 77 80 48 80 c 0
 16 80 16 80 16 40 c 0
 16 0 16 0 80 0 c 1
 80 -16 l 1
 8 -16 0 -8 0 40 c 0
 0 88 8 96 48 96 c 0
 85 96 96 89 96 32 c 0
 96 20 90 16 80 16 c 0
 28 16 24 20 24 40 c 0
 24 59 28 64 40 64 c 0
56 48 m 0
 40 48 40 48 40 40 c 0
 40 32 40 32 56 32 c 1
 56 48 l 0
EndSplineSet
Validated: 1
EndChar

StartChar: bracketleft
Encoding: 91 91 84
Width: 64
Flags: W
HStem: 0 16<16 48> 96 16<16 48>
VStem: 0 16<16 96>
LayerCount: 2
Back
Fore
SplineSet
0 112 m 1
 48 112 l 1
 48 96 l 1
 16 96 l 1
 16 16 l 1
 48 16 l 1
 48 0 l 1
 0 0 l 1
 0 112 l 1
EndSplineSet
Validated: 1
EndChar

StartChar: bracketright
Encoding: 93 93 85
Width: 64
Flags: W
HStem: 0 16<0 32> 96 16<0 32>
VStem: 32 16<16 96>
LayerCount: 2
Fore
SplineSet
48 0 m 1
 0 0 l 1
 0 16 l 1
 32 16 l 1
 32 96 l 1
 0 96 l 1
 0 112 l 1
 48 112 l 1
 48 0 l 1
EndSplineSet
Validated: 1
EndChar

StartChar: backslash
Encoding: 92 92 86
Width: 96
Flags: W
HStem: 0 21G<50.9286 80>
LayerCount: 2
Fore
SplineSet
80 0 m 1
 62 0 l 1
 0 112 l 1
 18 112 l 1
 80 0 l 1
EndSplineSet
Validated: 1
EndChar

StartChar: uni02C4
Encoding: 708 708 87
AltUni2: 000302.ffffffff.0 0002c6.ffffffff.0 0002c4.ffffffff.0
Width: 96
Flags: W
HStem: 80 32
AnchorPoint: "Top" 24 64 mark 0
LayerCount: 2
Back
Fore
SplineSet
48 80 m 1
 32 80 l 1
 24 96 l 1
 16 80 l 1
 0 80 l 1
 16 112 l 1
 32 112 l 1
 48 80 l 1
EndSplineSet
Validated: 1
EndChar

StartChar: underscore
Encoding: 95 95 88
Width: 96
Flags: W
HStem: -16 16<0 80>
LayerCount: 2
Back
Fore
SplineSet
0 0 m 1
 80 0 l 1
 80 -16 l 1
 0 -16 l 1
 0 0 l 1
EndSplineSet
Validated: 1
EndChar

StartChar: grave
Encoding: 96 96 89
Width: 48
Flags: W
HStem: 80 32
VStem: 0 32
AnchorPoint: "Top" 24 64 mark 0
LayerCount: 2
Back
Fore
SplineSet
0 112 m 1
 16 112 l 1
 32 80 l 1
 16 80 l 1
 0 112 l 1
EndSplineSet
Validated: 1
EndChar

StartChar: braceleft
Encoding: 123 123 90
Width: 64
Flags: W
HStem: 0 16<35.4062 48> 96 16<35.4062 48>
VStem: 16 16<19.2802 40 72 92.7198>
LayerCount: 2
Back
Fore
SplineSet
32 44 m 1
 32 16 37 16 48 16 c 1
 48 0 l 1
 30 0 16 8 16 40 c 1
 0 56 l 1
 16 72 l 1
 16 104 30 112 48 112 c 1
 48 96 l 1
 37 96 32 96 32 68 c 1
 20 56 l 1
 32 44 l 1
EndSplineSet
Validated: 1
EndChar

StartChar: braceright
Encoding: 125 125 91
Width: 64
Flags: W
HStem: 0 16<0 12.5938> 96 16<0 12.5938>
VStem: 16 16<19.2802 40 72 92.7198>
LayerCount: 2
Fore
SplineSet
16 68 m 1
 16 96 11 96 0 96 c 1
 0 112 l 1
 18 112 32 104 32 72 c 1
 48 56 l 1
 32 40 l 1
 32 8 18 0 0 0 c 1
 0 16 l 1
 11 16 16 16 16 44 c 1
 28 56 l 1
 16 68 l 1
EndSplineSet
Validated: 1
EndChar

StartChar: bar
Encoding: 124 124 92
Width: 32
Flags: W
HStem: 0 21G<0 16> 0 21G<0 16> 92 20G<0 16>
VStem: 0 16<0 112>
LayerCount: 2
Back
Fore
SplineSet
0 112 m 1xb0
 16 112 l 1
 16 0 l 1
 0 0 l 1
 0 112 l 1xb0
EndSplineSet
Validated: 1
EndChar

StartChar: asciitilde
Encoding: 126 126 93
Width: 112
Flags: W
HStem: 80 16<57.5887 78.4263> 96 16<17.5737 38.4113>
VStem: 0 16<80 94.3413> 80 16<97.6587 112>
LayerCount: 2
Back
Fore
SplineSet
32 96 m 3x70
 16 96 16 96 16 80 c 1
 0 80 l 1xb0
 0 104 8 112 32 112 c 0x70
 48 112 56 96 64 96 c 0xb0
 80 96 80 96 80 112 c 1
 96 112 l 1x70
 96 88 88 80 64 80 c 0xb0
 48 80 40 96 32 96 c 3x70
EndSplineSet
Validated: 1
EndChar

StartChar: uni0341
Encoding: 833 833 95
AltUni2: 000341.ffffffff.0 000301.ffffffff.0
Width: 48
Flags: W
HStem: 80 32
VStem: 0 32
AnchorPoint: "Top" 8 64 mark 0
LayerCount: 2
Fore
SplineSet
32 112 m 1
 16 80 l 1
 0 80 l 1
 16 112 l 1
 32 112 l 1
EndSplineSet
Validated: 1
EndChar

StartChar: sterling
Encoding: 163 163 96
Width: 96
VWidth: 112
Flags: W
HStem: 0 16<0 16 32 80> 48 16<0 16 32 64> 80 21G<64 80> 96 16<34.2316 62.9803>
VStem: 16 16<16 48 64 93.8869> 64 16<80 95.125>
LayerCount: 2
Back
Fore
SplineSet
16 48 m 1xdc
 0 48 l 1
 0 64 l 1
 16 64 l 1
 16 104 24 112 48 112 c 0xdc
 71 112 80 104 80 80 c 1
 64 80 l 1xec
 64 96 64 96 48 96 c 0
 32 96 32 96 32 64 c 1
 64 64 l 1
 64 48 l 1
 32 48 l 1
 32 16 l 1
 80 16 l 1
 80 0 l 1
 0 0 l 1
 0 16 l 1
 16 16 l 1
 16 48 l 1xdc
EndSplineSet
Validated: 1
EndChar

StartChar: uni030A
Encoding: 778 778 97
AltUni2: 00030a.ffffffff.0
Width: 64
Flags: W
HStem: 64 16<16.2559 31.7441> 96 16<16.2559 31.7441>
VStem: 0 16<80.2559 95.8661> 32 16<80.2559 95.8661>
AnchorPoint: "Top" 24 48 mark 0
LayerCount: 2
Back
Fore
SplineSet
16 88 m 0
 16 80 16 80 24 80 c 0
 32 80 32 80 32 88 c 0
 32 96 32 96 24 96 c 0
 16 96 16 96 16 88 c 0
0 88 m 0
 0 103 8 112 24 112 c 0
 40 112 48 103 48 88 c 0
 48 72 40 64 24 64 c 0
 8 64 0 72 0 88 c 0
EndSplineSet
Validated: 1
EndChar

StartChar: uni00AD
Encoding: 173 173 98
Width: 48
Flags: W
HStem: 32 16<0 32>
VStem: 0 32<32 48>
LayerCount: 2
Back
Fore
SplineSet
0 48 m 1
 32 48 l 1
 32 32 l 1
 0 32 l 1
 0 48 l 1
EndSplineSet
Validated: 1
EndChar

StartChar: copyright
Encoding: 169 169 99
Width: 128
Flags: W
HStem: 0 16<37.0935 74.9065> 32 16<48.2559 68.2031> 64 16<48.2559 68.2031> 96 16<37.0935 74.9065>
VStem: 0 16<37.0935 74.9065> 32 16<48.2559 63.7441> 64 16<48.2113 52 60 63.7887> 96 16<37.0935 74.9065>
LayerCount: 2
Back
Fore
SplineSet
56 32 m 0
 40 32 32 40 32 56 c 0
 32 72 40 80 56 80 c 0
 72 80 80 72 80 60 c 1
 64 60 l 1
 64 64 64 64 56 64 c 0
 48 64 48 64 48 56 c 0
 48 48 48 48 56 48 c 0
 64 48 64 48 64 52 c 1
 80 52 l 1
 80 40 72 32 56 32 c 0
16 56 m 0
 16 32 32 16 56 16 c 0
 80 16 96 32 96 56 c 0
 96 80 80 96 56 96 c 0
 32 96 16 80 16 56 c 0
0 56 m 0
 0 89 23 112 56 112 c 0
 89 112 112 89 112 56 c 0
 112 23 89 0 56 0 c 0
 23 0 0 23 0 56 c 0
EndSplineSet
Validated: 1
EndChar

StartChar: exclamdown
Encoding: 161 161 100
Width: 32
Flags: W
HStem: 0 21G<0 16> 0 21G<0 16> 60 20G<0 16> 96 16<0 16>
VStem: 0 16<0 80 96 112>
LayerCount: 2
Fore
SplineSet
16 96 m 1x38
 0 96 l 1
 0 112 l 1
 16 112 l 1
 16 96 l 1x38
16 0 m 1xb8
 0 0 l 1
 0 80 l 1
 16 80 l 1
 16 0 l 1xb8
EndSplineSet
Validated: 1
EndChar

StartChar: questiondown
Encoding: 191 191 101
Width: 96
Flags: W
HStem: 0 16<17.5087 62.4913> 48 16<16.7426 31.2574> 60 20G<32 48> 96 16<32 48>
VStem: 0 16<17.4993 46.9803> 32 16<64.875 80 96 112> 64 16<17.6587 32>
CounterMasks: 1 0e
LayerCount: 2
Fore
SplineSet
48 112 m 1x9e
 48 96 l 1
 32 96 l 1
 32 112 l 1
 48 112 l 1x9e
48 80 m 1xbe
 48 56 40 48 32 48 c 0
 16 48 16 48 16 32 c 0
 16 16 16 16 40 16 c 0
 64 16 64 16 64 32 c 1
 80 32 l 1
 80 8 73 0 40 0 c 0
 7 0 0 8 0 32 c 0
 0 55 9 64 16 64 c 1xde
 32 64 32 64 32 80 c 9
 48 80 l 1xbe
EndSplineSet
Validated: 1
EndChar

StartChar: logicalnot
Encoding: 172 172 102
Width: 96
Flags: W
HStem: 48 16<0 64>
VStem: 64 16<16 48>
LayerCount: 2
Back
Fore
SplineSet
64 48 m 1
 0 48 l 1
 0 64 l 1
 80 64 l 1
 80 16 l 1
 64 16 l 1
 64 48 l 1
EndSplineSet
Validated: 1
EndChar

StartChar: ordfeminine
Encoding: 170 170 103
Width: 80
Flags: W
HStem: 16 16<0 64> 48 16<16.3356 48> 72 16<16.3356 48> 96 16<16 47.3145>
VStem: 0 16<64.4892 77.75> 48 16<64 71.3811>
LayerCount: 2
Back
Fore
SplineSet
0 32 m 1
 64 32 l 1
 64 16 l 1
 0 16 l 1
 0 32 l 1
16 68 m 0
 16 64 16 64 48 64 c 1
 48 72 l 1
 16 72 16 72 16 68 c 0
16 112 m 1
 64 112 64 112 64 48 c 1
 48 48 l 1
 4 48 0 52 0 72 c 0
 0 84 4 88 48 88 c 1
 48 96 48 96 16 96 c 1
 16 112 l 1
EndSplineSet
Validated: 1
EndChar

StartChar: ordmasculine
Encoding: 186 186 104
Width: 80
Flags: W
HStem: 16 16<0 64> 48 16<16.9946 47.0054> 96 16<16.9946 47.0054>
VStem: 0 16<64.9946 95.0054> 48 16<64.7885 95.0054>
LayerCount: 2
Back
Fore
SplineSet
0 32 m 1
 64 32 l 1
 64 16 l 1
 0 16 l 1
 0 32 l 1
32 64 m 0
 48 64 48 64 48 80 c 0
 48 96 48 96 32 96 c 0
 16 96 16 96 16 80 c 0
 16 64 16 64 32 64 c 0
32 112 m 0
 57 112 64 105 64 80 c 0
 64 54 57 48 32 48 c 0
 7 48 0 55 0 80 c 0
 0 105 7 112 32 112 c 0
EndSplineSet
Validated: 1
EndChar

StartChar: dotlessi
Encoding: 305 305 110
Width: 32
Flags: W
HStem: 0 21G<0 16> 0 21G<0 16> 60 20G<0 16>
VStem: 0 16<0 80>
AnchorPoint: "Top" 8 80 basechar 0
LayerCount: 2
Fore
SplineSet
16 80 m 1xb0
 16 0 l 1
 0 0 l 1
 0 80 l 1
 16 80 l 1xb0
EndSplineSet
Validated: 1
EndChar

StartChar: uni0237
Encoding: 567 567 140
Width: 96
Flags: W
HStem: -16 16<19.1401 58.1759> 60 20G<64 80>
VStem: 0 16<3.14258 32> 64 16<31.6843 80>
AnchorPoint: "Top" 72 80 basechar 0
LayerCount: 2
Fore
SplineSet
40 -16 m 0
 8 -16 0 -8 0 32 c 1
 16 32 l 1
 16 0 16 0 40 0 c 0
 64 0 64 0 64 80 c 0
 80 80 l 0
 80 -12 76 -16 40 -16 c 0
EndSplineSet
Validated: 1
EndChar

StartChar: dieresis
Encoding: 168 168 141
AltUni2: 000308.ffffffff.0
Width: 64
Flags: W
HStem: 96 16<0 16 32 48>
VStem: 0 16<96 112> 32 16<96 112>
AnchorPoint: "Top" 24 80 mark 0
LayerCount: 2
Fore
SplineSet
32 112 m 1
 48 112 l 1
 48 96 l 1
 32 96 l 1
 32 112 l 1
0 112 m 1
 16 112 l 1
 16 96 l 1
 0 96 l 1
 0 112 l 1
EndSplineSet
Validated: 1
EndChar

StartChar: tilde
Encoding: 732 732 143
Width: 112
Flags: W
HStem: 80 16<39.0807 47.581> 96 16<16.419 24.9193>
VStem: 0 16<80 95.8882> 48 16<96.1118 112>
AnchorPoint: "Top" 32 64 mark 0
LayerCount: 2
Fore
SplineSet
20 96 m 3x70
 16 96 16 96 16 80 c 1
 0 80 l 1xb0
 0 104 4 112 20 112 c 0x70
 36 112 36 96 44 96 c 0xb0
 48 96 48 96 48 112 c 1
 64 112 l 1x70
 64 88 60 80 44 80 c 0xb0
 28 80 28 96 20 96 c 3x70
EndSplineSet
Validated: 1
EndChar

StartChar: gravecomb
Encoding: 768 768 234
AltUni2: 000340.ffffffff.0
Width: 48
Flags: W
HStem: 80 32
VStem: 0 32
AnchorPoint: "Top" 24 64 mark 0
LayerCount: 2
Fore
SplineSet
0 112 m 1
 16 112 l 1
 32 80 l 1
 16 80 l 1
 0 112 l 1
EndSplineSet
Validated: 1
EndChar

StartChar: IJ
Encoding: 306 306 246
Width: 96
Flags: W
HStem: 0 16<17.2705 57.1383> 92 20G<0 16 64 80>
VStem: 0 16<17.6587 32 48 112> 64 16<65.0216 112>
LayerCount: 2
Back
Fore
SplineSet
0 112 m 1
 16 112 l 1
 16 48 l 1
 0 48 l 1
 0 112 l 1
40 0 m 0
 8 0 0 8 0 32 c 1
 16 32 l 1
 16 16 16 16 40 16 c 0
 64 16 64 16 64 112 c 0
 80 112 l 0
 80 4 76 0 40 0 c 0
EndSplineSet
Validated: 1
EndChar

StartChar: ij
Encoding: 307 307 247
Width: 128
Flags: W
HStem: -16 16<0 35.3125> 60 20G<0 16 48 64> 96 16<0 16 48 64>
VStem: 0 16<21 80 96 112> 48 16<31.6843 80 96 112>
LayerCount: 2
Back
Fore
SplineSet
16 96 m 1
 0 96 l 1
 0 112 l 1
 16 112 l 1
 16 96 l 1
16 80 m 1
 16 21 l 1
 0 21 l 1
 0 80 l 1
 16 80 l 1
48 112 m 1
 64 112 l 1
 64 96 l 1
 48 96 l 1
 48 112 l 1
0 -16 m 0
 0 0 l 0
 48 0 48 0 48 80 c 0
 64 80 l 0
 64 -12 60 -16 0 -16 c 0
EndSplineSet
Validated: 1
EndChar

StartChar: OE
Encoding: 338 338 248
Width: 160
Flags: W
HStem: 0 16<21.2502 58.134 80 144> 64 16<80 112> 96 16<21.2502 58.134 80 144>
VStem: 0 16<21.6129 90.3871> 64 16<21.4836 63.041>
LayerCount: 2
Back
Fore
SplineSet
64 112 m 1
 144 112 l 1
 144 96 l 1
 80 96 l 1
 80 80 l 1
 112 80 l 1
 112 64 l 1
 80 64 l 1
 80 16 l 1
 144 16 l 1
 144 0 l 1
 64 0 l 1
 64 8 l 1
 58 0 50 0 40 0 c 0
 6 0 0 8 0 56 c 0
 0 104 6 112 40 112 c 0
 50 112 58 112 64 104 c 1
 64 112 l 1
64 56 m 0
 64 96 64 96 40 96 c 0
 16 96 16 96 16 56 c 0
 16 16 16 16 40 16 c 0
 64 16 64 16 64 56 c 0
EndSplineSet
Validated: 1
EndChar

StartChar: oe
Encoding: 339 339 249
Width: 160
Flags: W
HStem: 0 16<19.5591 60.7137 107.073 144> 32 16<80 128> 64 16<19.5591 60.6681 82.2596 125.602>
VStem: 0 16<19.5591 60.4409> 64 16<20.6374 32 48 60.6509> 128 16<48 60.8574>
CounterMasks: 1 fc
LayerCount: 2
Back
Fore
SplineSet
80 48 m 1
 128 48 l 1
 128 64 128 64 104 64 c 0
 80 64 80 64 80 48 c 1
72 8 m 1
 64 0 57 0 40 0 c 0
 7 0 0 7 0 40 c 0
 0 73 7 80 40 80 c 0
 58 80 64 80 72 72 c 1
 80 80 88 80 104 80 c 0
 140 80 144 72 144 32 c 1
 80 32 l 1
 80 16 80 16 144 16 c 1
 144 0 l 1
 88 0 80 0 72 8 c 1
64 40 m 0
 64 64 64 64 40 64 c 0
 16 64 16 64 16 40 c 0
 16 16 16 16 40 16 c 0
 64 16 64 16 64 40 c 0
EndSplineSet
Validated: 1
EndChar

StartChar: longs
Encoding: 383 383 250
Width: 48
Flags: W
HStem: 0 21G<0 16> 0 21G<0 16> 96 16<25.7461 48>
VStem: 0 16<0 45.564>
LayerCount: 2
Back
Fore
SplineSet
0 0 m 1xb0
 0 104 0 112 48 112 c 1
 48 96 l 1
 16 96 16 96 16 0 c 1
 0 0 l 1xb0
EndSplineSet
Validated: 1
EndChar

StartChar: uni01C7
Encoding: 455 455 256
Width: 192
Flags: W
HStem: 0 16<16 64 97.5737 122.441>
VStem: 0 16<16 112> 80 16<17.6587 32> 128 16<76.9283 112>
LayerCount: 2
Fore
SplineSet
0 112 m 1
 16 112 l 1
 16 16 l 1
 64 16 l 1
 64 0 l 1
 0 0 l 1
 0 112 l 1
112 0 m 4
 88 0 80 8 80 32 c 5
 96 32 l 5
 96 16 96 16 112 16 c 4
 128 16 128 16 128 112 c 4
 144 112 l 4
 144 4 140 0 112 0 c 4
EndSplineSet
Validated: 1
EndChar

StartChar: uni01C8
Encoding: 456 456 257
Width: 192
Flags: W
HStem: -16 16<99.068 122.623> 0 16<16 64> 96 16<128 144>
VStem: 0 16<16 112> 80 16<3.14258 32> 128 16<42.9999 80 96 112>
LayerCount: 2
Fore
SplineSet
0 112 m 1x7c
 16 112 l 1
 16 16 l 1
 64 16 l 1
 64 0 l 1
 0 0 l 1
 0 112 l 1x7c
128 112 m 5
 144 112 l 5
 144 96 l 5
 128 96 l 5
 128 112 l 5
112 -16 m 4xbc
 88 -16 80 -8 80 32 c 5
 96 32 l 5
 96 0 96 0 112 0 c 4
 128 0 128 0 128 80 c 4
 144 80 l 4
 144 -12 140 -16 112 -16 c 4xbc
EndSplineSet
Validated: 1
EndChar

StartChar: uni01C9
Encoding: 457 457 258
Width: 144
Flags: W
HStem: -16 16<67.068 90.6225> 0 16<21.5618 32> 96 16<96 112>
VStem: 0 16<77.3281 112> 48 16<3.14258 32> 96 16<42.9999 80 96 112>
CounterMasks: 1 1c
LayerCount: 2
Back
Refer: 35 1112 S 1 0 0 1 48 0 2
Refer: 37 737 N 1 0 0 1 0 0 2
Fore
SplineSet
0 112 m 1x7c
 16 112 l 1
 16 16 16 16 32 16 c 1
 32 0 l 1
 0 0 0 8 0 112 c 1x7c
96 112 m 1
 112 112 l 1
 112 96 l 1
 96 96 l 1
 96 112 l 1
80 -16 m 0xbc
 56 -16 48 -8 48 32 c 1
 64 32 l 1
 64 0 64 0 80 0 c 0
 96 0 96 0 96 80 c 0
 112 80 l 0
 112 -12 108 -16 80 -16 c 0xbc
EndSplineSet
Validated: 1
EndChar

StartChar: uni01CA
Encoding: 458 458 259
Width: 192
Flags: W
HStem: 0 16<97.5737 122.441>
VStem: 0 16<0 86> 48 16<0 38 64 112> 80 16<17.6587 32> 128 16<76.9283 112>
LayerCount: 2
Fore
SplineSet
112 0 m 0
 88 0 80 8 80 32 c 1
 96 32 l 1
 96 16 96 16 112 16 c 0
 128 16 128 16 128 112 c 0
 144 112 l 0
 144 4 140 0 112 0 c 0
48 64 m 5
 48 112 l 5
 64 112 l 5
 64 0 l 5
 48 0 l 5
 48 38 l 5
 16 86 l 5
 16 0 l 5
 0 0 l 5
 0 112 l 5
 16 112 l 5
 48 64 l 5
EndSplineSet
Validated: 1
EndChar

StartChar: uni01CB
Encoding: 459 459 260
Width: 192
Flags: W
HStem: -16 16<99.068 122.623> 0 21G<0 16 48 64> 96 16<128 144>
VStem: 0 16<0 86> 48 16<0 38 64 112> 80 16<3.14258 32> 128 16<42.9999 80 96 112>
LayerCount: 2
Fore
SplineSet
128 112 m 5x3e
 144 112 l 5
 144 96 l 5
 128 96 l 5
 128 112 l 5x3e
112 -16 m 4xbe
 88 -16 80 -8 80 32 c 5
 96 32 l 5
 96 0 96 0 112 0 c 4
 128 0 128 0 128 80 c 4
 144 80 l 4
 144 -12 140 -16 112 -16 c 4xbe
48 64 m 1
 48 112 l 1
 64 112 l 1
 64 0 l 1
 48 0 l 1
 48 38 l 1
 16 86 l 1
 16 0 l 1
 0 0 l 1x7e
 0 112 l 1
 16 112 l 1
 48 64 l 1
EndSplineSet
Validated: 1
EndChar

StartChar: uni01CC
Encoding: 460 460 261
Width: 192
Flags: W
HStem: -16 16<99.068 122.623> 0 21G<0 16 48 64> 64 16<16 38.163> 96 16<128 144>
VStem: 0 16<0 64> 48 16<0 36.4225> 80 16<3.14258 32> 128 16<42.9999 80 96 112>
LayerCount: 2
Fore
SplineSet
128 112 m 1x3f
 144 112 l 1
 144 96 l 1
 128 96 l 1
 128 112 l 1x3f
112 -16 m 0xbf
 88 -16 80 -8 80 32 c 1
 96 32 l 1
 96 0 96 0 112 0 c 0
 128 0 128 0 128 80 c 0
 144 80 l 0
 144 -12 140 -16 112 -16 c 0xbf
16 64 m 1
 16 0 l 1
 0 0 l 1
 0 80 l 1
 16 80 l 2
 60 80 64 72 64 0 c 1
 48 0 l 1x7f
 48 64 48 64 16 64 c 1
EndSplineSet
Validated: 1
EndChar

StartChar: uni01F1
Encoding: 497 497 264
Width: 160
Flags: W
HStem: 0 16<16 40.375 98 144> 96 16<16 40.375 80 126>
VStem: 0 16<16 96> 48 16<23.054 88.946>
LayerCount: 2
Fore
SplineSet
16 96 m 1
 16 16 l 1
 48 16 48 16 48 56 c 0
 48 96 48 96 16 96 c 1
0 112 m 1
 16 112 l 1
 56 112 64 104 64 56 c 0
 64 8 56 0 16 0 c 1
 0 0 l 1
 0 112 l 1
80 0 m 1
 80 16 l 1
 126 96 l 1
 80 96 l 1
 80 112 l 1
 144 112 l 1
 144 96 l 1
 98 16 l 1
 144 16 l 5
 144 0 l 5
 80 0 l 1
EndSplineSet
Validated: 1
EndChar

StartChar: uni01F2
Encoding: 498 498 265
Width: 160
Flags: W
HStem: 0 16<16 40.375 107 144> 64 16<80 116> 96 16<16 40.375>
VStem: 0 16<16 96> 48 16<23.054 88.946>
LayerCount: 2
Fore
SplineSet
16 96 m 1
 16 16 l 1
 48 16 48 16 48 56 c 0
 48 96 48 96 16 96 c 1
0 112 m 1
 16 112 l 1
 56 112 64 104 64 56 c 0
 64 8 56 0 16 0 c 1
 0 0 l 1
 0 112 l 1
80 80 m 5
 144 80 l 5
 107 16 l 5
 144 16 l 5
 144 0 l 5
 80 0 l 5
 116 64 l 5
 80 64 l 5
 80 80 l 5
EndSplineSet
Validated: 1
EndChar

StartChar: uni01F3
Encoding: 499 499 266
Width: 160
Flags: W
HStem: 0 16<21.3098 48 107 144> 64 16<17.0913 37.1367 80 116>
VStem: 0 16<20.2607 62.9725> 48 16<16 51.8457 68 112>
LayerCount: 2
Fore
SplineSet
80 80 m 1
 144 80 l 1
 107 16 l 1
 144 16 l 1
 144 0 l 1
 80 0 l 1
 116 64 l 1
 80 64 l 1
 80 80 l 1
64 112 m 1
 64 0 l 1
 48 0 l 2
 8 0 0 8 0 40 c 0
 0 72 8 80 24 80 c 0
 40 80 40 76 48 68 c 1
 48 112 l 1
 64 112 l 1
48 48 m 1
 40 59 39 64 24 64 c 0
 16 64 16 64 16 40 c 0
 16 16 16 16 48 16 c 1
 48 48 l 1
EndSplineSet
Validated: 1
EndChar

StartChar: uni0304
Encoding: 772 772 274
Width: 96
Flags: W
HStem: 96 16<0 48>
AnchorPoint: "Top" 24 80 mark 0
LayerCount: 2
Fore
SplineSet
0 112 m 1
 48 112 l 1
 48 96 l 1
 0 96 l 1
 0 112 l 1
EndSplineSet
Validated: 1
EndChar

StartChar: plusminus
Encoding: 177 177 275
Width: 96
Flags: W
HStem: 0 16<0 80> 64 16<0 32 48 80> 92 20G<32 48>
VStem: 32 16<32 64 80 112>
LayerCount: 2
Back
Fore
SplineSet
0 0 m 1
 0 16 l 1
 80 16 l 1
 80 0 l 1
 0 0 l 1
32 112 m 1
 48 112 l 1
 48 80 l 1
 80 80 l 1
 80 64 l 1
 48 64 l 1
 48 32 l 1
 32 32 l 1
 32 64 l 1
 0 64 l 1
 0 80 l 1
 32 80 l 1
 32 112 l 1
EndSplineSet
Validated: 1
EndChar

StartChar: macron
Encoding: 175 175 276
Width: 96
Flags: W
HStem: 96 16<0 80>
LayerCount: 2
Back
Fore
SplineSet
0 112 m 1
 80 112 l 1
 80 96 l 1
 0 96 l 1
 0 112 l 1
EndSplineSet
Validated: 1
EndChar

StartChar: uni02CA
Encoding: 714 714 279
Width: 48
Flags: W
HStem: 80 32
VStem: 0 32
AnchorPoint: "Top" 8 64 mark 0
LayerCount: 2
Fore
SplineSet
32 112 m 1
 16 80 l 1
 0 80 l 1
 16 112 l 1
 32 112 l 1
EndSplineSet
Validated: 1
EndChar

StartChar: guillemotleft
Encoding: 171 171 300
Width: 112
Flags: W
LayerCount: 2
Back
Fore
SplineSet
64 56 m 1
 96 16 l 1
 76 16 l 1
 44 56 l 1
 76 96 l 1
 96 96 l 1
 64 56 l 1
20 56 m 1
 52 16 l 1
 32 16 l 1
 0 56 l 1
 32 96 l 1
 52 96 l 1
 20 56 l 1
EndSplineSet
Validated: 1
EndChar

StartChar: guillemotright
Encoding: 187 187 301
Width: 112
Flags: W
LayerCount: 2
Fore
SplineSet
32 56 m 1
 0 96 l 1
 20 96 l 1
 52 56 l 1
 20 16 l 1
 0 16 l 1
 32 56 l 1
76 56 m 1
 44 96 l 1
 64 96 l 1
 96 56 l 1
 64 16 l 1
 44 16 l 1
 76 56 l 1
EndSplineSet
Validated: 1
EndChar

StartChar: divide
Encoding: 247 247 302
Width: 96
Flags: W
HStem: 16 16<32 48> 48 16<0 80> 80 16<32 48>
VStem: 32 16<16 32 80 96>
CounterMasks: 1 e0
LayerCount: 2
Back
Fore
SplineSet
32 32 m 1
 48 32 l 1
 48 16 l 1
 32 16 l 1
 32 32 l 1
32 96 m 1
 48 96 l 1
 48 80 l 1
 32 80 l 1
 32 96 l 1
0 64 m 1
 80 64 l 1
 80 48 l 1
 0 48 l 1
 0 64 l 1
EndSplineSet
Validated: 1
EndChar

StartChar: multiply
Encoding: 215 215 303
Width: 96
Flags: W
LayerCount: 2
Back
Fore
SplineSet
0 84 m 1
 12 96 l 1
 40 68 l 1
 68 96 l 1
 80 84 l 1
 52 56 l 1
 80 28 l 1
 68 16 l 1
 40 44 l 1
 12 16 l 1
 0 28 l 1
 28 56 l 1
 0 84 l 1
EndSplineSet
Validated: 1
EndChar

StartChar: uni0413
Encoding: 1043 1043 304
AltUni2: 000413.ffffffff.0 000393.ffffffff.0
Width: 96
Flags: W
HStem: 0 21G<0 16> 96 16<16 80>
VStem: 0 16<0 96>
AnchorPoint: "Top" 40 112 basechar 0
LayerCount: 2
Fore
SplineSet
0 0 m 1
 0 112 l 1
 80 112 l 1
 80 96 l 1
 16 96 l 1
 16 0 l 1
 0 0 l 1
EndSplineSet
Validated: 1
EndChar

StartChar: uni0394
Encoding: 916 916 305
Width: 96
Flags: W
HStem: 0 16<21 59>
AnchorPoint: "Top" 40 112 basechar 0
LayerCount: 2
Back
Fore
SplineSet
21 16 m 1
 59 16 l 1
 40 84 l 1
 21 16 l 1
0 0 m 1
 32 112 l 1
 48 112 l 1
 80 0 l 1
 0 0 l 1
EndSplineSet
Validated: 1
EndChar

StartChar: uni03F4
Encoding: 1012 1012 306
AltUni2: 0003f4.ffffffff.0
Width: 96
Flags: W
HStem: 0 16<21.2502 58.7498> 48 16<32 48> 96 16<21.2502 58.7498>
VStem: 0 16<21.6129 90.3871> 32 16<48 64> 64 16<21.6129 90.3871>
CounterMasks: 1 fc
AnchorPoint: "Top" 40 112 basechar 0
LayerCount: 2
Back
Fore
SplineSet
32 64 m 1
 48 64 l 1
 48 48 l 1
 32 48 l 1
 32 64 l 1
40 16 m 0
 64 16 64 16 64 56 c 0
 64 96 64 96 40 96 c 0
 16 96 16 96 16 56 c 0
 16 16 16 16 40 16 c 0
40 112 m 0
 74 112 80 104 80 56 c 0
 80 8 74 0 40 0 c 0
 6 0 0 8 0 56 c 0
 0 104 6 112 40 112 c 0
EndSplineSet
Validated: 1
EndChar

StartChar: Lambda
Encoding: 923 923 307
Width: 96
Flags: W
HStem: 0 21G<0 21.7143 57.5238 80>
AnchorPoint: "Top" 40 112 basechar 0
LayerCount: 2
Back
Fore
SplineSet
0 0 m 1
 32 112 l 1
 48 112 l 1
 80 0 l 1
 63 0 l 1
 40 84 l 1
 16 0 l 1
 0 0 l 1
EndSplineSet
Validated: 1
EndChar

StartChar: Xi
Encoding: 926 926 308
Width: 96
Flags: W
HStem: 0 16<0 80> 48 16<16 64> 96 16<0 80>
CounterMasks: 1 e0
AnchorPoint: "Top" 40 112 basechar 0
LayerCount: 2
Back
Fore
SplineSet
0 16 m 1
 80 16 l 1
 80 0 l 1
 0 0 l 1
 0 16 l 1
16 64 m 1
 64 64 l 1
 64 48 l 1
 16 48 l 1
 16 64 l 1
0 112 m 1
 80 112 l 1
 80 96 l 1
 0 96 l 1
 0 112 l 1
EndSplineSet
Validated: 1
EndChar

StartChar: uni041F
Encoding: 1055 1055 309
AltUni2: 00041f.ffffffff.0
Width: 96
Flags: W
HStem: 0 21G<0 16 64 80> 96 16<16 64>
VStem: 0 16<0 96> 64 16<0 96>
AnchorPoint: "Top" 40 112 basechar 0
LayerCount: 2
Back
Fore
SplineSet
0 0 m 1
 0 112 l 1
 80 112 l 1
 80 0 l 1
 64 0 l 1
 64 96 l 1
 16 96 l 1
 16 0 l 1
 0 0 l 1
EndSplineSet
Validated: 1
EndChar

StartChar: registered
Encoding: 174 174 310
Width: 128
Flags: W
HStem: 0 16<37.0935 74.9065> 44 16<48 63.2574> 68 16<48 63.9899> 96 16<37.0935 74.9065>
VStem: 0 16<37.0935 74.9065> 32 16<28 44 60 68> 64 16<28 43.2169 60.2076 67.6742> 96 16<37.0935 74.9065>
LayerCount: 2
Back
Fore
SplineSet
48 44 m 1
 48 28 l 1
 32 28 l 1
 32 84 l 1
 48 84 l 2
 76 84 80 80 80 64 c 0
 80 56 74 52 64 52 c 1
 74 52 80 51 80 28 c 1
 64 28 l 1
 64 44 64 44 48 44 c 1
48 60 m 1
 64 60 64 60 64 64 c 0
 64 68 64 68 48 68 c 1
 48 60 l 1
16 56 m 0
 16 32 32 16 56 16 c 0
 80 16 96 32 96 56 c 0
 96 80 80 96 56 96 c 0
 32 96 16 80 16 56 c 0
0 56 m 0
 0 89 23 112 56 112 c 0
 89 112 112 89 112 56 c 0
 112 23 89 0 56 0 c 0
 23 0 0 23 0 56 c 0
EndSplineSet
Validated: 1
EndChar

StartChar: A.deco
Encoding: 1114112 -1 311
Width: 96
VWidth: 112
Flags: W
HStem: 0 21G<0 16 64 80> 0 21G<0 16 64 80> 42 14<32 48> 42 8<24 32 48 56> 73 7<24 32 48 56> 96 16<16.5754 32 48 63.5509>
VStem: 0 24<50 73> 0 16<0 42 80 95.3979> 32 16<50 56 80 96> 56 24<50 73> 64 16<0 42 80 95.8882>
LayerCount: 2
Fore
SplineSet
16 96 m 5x1dc0
 16 80 l 5x1dc0
 32 80 l 5
 32 73 l 5
 24 73 l 5
 24 50 l 5
 32 50 l 5x1e80
 32 56 l 5
 48 56 l 5x2e80
 48 50 l 5
 56 50 l 5
 56 73 l 5
 48 73 l 5
 48 80 l 5
 32 80 l 5
 32 96 l 5
 16 96 l 5x1dc0
0 0 m 1x9da0
 0 80 l 2
 0 98 10 112 40 112 c 0
 63 112 80 104 80 80 c 2
 80 0 l 1
 64 0 l 1
 64 42 l 1
 16 42 l 1
 16 0 l 1
 0 0 l 1x9da0
48 80 m 5
 64 80 l 5
 64 96 l 5
 48 96 l 5
 48 80 l 5
EndSplineSet
Validated: 5
EndChar

StartChar: B.deco
Encoding: 1114113 -1 312
Width: 96
VWidth: 16000
Flags: W
HStem: 0 21G<0 42> 0 21G<0 42> 96 16<16 62.9805>
VStem: 0 16<24 48 80 96> 38 4<16 40> 64 16<24 47.5382 81.5463 94.2291>
CounterMasks: 1 1c
LayerCount: 2
Fore
SplineSet
16 52 m 1x3c
 40 44 l 1
 64 52 l 1
 40 60 l 1
 16 52 l 1x3c
42 16 m 1
 64 24 l 1
 64 48 l 1
 42 40 l 1
 42 16 l 1
16 24 m 1
 38 16 l 1
 38 40 l 1
 16 48 l 1
 16 24 l 1
16 96 m 1
 16 80 l 1
 62 80 64 80 64 88 c 0
 64 96 62 96 16 96 c 1
0 112 m 1
 16 112 l 2
 69 112 80 108 80 88 c 0
 80 79 73 71 64 71 c 1
 73 71 80 65 80 40 c 0
 80 0 68 0 16 0 c 2
 0 0 l 1xbc
 0 112 l 1
EndSplineSet
Validated: 1
EndChar

StartChar: D.deco
Encoding: 1114114 -1 313
Width: 96
VWidth: 8
Flags: W
HStem: 28 4<32 36 44 48> 40 4<26 36 44 54> 52 4<32 36 44 48> 80 32<28 51.2145>
VStem: 0 16<52 68> 32 4<52 56> 44 4<52 56> 64 16<53.7792 66.5328>
LayerCount: 2
Fore
SplineSet
0 112 m 1
 16 112 l 1
 72 112 80 104 80 56 c 0
 80 8 72 0 16 0 c 1
 0 0 l 1
 0 112 l 1
28 80 m 1
 28 68 l 1
 16 68 l 1
 16 52 l 1
 24 52 l 1
 24 44 l 1
 36 44 l 1
 36 40 l 1
 26 40 l 1
 26 32 l 1
 36 32 l 1
 36 28 l 1
 32 28 l 1
 32 20 l 1
 36 20 l 1
 36 16 l 1
 44 16 l 1
 44 20 l 1
 48 20 l 1
 48 28 l 1
 44 28 l 1
 44 32 l 1
 54 32 l 1
 54 40 l 1
 44 40 l 1
 44 44 l 1
 56 44 l 1
 56 52 l 1
 64 52 l 1
 64 68 l 1
 52 68 l 1
 52 80 l 1
 28 80 l 1
48 56 m 1
 48 52 l 1
 44 52 l 1
 44 56 l 1
 48 56 l 1
32 56 m 1
 36 56 l 1
 36 52 l 1
 32 52 l 1
 32 56 l 1
EndSplineSet
Validated: 1
EndChar

StartChar: O.deco
Encoding: 1114115 -1 314
Width: 96
Flags: W
HStem: 0 32<26.9748 53.0252> 80 32<26.9748 53.0252>
VStem: 0 16<43.1108 68.8892> 36 8<40.0051 71.9949> 64 16<43.1108 68.8892>
CounterMasks: 1 38
LayerCount: 2
Fore
SplineSet
36 56 m 4
 36 65 38 72 40 72 c 4
 42 72 44 65 44 56 c 4
 44 47 42 40 40 40 c 4
 38 40 36 47 36 56 c 4
16 56 m 4
 16 43 27 32 40 32 c 4
 53 32 64 43 64 56 c 4
 64 69 53 80 40 80 c 4
 27 80 16 69 16 56 c 4
40 112 m 0
 74 112 80 104 80 56 c 0
 80 8 74 0 40 0 c 0
 6 0 0 8 0 56 c 0
 0 104 6 112 40 112 c 0
EndSplineSet
Validated: 1
EndChar

StartChar: P.deco
Encoding: 1114116 -1 315
Width: 96
VWidth: 16000
Flags: W
HStem: 0 21G<0 16> 0 21G<0 16> 64 8<16 56.5898> 76 4<28.2109 35.7891 44.2109 51.7891> 96 4<28.2109 35.7891 44.2109 51.7891> 104 8<16 55.7011>
VStem: 0 16<0 64 72 104> 20 8<80 96> 36 8<80 96> 52 8<80 96> 64 16<72.6122 102.429>
LayerCount: 2
Fore
SplineSet
44 88 m 4x3fe0
 44 80 44 80 48 80 c 4
 52 80 52 80 52 88 c 4
 52 96 52 96 48 96 c 4
 44 96 44 96 44 88 c 4x3fe0
28 88 m 4
 28 80 28 80 32 80 c 4
 36 80 36 80 36 88 c 4
 36 96 36 96 32 96 c 4
 28 96 28 96 28 88 c 4
20 100 m 5
 60 100 l 5
 60 76 l 5
 20 76 l 5
 20 100 l 5
16 104 m 5
 16 72 l 5
 64 72 l 5
 64 104 l 5
 16 104 l 5
16 64 m 1
 16 0 l 1
 0 0 l 1xbfe0
 0 112 l 1
 16 112 l 2
 69 112 80 108 80 88 c 0
 80 67 71 64 16 64 c 1
EndSplineSet
Validated: 1
EndChar

StartChar: Q.deco
Encoding: 1114117 -1 316
Width: 96
Flags: W
HStem: 0 16<19.4062 36 44 54.9062> 96 16<20.4248 59.5752>
VStem: 0 16<19.0309 92.6353> 32 16<32 88> 36 8<16 23> 64 16<26.352 92.6353>
LayerCount: 2
Fore
SplineSet
40 112 m 0xe4
 74 112 80 104 80 56 c 0
 80 45 78 29 72 16 c 1
 80 0 l 1
 64 0 l 1
 60 8 l 1
 53 2 47 0 40 0 c 0
 6 0 0 8 0 56 c 0
 0 104 6 112 40 112 c 0xe4
20 42 m 1
 32 32 l 1
 32 88 l 1xf4
 40 96 l 1
 16 96 16 96 16 56 c 0
 16 16 16 16 36 16 c 1
 36 23 l 1xec
 20 34 l 1
 20 42 l 1
44 16 m 1xec
 64 16 64 16 64 56 c 0
 64 96 64 96 40 96 c 1
 48 88 l 1
 48 32 l 1xf4
 60 42 l 1
 60 34 l 1
 44 23 l 1
 44 16 l 1xec
EndSplineSet
Validated: 5
EndChar

StartChar: R.deco
Encoding: 1114118 -1 317
Width: 96
VWidth: 16000
Flags: W
HStem: 0 21G<0 16 64 80> 64 16<16 50.4341> 72 8<56 63.6348> 88 8<16 32 48 64> 104 8<16 31.9239>
VStem: 0 16<0 64 80 88 96 104> 32 16<96 104> 64 16<0 36.1782 80.0753 88 96 100.188>
CounterMasks: 1 07
LayerCount: 2
Fore
SplineSet
16 64 m 1xdf
 16 0 l 1
 0 0 l 1
 0 112 l 1
 16 112 l 2
 69 112 80 108 80 88 c 0
 80 83 79 72 56 72 c 1xbf
 74 72 80 55 80 0 c 1
 64 0 l 1
 64 64 64 64 16 64 c 1xdf
16 104 m 5
 16 96 l 5
 32 96 l 5
 32 104 l 5
 16 104 l 5
48 104 m 5
 48 96 l 5
 64 96 l 5
 64 104 l 5
 48 104 l 5
16 80 m 5xdf
 64 80 l 5xbf
 64 88 l 5
 48 88 l 5
 48 96 l 5
 32 96 l 5
 32 88 l 5
 16 88 l 5
 16 80 l 5xdf
EndSplineSet
Validated: 5
EndChar

StartChar: summation
Encoding: 8721 8721 318
AltUni2: 0003f9.ffffffff.0 002211.ffffffff.0
Width: 96
Flags: W
HStem: 0 16<20 80> 96 16<20 80>
AnchorPoint: "Top" 40 112 basechar 0
LayerCount: 2
Back
Fore
SplineSet
48 56 m 1
 20 16 l 1
 80 16 l 1
 80 0 l 1
 0 0 l 1
 0 16 l 1
 28 56 l 1
 0 96 l 1
 0 112 l 1
 80 112 l 1
 80 96 l 1
 20 96 l 1
 48 56 l 1
EndSplineSet
Validated: 1
EndChar

StartChar: Phi
Encoding: 934 934 319
Width: 96
Flags: W
HStem: 0 21G<32 48> 16 16<18.5145 32 48 61.4855> 80 16<18.9015 32 48 61.0985>
VStem: 0 16<34.2861 77.4959> 32 16<0 16 32 80 96 112> 64 16<34.2861 77.4959>
CounterMasks: 1 1c
AnchorPoint: "Top" 40 112 basechar 0
LayerCount: 2
Back
Fore
SplineSet
32 112 m 1x7c
 48 112 l 1
 48 96 l 1
 73 96 80 87 80 56 c 0
 80 24 74 16 48 16 c 1x7c
 48 0 l 1
 32 0 l 1xbc
 32 16 l 1
 6 16 0 24 0 56 c 0
 0 87 7 96 32 96 c 1
 32 112 l 1x7c
32 80 m 1
 16 80 16 80 16 56 c 0
 16 32 16 32 32 32 c 1
 32 80 l 1
48 32 m 1
 64 32 64 32 64 56 c 0
 64 80 64 80 48 80 c 1
 48 32 l 1
EndSplineSet
Validated: 1
EndChar

StartChar: uni0470
Encoding: 1136 1136 320
AltUni2: 000470.ffffffff.0
Width: 96
Flags: W
HStem: 0 21G<32 48> 48 16<20.2951 32 48 59.7049>
VStem: 0 16<75.2507 112> 32 16<0 48 64 112> 64 16<75.2507 112>
CounterMasks: 1 38
AnchorPoint: "Top" 40 112 basechar 0
LayerCount: 2
Back
Fore
SplineSet
80 112 m 0
 80 56 74 48 48 48 c 1
 48 0 l 1
 32 0 l 1
 32 48 l 1
 6 48 0 56 0 112 c 0
 16 112 l 0
 16 64 16 64 32 64 c 1
 32 112 l 1
 48 112 l 1
 48 64 l 1
 64 64 64 64 64 112 c 0
 80 112 l 0
EndSplineSet
Validated: 1
EndChar

StartChar: uni03A9
Encoding: 937 937 321
Width: 96
Flags: W
HStem: 0 16<0 14 66 80> 96 16<20.3481 59.6519>
VStem: 0 16<35.4085 91.1517> 48 32<0 16> 64 16<35.4085 91.1517>
AnchorPoint: "Top" 40 112 basechar 0
LayerCount: 2
Back
Fore
SplineSet
0 0 m 1xe8
 0 16 l 1
 14 16 l 1
 2 22 0 28 0 64 c 0
 0 104 6 112 40 112 c 0
 74 112 80 104 80 64 c 0xe8
 80 28 78 22 66 16 c 1
 80 16 l 1
 80 0 l 1
 48 0 l 1
 48 20 l 1xf0
 60 28 64 32 64 64 c 0
 64 96 64 96 40 96 c 0
 16 96 16 96 16 64 c 0
 16 32 20 28 32 20 c 1
 32 0 l 1
 0 0 l 1xe8
EndSplineSet
Validated: 1
EndChar

StartChar: alpha
Encoding: 945 945 322
Width: 96
Flags: W
HStem: 0 16<18.3283 45.7353 68.873 80> 64 16<18.3283 45.7353 68.873 80>
VStem: 0 16<18.2861 61.7139> 48 16<21.0237 58.9763>
AnchorPoint: "Top" 32 80 basechar 0
LayerCount: 2
Back
Fore
SplineSet
0 40 m 0
 0 72 8 80 32 80 c 0
 48 80 56 73 56 64 c 1
 56 64 56 80 80 80 c 1
 80 64 l 1
 64 64 64 56 64 40 c 0
 64 24 64 16 80 16 c 1
 80 0 l 1
 56 0 56 16 56 16 c 1
 56 7 48 0 32 0 c 0
 8 0 0 8 0 40 c 0
48 40 m 0
 48 64 48 64 32 64 c 0
 16 64 16 64 16 40 c 0
 16 16 16 16 32 16 c 0
 48 16 48 16 48 40 c 0
EndSplineSet
Validated: 1
EndChar

StartChar: uni03D0
Encoding: 976 976 323
AltUni2: 001d66.ffffffff.0 001d5d.ffffffff.0 0003d0.ffffffff.0
Width: 96
VWidth: 16000
Flags: W
HStem: 0 16<16 52.4689> 64 16<32 46.8359> 96 16<21.5399 47.3663>
VStem: 0 16<-16 0 16 51.6653> 48 16<80.7442 95.1221> 64 16<22.2881 59.5658>
AnchorPoint: "Top" 32 112 basechar 0
LayerCount: 2
Back
Fore
SplineSet
32 112 m 0xf4
 56 112 64 104 64 88 c 0xf8
 64 80 64 72 56 72 c 1
 80 72 80 64 80 40 c 0
 80 0 68 0 16 0 c 1
 16 -16 l 1
 0 -16 l 1
 0 16 l 0
 0 104 4 112 32 112 c 0xf4
32 80 m 1
 48 80 48 80 48 88 c 0xf8
 48 96 48 96 33 96 c 0
 16 96 16 96 16 16 c 1
 64 16 64 16 64 40 c 0xf4
 64 64 64 64 32 64 c 1
 32 80 l 1
EndSplineSet
Validated: 1
EndChar

StartChar: gamma
Encoding: 947 947 324
AltUni2: 001d67.ffffffff.0 001d5e.ffffffff.0
Width: 96
Flags: W
HStem: -16 16<32.9151 47.0849>
VStem: 0 16<65.7344 80> 16 16<0.64682 25.8534> 48 16<0.64682 25.8534> 64 16<65.3125 80>
AnchorPoint: "Top" 40 80 basechar 0
LayerCount: 2
Back
Fore
SplineSet
52 40 m 1xc8
 64 32 64 26 64 16 c 0
 64 -8 56 -16 40 -16 c 0
 24 -16 16 -8 16 16 c 0xb0
 16 26 16 32 28 40 c 1
 8 52 0 57 0 80 c 1
 16 80 l 1
 16 64 20 60 40 48 c 1
 60 60 64 64 64 80 c 1
 80 80 l 1
 80 56 73 52 52 40 c 1xc8
32 16 m 0
 32 0 32 0 40 0 c 0
 48 0 48 0 48 16 c 0
 48 20 48 24 40 32 c 1
 32 24 32 20 32 16 c 0
EndSplineSet
Validated: 1
EndChar

StartChar: delta
Encoding: 948 948 325
AltUni2: 001d5f.ffffffff.0
Width: 96
Flags: W
HStem: 0 16<18.2861 61.7139> 56 12<21.0023 32> 96 16<34.1131 64>
VStem: 0 16<18.3283 51.4372> 16 16<82.6156 94.4258> 64 16<18.3283 47.7927>
AnchorPoint: "Top" 40 112 basechar 0
LayerCount: 2
Back
Fore
SplineSet
32 68 m 1xec
 20 76 16 82 16 88 c 0
 16 104 24 112 64 112 c 1
 64 96 l 1
 32 96 32 96 32 88 c 0xec
 32 80 49 74 64 64 c 0
 76 56 80 52 80 32 c 0
 80 8 72 0 40 0 c 0
 8 0 0 8 0 32 c 0xf4
 0 60 8 68 32 68 c 1xec
16 32 m 0xf4
 16 16 16 16 40 16 c 0
 64 16 64 16 64 32 c 0
 64 48 64 48 48 56 c 1
 16 56 16 56 16 32 c 0xf4
EndSplineSet
Validated: 1
EndChar

StartChar: uni03F5
Encoding: 1013 1013 326
AltUni2: 0003f5.ffffffff.0
Width: 80
Flags: W
HStem: 0 16<27.2507 64> 32 16<16.8373 48> 64 16<27.2507 64>
VStem: 0 16<17.9746 30.4785 49.5215 62.0254>
CounterMasks: 1 e0
AnchorPoint: "Top" 32 80 basechar 0
LayerCount: 2
Back
Fore
SplineSet
8 40 m 1
 2 45 0 50 0 56 c 0
 0 76 8 80 64 80 c 0
 64 64 l 0
 16 64 16 64 16 56 c 0
 16 48 16 48 48 48 c 1
 48 32 l 1
 16 32 16 32 16 24 c 0
 16 16 16 16 64 16 c 0
 64 0 l 0
 8 0 0 4 0 24 c 0
 0 30 2 35 8 40 c 1
EndSplineSet
Validated: 1
EndChar

StartChar: section
Encoding: 167 167 327
Width: 96
Flags: W
HStem: 0 16<0 46.8083> 32 16<16.9861 63.8418> 64 16<16.1582 63.457> 96 16<33.1917 80>
VStem: 0 16<48.9482 63.2442 80.7558 94.1647> 64 16<17.8353 31.2442 48.7558 63.1143>
LayerCount: 2
Fore
SplineSet
0 0 m 1
 0 16 l 1
 64 16 64 16 64 24 c 0
 64 32 64 32 40 32 c 0
 9 32 0 36 0 56 c 1
 0 64 0 70 8 72 c 1
 0 74 0 80 0 88 c 0
 0 108 8 112 80 112 c 1
 80 96 l 1
 16 96 16 96 16 88 c 0
 16 80 16 80 40 80 c 0
 72 80 80 74 80 56 c 0
 80 48 80 42 72 40 c 1
 80 38 80 32 80 24 c 0
 80 4 72 0 0 0 c 1
40 48 m 0
 64 48 64 48 64 56 c 0
 64 64 64 64 40 64 c 0
 16 64 16 64 16 56 c 0
 16 48 16 48 40 48 c 0
EndSplineSet
Validated: 1
EndChar

StartChar: zeta
Encoding: 950 950 328
Width: 96
Flags: W
HStem: -16 16<48 63.125> 16 16<32.4185 62.5729> 96 16<0 60>
VStem: 16 16<32.3342 49.8201> 64 16<0.985428 14.9009>
AnchorPoint: "Top" 40 112 basechar 0
LayerCount: 2
Back
Fore
SplineSet
40 32 m 0
 72 32 80 26 80 8 c 0
 80 -12 72 -16 48 -16 c 1
 48 0 l 1
 64 0 64 0 64 8 c 0
 64 16 64 16 40 16 c 0
 22 16 16 24 16 40 c 0
 16 60 36 72 60 96 c 1
 0 96 l 1
 0 112 l 1
 80 112 l 1
 80 92 72 88 56 72 c 0
 40 56 32 52 32 40 c 0
 32 32 32 32 40 32 c 0
EndSplineSet
Validated: 1
EndChar

StartChar: uni043A
Encoding: 1082 1082 329
AltUni2: 00043a.ffffffff.0 0003f0.ffffffff.0
Width: 80
Flags: W
HStem: 0 21G<0 16 25.3333 64>
VStem: 0 16<0 30 50 80>
AnchorPoint: "Top" 40 80 basechar 0
LayerCount: 2
Back
Fore
SplineSet
0 80 m 1
 16 80 l 1
 16 50 l 1
 44 80 l 1
 64 80 l 1
 25 40 l 1
 64 0 l 1
 44 0 l 1
 16 30 l 1
 16 0 l 1
 0 0 l 1
 0 80 l 1
EndSplineSet
Validated: 1
EndChar

StartChar: theta1
Encoding: 977 977 330
AltUni2: 001dbf.ffffffff.0 0003d1.ffffffff.0
Width: 96
Flags: W
HStem: 0 16<20.3481 59.6519> 48 16<16 64> 96 16<20.3481 59.6519>
VStem: 0 16<20.5394 48 64 91.4606> 64 16<20.5394 48 64 91.4606>
CounterMasks: 1 e0
AnchorPoint: "Top" 40 112 basechar 0
LayerCount: 2
Back
Fore
SplineSet
40 112 m 0
 74 112 80 104 80 56 c 0
 80 8 74 0 40 0 c 0
 6 0 0 8 0 56 c 0
 0 104 6 112 40 112 c 0
64 48 m 1
 16 48 l 1
 16 16 16 16 40 16 c 0
 64 16 64 16 64 48 c 1
64 64 m 1
 64 96 64 96 40 96 c 0
 16 96 16 96 16 64 c 1
 64 64 l 1
EndSplineSet
Validated: 1
EndChar

StartChar: nu
Encoding: 957 957 331
Width: 96
Flags: W
HStem: 0 21G<24 56>
AnchorPoint: "Top" 40 80 basechar 0
LayerCount: 2
Fore
SplineSet
0 80 m 1
 16 80 l 1
 40 20 l 1
 64 80 l 1
 80 80 l 1
 48 0 l 1
 32 0 l 1
 0 80 l 1
EndSplineSet
Validated: 1
EndChar

StartChar: iota
Encoding: 953 953 332
Width: 48
Flags: W
HStem: 0 16<21.4375 32>
VStem: 0 16<43.5775 80>
AnchorPoint: "Top" 8 80 basechar 0
LayerCount: 2
Back
Fore
SplineSet
0 80 m 1
 16 80 l 1
 16 16 16 16 32 16 c 1
 32 0 l 1
 0 0 0 8 0 80 c 1
EndSplineSet
Validated: 1
EndChar

StartChar: sigma
Encoding: 963 963 333
Width: 112
Flags: W
HStem: 0 16<19.5591 57.7119> 64 16<83.1229 96>
VStem: 0 16<19.5591 57.7119> 64 16<27.926 64>
AnchorPoint: "Top" 40 80 basechar 0
LayerCount: 2
Back
Fore
SplineSet
16 40 m 0
 16 16 16 16 40 16 c 0
 64 16 64 16 64 64 c 1
 16 64 16 64 16 40 c 0
96 80 m 1
 96 64 l 1
 80 64 l 1
 80 6 80 0 40 0 c 0
 7 0 0 7 0 40 c 0
 0 80 0 80 96 80 c 1
EndSplineSet
Validated: 1
EndChar

StartChar: tau
Encoding: 964 964 334
Width: 96
Flags: W
HStem: 0 16<52.1348 64> 64 16<0 32 48 80>
VStem: 32 16<27.0665 64>
AnchorPoint: "Top" 40 80 basechar 0
LayerCount: 2
Back
Fore
SplineSet
48 64 m 1
 48 16 48 16 64 16 c 1
 64 0 l 1
 40 0 32 4 32 64 c 1
 0 64 l 1
 0 80 l 1
 80 80 l 1
 80 64 l 1
 48 64 l 1
EndSplineSet
Validated: 1
EndChar

StartChar: lambda
Encoding: 955 955 335
Width: 96
Flags: W
HStem: 0 21G<0 25.5862 54.4138 80> 96 16<0 22.7823>
AnchorPoint: "Top" 40 112 basechar 0
LayerCount: 2
Back
Fore
SplineSet
0 0 m 1
 32 80 l 1
 24 96 24 96 0 96 c 1
 0 112 l 1
 32 112 40 112 48 80 c 1
 80 0 l 1
 62 0 l 1
 40 58 l 1
 18 0 l 1
 0 0 l 1
EndSplineSet
Validated: 1
EndChar

StartChar: uni0471
Encoding: 1137 1137 336
AltUni2: 000471.ffffffff.0
Width: 96
Flags: W
HStem: 16 16<20.2951 32 48 59.7049>
VStem: 0 16<43.0665 80> 32 16<-16 16 32 80> 64 16<43.0665 80>
CounterMasks: 1 70
AnchorPoint: "Top" 40 80 basechar 0
LayerCount: 2
Back
Fore
SplineSet
80 80 m 0
 80 20 74 16 48 16 c 1
 48 -16 l 1
 32 -16 l 1
 32 16 l 1
 6 16 0 20 0 80 c 0
 16 80 l 0
 16 32 16 32 32 32 c 1
 32 80 l 1
 48 80 l 1
 48 32 l 1
 64 32 64 32 64 80 c 0
 80 80 l 0
EndSplineSet
Validated: 1
EndChar

StartChar: omega
Encoding: 969 969 337
Width: 128
Flags: W
HStem: 0 16<18.3283 46.5671 65.4329 93.6717> 64 16<18.4631 32 80 93.5369>
VStem: 0 16<18.2861 61.7139> 48 16<17.4886 32> 96 16<18.2861 61.7139>
CounterMasks: 1 38
AnchorPoint: "Top" 56 80 basechar 0
LayerCount: 2
Back
Fore
SplineSet
32 64 m 1
 16 64 16 64 16 40 c 0
 16 16 16 16 32 16 c 0
 48 16 48 16 48 32 c 1
 64 32 l 1
 64 16 64 16 80 16 c 0
 96 16 96 16 96 40 c 0
 96 64 96 64 80 64 c 1
 80 80 l 1
 104 80 112 72 112 40 c 0
 112 8 104 0 80 0 c 0
 69 0 61 2 56 6 c 1
 51 2 43 0 32 0 c 0
 8 0 0 8 0 40 c 0
 0 72 8 80 32 80 c 1
 32 64 l 1
EndSplineSet
Validated: 1
EndChar

StartChar: chi
Encoding: 967 967 338
AltUni2: 001d6a.ffffffff.0 001d61.ffffffff.0
Width: 96
Flags: W
AnchorPoint: "Top" 40 80 basechar 0
LayerCount: 2
Back
Fore
SplineSet
0 80 m 1
 20 80 l 1
 40 44 l 1
 60 80 l 1
 80 80 l 1
 50 32 l 1
 80 -16 l 1
 60 -16 l 1
 40 20 l 1
 20 -16 l 1
 0 -16 l 1
 30 32 l 1
 0 80 l 1
EndSplineSet
Validated: 1
EndChar

StartChar: eta
Encoding: 951 951 339
Width: 96
Flags: W
HStem: 0 21G<0 16> 64 16<16 47.8802>
VStem: 0 16<0 64> 64 16<-16 19.6653>
AnchorPoint: "Top" 40 80 basechar 0
LayerCount: 2
Back
Fore
SplineSet
16 64 m 1
 16 0 l 1
 0 0 l 1
 0 80 l 1
 16 80 l 2
 76 80 80 72 80 -16 c 1
 64 -16 l 1
 64 64 64 64 16 64 c 1
EndSplineSet
Validated: 1
EndChar

StartChar: uni03BC
Encoding: 956 956 340
AltUni2: 0000b5.ffffffff.0
Width: 96
Flags: W
HStem: 0 16<16 49.6285>
VStem: 0 16<-16 0 16 80> 64 16<43.5775 80>
AnchorPoint: "Top" 40 80 basechar 0
LayerCount: 2
Back
Fore
SplineSet
0 80 m 1
 16 80 l 1
 16 16 l 1
 64 16 64 16 64 80 c 1
 80 80 l 1
 80 8 76 0 16 0 c 1
 16 -16 l 1
 0 -16 l 1
 0 80 l 1
EndSplineSet
Validated: 1
EndChar

StartChar: omega1
Encoding: 982 982 341
AltUni2: 0003d6.ffffffff.0
Width: 96
Flags: W
HStem: 0 21G<16 32 48 64> 64 16<0 16 32 48 64 80>
VStem: 16 16<0 64> 48 16<0 64>
AnchorPoint: "Top" 40 80 basechar 0
LayerCount: 2
Fore
SplineSet
0 80 m 1
 80 80 l 1
 80 64 l 1
 64 64 l 1
 64 0 l 1
 48 0 l 1
 48 64 l 1
 32 64 l 1
 32 0 l 1
 16 0 l 1
 16 64 l 1
 0 64 l 1
 0 80 l 1
EndSplineSet
Validated: 1
EndChar

StartChar: xi
Encoding: 958 958 342
Width: 96
Flags: W
HStem: -16 16<48 63.125> 16 16<17.4271 62.5729> 48 16<26.8616 64> 80 16<26.8616 64>
VStem: 0 16<33.0913 46.0873 65.9127 78.0766 100.048 112> 64 16<0.985428 14.9009>
AnchorPoint: "Top" 40 112 basechar 0
LayerCount: 2
Back
Fore
SplineSet
40 16 m 0
 8 16 0 24 0 40 c 0
 0 46 2 51 8 56 c 1
 2 61 0 66 0 72 c 0
 0 78 2 84 8 88 c 1
 0 93 0 100 0 112 c 1
 16 112 l 1
 16 96 16 96 64 96 c 1
 64 80 l 1
 16 80 16 80 16 72 c 0
 16 64 16 64 64 64 c 1
 64 48 l 1
 16 48 16 48 16 40 c 0
 16 32 16 32 40 32 c 0
 72 32 80 26 80 8 c 0
 80 -12 72 -16 48 -16 c 1
 48 0 l 1
 64 0 64 0 64 8 c 0
 64 16 64 16 40 16 c 0
EndSplineSet
Validated: 1
EndChar

StartChar: uni03F1
Encoding: 1009 1009 343
AltUni2: 001d68.ffffffff.0 0003f1.ffffffff.0
Width: 96
Flags: W
HStem: 16 16<16 52.7493> 64 16<20.4736 61.7139>
VStem: 0 16<-16 16 32 52.7493> 64 16<36.0205 61.6717>
AnchorPoint: "Top" 40 80 basechar 0
LayerCount: 2
Back
Fore
SplineSet
16 32 m 1
 64 32 64 32 64 48 c 0
 64 64 64 64 40 64 c 0
 16 64 16 64 16 32 c 1
40 80 m 0
 72 80 80 72 80 48 c 0
 80 24 72 16 16 16 c 1
 16 -16 l 1
 0 -16 l 1
 0 16 l 2
 0 72 4 80 40 80 c 0
EndSplineSet
Validated: 1
EndChar

StartChar: uni03F2
Encoding: 1010 1010 344
AltUni2: 0003f2.ffffffff.0
Width: 96
Flags: W
HStem: -16 16<48 63.125> 16 16<18.7752 62.5729> 64 16<18.2861 61.7139>
VStem: 0 16<34.378 61.6717> 64 16<0.985428 14.9009 48 61.5369>
AnchorPoint: "Top" 40 80 basechar 0
LayerCount: 2
Back
Fore
SplineSet
48 -16 m 1
 48 0 l 1
 64 0 64 0 64 8 c 0
 64 16 64 16 40 16 c 0
 9 16 0 28 0 48 c 0
 0 72 8 80 40 80 c 0
 72 80 80 72 80 48 c 1
 64 48 l 1
 64 64 64 64 40 64 c 0
 16 64 16 64 16 48 c 0
 16 32 16 32 40 32 c 0
 72 32 80 26 80 8 c 0
 80 -12 72 -16 48 -16 c 1
EndSplineSet
Validated: 1
EndChar

StartChar: upsilon
Encoding: 965 965 345
Width: 96
Flags: W
HStem: 0 16<22.8617 60.6518> 64 16<48 61.0985>
VStem: 0 16<43.5775 80> 64 16<19.3482 61.4583>
AnchorPoint: "Top" 40 80 basechar 0
LayerCount: 2
Back
Fore
SplineSet
40 0 m 0
 4 0 0 8 0 80 c 1
 16 80 l 1
 16 16 16 16 40 16 c 0
 64 16 64 16 64 40 c 0
 64 64 64 64 48 64 c 1
 48 80 l 1
 73 80 80 73 80 40 c 0
 80 6 74 0 40 0 c 0
EndSplineSet
Validated: 1
EndChar

StartChar: phi1
Encoding: 981 981 346
AltUni2: 001d69.ffffffff.0 001d60.ffffffff.0 0003d5.ffffffff.0
Width: 96
Flags: W
HStem: 0 16<20.2951 32 48 61.4855> 64 16<49.9746 62.8384>
VStem: 0 16<27.2507 64> 32 16<-16 0 16 52.7493> 64 16<18.2861 62.9725>
CounterMasks: 1 38
AnchorPoint: "Top" 40 80 basechar 0
LayerCount: 2
Back
Fore
SplineSet
56 80 m 0
 76 80 80 72 80 40 c 0
 80 8 74 0 48 0 c 1
 48 -16 l 1
 32 -16 l 1
 32 0 l 1
 6 0 0 8 0 64 c 0
 16 64 l 0
 16 16 16 16 32 16 c 1
 32 72 36 80 56 80 c 0
48 16 m 1
 64 16 64 16 64 40 c 0
 64 64 64 64 56 64 c 0
 48 64 48 64 48 16 c 1
EndSplineSet
Validated: 1
EndChar

StartChar: Iotadieresis
Encoding: 938 938 347
Width: 64
Flags: W
HStem: 0 16<0 16 32 48 0 16> 96 16<0 16 0 48 32 48 32 32> 136 16<0 16 0 16 32 48>
VStem: 0 16<0 96 16 96 16 112 136 152> 16 16<16 96 16 96 136 152> 32 16<0 96 0 16 136 152>
LayerCount: 2
Fore
SplineSet
32 152 m 1x34
 48 152 l 1
 48 136 l 1
 32 136 l 1
 32 152 l 1x34
0 152 m 1
 16 152 l 1
 16 136 l 1
 0 136 l 1
 0 152 l 1
0 112 m 1xc8
 48 112 l 1
 48 96 l 1
 32 96 l 1
 32 16 l 1
 48 16 l 1
 48 0 l 1
 0 0 l 1
 0 16 l 1
 16 16 l 1
 16 96 l 1
 0 96 l 1
 0 112 l 1xc8
EndSplineSet
Validated: 1
EndChar

StartChar: Upsilondieresis
Encoding: 939 939 348
Width: 96
Flags: W
HStem: 0 21G<32 48 32 32> 136 16<16 32 16 32 48 64>
VStem: 16 16<136 152> 32 16<0 68 0 68 136 152> 48 16<136 152 136 152>
LayerCount: 2
Fore
SplineSet
48 152 m 1x68
 64 152 l 1
 64 136 l 1
 48 136 l 1
 48 152 l 1x68
16 152 m 1
 32 152 l 1
 32 136 l 1
 16 136 l 1
 16 152 l 1
0 112 m 1x90
 18 112 l 1
 40 82 l 1
 62 112 l 1
 80 112 l 1
 48 68 l 1
 48 0 l 1
 32 0 l 1
 32 68 l 1
 0 112 l 1x90
EndSplineSet
Validated: 1
EndChar

StartChar: tonos
Encoding: 900 900 351
Width: 48
Flags: W
HStem: 80 32
VStem: 0 32
AnchorPoint: "Top" 8 64 mark 0
LayerCount: 2
Fore
SplineSet
32 112 m 1
 16 80 l 1
 0 80 l 1
 16 112 l 1
 32 112 l 1
EndSplineSet
Validated: 1
EndChar

StartChar: dieresistonos
Encoding: 901 901 352
Width: 64
HStem: 80 16<0 16 64 80>
VStem: 0 16<80 96> 32 16<80 112> 64 16<80 96>
CounterMasks: 1 70
AnchorPoint: "Top" 40 64 mark 0
LayerCount: 2
Fore
SplineSet
64 96 m 1
 80 96 l 1
 80 80 l 1
 64 80 l 1
 64 96 l 1
0 96 m 1
 16 96 l 1
 16 80 l 1
 0 80 l 1
 0 96 l 1
48 112 m 1
 48 80 l 1
 32 80 l 1
 32 112 l 1
 48 112 l 1
EndSplineSet
Validated: 1
EndChar

StartChar: alphatonos
Encoding: 940 940 361
Width: 96
Flags: W
HStem: 0 16<24 40 24 40 72 80> 64 16<24 40 72 80> 87 32<40 72 40 72>
VStem: 0 16<28 52 28 56> 40 32 48 16<32 48 32 52>
LayerCount: 2
Fore
SplineSet
72 119 m 1x28
 56 87 l 1
 40 87 l 1
 56 119 l 1
 72 119 l 1x28
0 40 m 0xd4
 0 72 8 80 32 80 c 0
 48 80 56 73 56 64 c 1
 56 64 56 80 80 80 c 1
 80 64 l 1
 64 64 64 56 64 40 c 0
 64 24 64 16 80 16 c 1
 80 0 l 1
 56 0 56 16 56 16 c 1
 56 7 48 0 32 0 c 0
 8 0 0 8 0 40 c 0xd4
48 40 m 0
 48 64 48 64 32 64 c 0
 16 64 16 64 16 40 c 0
 16 16 16 16 32 16 c 0
 48 16 48 16 48 40 c 0
EndSplineSet
Validated: 1
EndChar

StartChar: epsilontonos
Encoding: 941 941 362
Width: 80
Flags: W
HStem: 0 16<40 64 40 64> 32 16<32 48> 64 16<40 64> 87 32<48 80 48 80>
VStem: 0 16<20 27 53 60> 48 32
LayerCount: 2
Fore
SplineSet
80 119 m 1
 64 87 l 1
 48 87 l 1
 64 119 l 1
 80 119 l 1
8 40 m 1
 2 45 0 50 0 56 c 0
 0 76 8 80 64 80 c 1
 64 64 l 1
 16 64 16 64 16 56 c 0
 16 48 16 48 48 48 c 1
 48 32 l 1
 16 32 16 32 16 24 c 0
 16 16 16 16 64 16 c 1
 64 0 l 1
 8 0 0 4 0 24 c 0
 0 30 2 35 8 40 c 1
EndSplineSet
Validated: 1
EndChar

StartChar: etatonos
Encoding: 942 942 363
Width: 96
Flags: W
HStem: 0 21G<0 16 0 0> 64 16<16 40> 100 32<32 64 32 64>
VStem: 0 16<0 64 0 80> 32 32 64 16<-16 24>
LayerCount: 2
Fore
SplineSet
64 132 m 1x28
 48 100 l 1
 32 100 l 1
 48 132 l 1
 64 132 l 1x28
16 64 m 1xd4
 16 0 l 1
 0 0 l 1
 0 80 l 1
 16 80 l 2
 76 80 80 72 80 -16 c 1
 64 -16 l 1
 64 64 64 64 16 64 c 1xd4
EndSplineSet
Validated: 1
EndChar

StartChar: iotatonos
Encoding: 943 943 364
Width: 48
Flags: W
HStem: 0 16<24 32 24 32> 124 32<0 32 0 32>
VStem: 0 16<48 80 48 80> 0 32<0 80>
LayerCount: 2
Fore
SplineSet
32 156 m 1x50
 16 124 l 1
 0 124 l 1
 16 156 l 1
 32 156 l 1x50
0 80 m 1xa0
 16 80 l 1
 16 16 16 16 32 16 c 1
 32 0 l 1
 0 0 0 8 0 80 c 1xa0
EndSplineSet
Validated: 1
EndChar

StartChar: upsilondieresistonos
Encoding: 944 944 365
Width: 96
Flags: W
HStem: 0 16<28 52 28 57> 64 16<48 56> 71 16<0 16 0 16 64 80>
VStem: 0 16<48 80 80 80 71 80 80 87 48 87> 32 16<71 80 80 103> 64 16<28 52 71 87>
CounterMasks: 1 1c
LayerCount: 2
Fore
SplineSet
64 87 m 1x3c
 80 87 l 1
 80 71 l 1
 64 71 l 1
 64 87 l 1x3c
0 87 m 1
 16 87 l 1
 16 71 l 1
 0 71 l 1
 0 87 l 1
48 103 m 1
 48 71 l 1
 32 71 l 1
 32 103 l 1
 48 103 l 1
40 0 m 0xd4
 4 0 0 8 0 80 c 1
 16 80 l 1
 16 16 16 16 40 16 c 0
 64 16 64 16 64 40 c 0
 64 64 64 64 48 64 c 1
 48 80 l 1
 73 80 80 73 80 40 c 0
 80 6 74 0 40 0 c 0xd4
EndSplineSet
Validated: 5
EndChar

StartChar: cent
Encoding: 162 162 389
Width: 96
Flags: W
VStem: 0 16<18.3789 61.6211> 32 16<-16 0 80 96> 64 16<17.7188 32 48 62.2812>
CounterMasks: 1 e0
LayerCount: 2
Back
Fore
SplineSet
32 96 m 1
 48 96 l 1
 48 80 l 1
 73 80 80 70 80 48 c 1
 64 48 l 1
 64 64 64 64 40 64 c 0
 16 64 16 64 16 40 c 0
 16 16 16 16 40 16 c 0
 64 16 64 16 64 32 c 1
 80 32 l 1
 80 10 73 0 48 0 c 1
 48 -16 l 1
 32 -16 l 1
 32 0 l 1
 7 0 0 11 0 40 c 0
 0 69 7 80 32 80 c 1
 32 96 l 1
EndSplineSet
Validated: 1
EndChar

StartChar: currency
Encoding: 164 164 390
Width: 128
Flags: W
HStem: 0 16<0 12.5208 34.0711 77.9289 99.4844 112> 64 16<0 12.5208 34.0711 77.9289 99.4792 112>
VStem: 16 16<19.2901 60.7099> 80 16<19.2901 60.7099>
LayerCount: 2
Back
Fore
SplineSet
56 16 m 0
 80 16 80 16 80 40 c 0
 80 64 80 64 56 64 c 0
 32 64 32 64 32 40 c 0
 32 16 32 16 56 16 c 0
88 8 m 1
 82 1 74 0 56 0 c 0
 38 0 30 1 24 8 c 1
 21 4 14 0 0 0 c 1
 0 16 l 1
 16 16 16 24 16 40 c 0
 16 56 16 64 0 64 c 1
 0 80 l 1
 14 80 21 76 24 72 c 1
 30 79 38 80 56 80 c 0
 74 80 82 79 88 72 c 1
 91 76 98 80 112 80 c 1
 112 64 l 1
 96 64 96 56 96 40 c 0
 96 24 96 16 112 16 c 1
 112 0 l 1
 99 0 91 4 88 8 c 1
EndSplineSet
Validated: 1
EndChar

StartChar: yen
Encoding: 165 165 391
Width: 96
Flags: W
HStem: 0 21G<32 48> 0 21G<32 48> 32 16<0 32 48 80> 64 16<0 23 57 80> 92 20G<0 32.6667 47.3333 80>
VStem: 32 16<0 32 48 64>
LayerCount: 2
Back
Fore
SplineSet
0 112 m 1xbc
 18 112 l 1
 40 82 l 1
 62 112 l 1
 80 112 l 1
 57 80 l 1
 80 80 l 1
 80 64 l 1
 48 64 l 1
 48 48 l 1
 80 48 l 1
 80 32 l 1
 48 32 l 1
 48 0 l 1
 32 0 l 1
 32 32 l 1
 0 32 l 1
 0 48 l 1
 32 48 l 1
 32 64 l 1
 0 64 l 1
 0 80 l 1
 23 80 l 1
 0 112 l 1xbc
EndSplineSet
Validated: 1
EndChar

StartChar: paragraph
Encoding: 182 182 392
Width: 112
VWidth: 16000
Flags: W
HStem: 0 21G<32 48 64 80> 0 21G<32 48 64 80> 96 16<48 64 80 96>
VStem: 0 48<70.7363 95.5217> 32 16<0 64> 64 16<0 96>
LayerCount: 2
Back
Fore
SplineSet
32 64 m 1xac
 8 64 0 67 0 88 c 0xb4
 0 108 10 112 32 112 c 2
 96 112 l 1
 96 96 l 1
 80 96 l 1
 80 0 l 1
 64 0 l 1
 64 96 l 1
 48 96 l 1
 48 0 l 1
 32 0 l 1
 32 64 l 1xac
EndSplineSet
Validated: 1
EndChar

StartChar: uni0402
Encoding: 1026 1026 393
Width: 128
Flags: W
HStem: 0 16<80 93.5369> 64 16<65.9659 93.4715> 96 16<0 32 48 80>
VStem: 32 16<0 50.6145 68 96> 96 16<18.2861 61.7139>
AnchorPoint: "Top" 40 112 basechar 0
LayerCount: 2
Back
Fore
SplineSet
80 16 m 1
 96 16 96 16 96 40 c 0
 96 64 96 64 80 64 c 0
 65 64 56 56 48 48 c 1
 48 0 l 1
 32 0 l 1
 32 96 l 1
 0 96 l 1
 0 112 l 1
 80 112 l 1
 80 96 l 1
 48 96 l 1
 48 68 l 1
 56 73 64 80 80 80 c 0
 103 80 112 72 112 40 c 0
 112 8 104 0 80 0 c 1
 80 16 l 1
EndSplineSet
Validated: 1
EndChar

StartChar: uni0409
Encoding: 1033 1033 394
Width: 128
Flags: W
HStem: 0 16<0 8.26562 64 90.6902> 64 16<64 90.6902> 96 16<32 48>
VStem: 16 16<76.1782 96> 48 16<16 64 80 96> 96 16<20.2607 59.7393>
AnchorPoint: "Top" 40 112 basechar 0
LayerCount: 2
Back
Fore
SplineSet
64 64 m 1
 64 16 l 1
 96 16 96 16 96 40 c 0
 96 64 96 64 64 64 c 1
48 96 m 1
 32 96 l 1
 32 9 24 0 0 0 c 1
 0 16 l 1
 16 16 16 32 16 112 c 1
 64 112 l 1
 64 80 l 1
 104 80 112 72 112 40 c 0
 112 8 104 0 64 0 c 2
 48 0 l 1
 48 96 l 1
EndSplineSet
Validated: 1
EndChar

StartChar: uni040A
Encoding: 1034 1034 395
Width: 112
Flags: W
HStem: 0 16<48 74.6902> 64 16<16 32 48 74.6902>
VStem: 0 16<0 64 80 112> 32 16<16 64 80 112> 80 16<20.2607 59.7393>
AnchorPoint: "Top" 40 112 basechar 0
LayerCount: 2
Back
Fore
SplineSet
48 64 m 1
 48 16 l 1
 80 16 80 16 80 40 c 0
 80 64 80 64 48 64 c 1
32 64 m 1
 16 64 l 1
 16 0 l 1
 0 0 l 1
 0 112 l 1
 16 112 l 1
 16 80 l 1
 32 80 l 1
 32 112 l 1
 48 112 l 1
 48 80 l 1
 88 80 96 72 96 40 c 0
 96 8 88 0 48 0 c 2
 32 0 l 1
 32 64 l 1
EndSplineSet
Validated: 1
EndChar

StartChar: uni040B
Encoding: 1035 1035 396
Width: 112
Flags: W
HStem: 0 21G<16 32 80 96> 48 16<49.9659 75.9795> 96 16<0 16 32 80>
VStem: 16 16<0 34.6145 52 96> 80 16<0 36.7493>
AnchorPoint: "Top" 40 112 basechar 0
LayerCount: 2
Back
Fore
SplineSet
80 0 m 1
 80 48 80 48 64 48 c 0
 49 48 40 40 32 32 c 1
 32 0 l 1
 16 0 l 1
 16 96 l 1
 0 96 l 1
 0 112 l 1
 80 112 l 1
 80 96 l 1
 32 96 l 1
 32 52 l 1
 40 57 48 64 64 64 c 0
 88 64 96 56 96 0 c 1
 80 0 l 1
EndSplineSet
Validated: 1
EndChar

StartChar: uni0411
Encoding: 1041 1041 397
Width: 96
VWidth: 16000
Flags: W
HStem: 0 16<16 52.4689> 64 16<16 52.7493> 96 16<16 80>
VStem: 0 16<16 64 80 96> 64 16<24.1849 55.6157>
AnchorPoint: "Top" 40 112 basechar 0
LayerCount: 2
Back
Fore
SplineSet
64 40 m 0
 64 64 57 64 16 64 c 1
 16 16 l 1
 57 16 64 16 64 40 c 0
80 112 m 2
 80 96 l 1
 16 96 l 1
 16 80 l 1
 72 80 80 72 80 40 c 0
 80 0 68 0 16 0 c 2
 0 0 l 1
 0 112 l 1
 80 112 l 2
EndSplineSet
Validated: 1
EndChar

StartChar: uni0414
Encoding: 1044 1044 398
Width: 112
Flags: W
HStem: -16 32<0 16 80 96> 0 16<32 64> 96 16<45 64>
VStem: 0 16<-16 0> 64 16<16 96> 80 16<-16 0>
AnchorPoint: "Top" 56 112 basechar 0
LayerCount: 2
Back
Fore
SplineSet
32 16 m 1x78
 64 16 l 1
 64 96 l 1
 45 96 l 1
 32 16 l 1x78
0 16 m 1xb4
 16 16 l 1
 32 112 l 1
 80 112 l 1xb4
 80 96 l 1
 80 16 l 1xb8
 96 16 l 1
 96 -16 l 1
 80 -16 l 1xb4
 80 0 l 1
 16 0 l 1x74
 16 -16 l 1
 0 -16 l 1
 0 16 l 1xb4
EndSplineSet
Validated: 1
EndChar

StartChar: uni0416
Encoding: 1046 1046 399
Width: 128
Flags: W
HStem: 0 21G<0 16 48 64 96 112>
VStem: 0 16<0 35.5651 87.8421 112> 48 16<0 64 80 112> 96 16<0 35.5651 87.8421 112>
CounterMasks: 1 70
AnchorPoint: "Top" 56 112 basechar 0
LayerCount: 2
Back
Fore
SplineSet
48 112 m 1
 64 112 l 1
 64 80 l 1
 96 80 96 80 96 112 c 1
 112 112 l 1
 112 72 98 72 80 72 c 1
 108 72 112 62 112 0 c 1
 96 0 l 1
 96 64 96 64 64 64 c 1
 64 0 l 1
 48 0 l 1
 48 64 l 1
 16 64 16 64 16 0 c 1
 0 0 l 1
 0 62 4 72 32 72 c 1
 14 72 0 72 0 112 c 1
 16 112 l 1
 16 80 16 80 48 80 c 1
 48 112 l 1
EndSplineSet
Validated: 1
EndChar

StartChar: uni0417
Encoding: 1047 1047 400
Width: 96
Flags: W
HStem: 0 16<18.5041 60.7148> 64 16<32 59.6132> 96 16<18.5041 62.9725>
VStem: 0 16<18.9015 32 80 93.0985> 64 16<19.2852 59.7626 81.5051 94.9087>
AnchorPoint: "Top" 40 112 basechar 0
LayerCount: 2
Back
Fore
SplineSet
72 72 m 1
 78 67 80 59 80 40 c 0
 80 8 72 0 40 0 c 0
 9 0 0 7 0 32 c 1
 16 32 l 1
 16 16 16 16 40 16 c 0
 64 16 64 16 64 40 c 0
 64 64 64 64 32 64 c 1
 32 80 l 1
 64 80 64 80 64 88 c 0
 64 96 64 96 40 96 c 0
 16 96 16 96 16 80 c 1
 0 80 l 1
 0 105 9 112 40 112 c 0
 72 112 80 104 80 88 c 0
 80 85 78 77 72 72 c 1
EndSplineSet
Validated: 1
EndChar

StartChar: uni0418
Encoding: 1048 1048 401
Width: 96
VWidth: 112
Flags: W
HStem: 0 21G<0 16 64 80>
VStem: 0 16<0 42 64 112> 64 16<0 90>
AnchorPoint: "Top" 40 112 basechar 0
LayerCount: 2
Fore
SplineSet
16 64 m 1
 64 112 l 1
 80 112 l 1
 80 0 l 1
 64 0 l 1
 64 90 l 1
 16 42 l 1
 16 0 l 1
 0 0 l 1
 0 112 l 1
 16 112 l 1
 16 64 l 1
EndSplineSet
Validated: 1
EndChar

StartChar: uni041B
Encoding: 1051 1051 402
Width: 96
Flags: W
HStem: 0 16<0 10.1086> 96 16<32 64>
VStem: 16 16<76.9283 96> 64 16<0 96>
AnchorPoint: "Top" 48 112 basechar 0
LayerCount: 2
Back
Fore
SplineSet
0 16 m 1
 16 16 16 16 16 112 c 1
 80 112 l 1
 80 0 l 1
 64 0 l 1
 64 96 l 1
 32 96 l 1
 32 0 24 0 0 0 c 1
 0 16 l 1
EndSplineSet
Validated: 1
EndChar

StartChar: uni0423
Encoding: 1059 1059 403
Width: 96
Flags: W
HStem: 0 16<0 37> 48 16<28.6875 64>
VStem: 0 16<75.7188 112> 64 16<25.837 48 64 112>
AnchorPoint: "Top" 40 112 basechar 0
LayerCount: 2
Back
Fore
SplineSet
64 48 m 1
 4 48 0 60 0 112 c 1
 16 112 l 1
 16 64 16 64 64 64 c 1
 64 112 l 1
 80 112 l 1
 80 48 l 2
 80 4 68 0 0 0 c 1
 0 16 l 1
 64 16 64 16 64 48 c 1
EndSplineSet
Validated: 1
EndChar

StartChar: uni0424
Encoding: 1060 1060 404
Width: 128
Flags: W
HStem: 0 16<22.0189 48 64 88.7969> 80 16<22.0189 48 64 89.9811>
VStem: 0 16<22.072 73.928> 48 16<-16 0 16 80 96 112> 96 16<22.4873 73.928>
CounterMasks: 1 38
AnchorPoint: "Top" 56 112 basechar 0
LayerCount: 2
Back
Fore
SplineSet
48 112 m 1
 64 112 l 1
 64 96 l 1
 105 96 112 88 112 48 c 0
 112 8 105 0 64 0 c 1
 64 -16 l 1
 48 -16 l 1
 48 0 l 1
 7 0 0 8 0 48 c 0
 0 88 7 96 48 96 c 1
 48 112 l 1
48 80 m 1
 16 80 16 80 16 48 c 0
 16 16 16 16 48 16 c 1
 48 80 l 1
64 80 m 1
 64 16 l 1
 96 16 96 18 96 48 c 0
 96 80 96 80 64 80 c 1
EndSplineSet
Validated: 1
EndChar

StartChar: uni0426
Encoding: 1062 1062 405
Width: 112
Flags: W
HStem: 0 16<16 64>
VStem: 0 16<16 112> 64 16<16 112> 80 16<-16 0>
AnchorPoint: "Top" 40 112 basechar 0
LayerCount: 2
Fore
SplineSet
0 112 m 1xd0
 16 112 l 1
 16 16 l 1
 64 16 l 1
 64 112 l 1
 80 112 l 1
 80 16 l 2xe0
 96 16 l 1
 96 -16 l 1
 80 -16 l 1
 80 0 l 1
 0 0 l 1
 0 112 l 1xd0
EndSplineSet
Validated: 1
EndChar

StartChar: uni0427
Encoding: 1063 1063 406
Width: 96
Flags: W
HStem: 0 21G<64 80> 48 16<28.6875 64>
VStem: 0 16<75.7188 112> 64 16<0 48 64 112>
AnchorPoint: "Top" 40 112 basechar 0
LayerCount: 2
Fore
SplineSet
64 48 m 1
 4 48 0 60 0 112 c 1
 16 112 l 1
 16 64 16 64 64 64 c 1
 64 112 l 1
 80 112 l 1
 80 0 l 1
 64 0 l 1
 64 48 l 1
EndSplineSet
Validated: 1
EndChar

StartChar: uni0428
Encoding: 1064 1064 407
Width: 128
Flags: W
HStem: 0 16<16 48 64 96>
VStem: 0 16<16 112> 48 16<16 112> 96 16<16 112>
CounterMasks: 1 70
AnchorPoint: "Top" 56 112 basechar 0
LayerCount: 2
Fore
SplineSet
0 112 m 1
 16 112 l 1
 16 16 l 1
 48 16 l 1
 48 112 l 1
 64 112 l 1
 64 16 l 1
 96 16 l 1
 96 112 l 1
 112 112 l 1
 112 0 l 1
 0 0 l 1
 0 112 l 1
EndSplineSet
Validated: 1
EndChar

StartChar: uni0429
Encoding: 1065 1065 408
Width: 144
Flags: W
HStem: 0 16<16 48 64 96>
VStem: 0 16<16 112> 48 16<16 112> 96 16<16 112> 112 16<-16 0>
AnchorPoint: "Top" 56 112 basechar 0
LayerCount: 2
Fore
SplineSet
0 112 m 1xe8
 16 112 l 1
 16 16 l 1
 48 16 l 1
 48 112 l 1
 64 112 l 1
 64 16 l 1
 96 16 l 1
 96 112 l 1
 112 112 l 1
 112 16 l 2xf0
 128 16 l 1
 128 -16 l 1
 112 -16 l 1
 112 0 l 1
 0 0 l 1
 0 112 l 1xe8
EndSplineSet
Validated: 1
EndChar

StartChar: uni042A
Encoding: 1066 1066 409
Width: 112
VWidth: 16000
Flags: W
HStem: 0 16<32 68.4689> 48 16<32 68.7493> 96 16<0 16>
VStem: 16 16<16 48 64 96> 80 16<21.4997 42.2734>
CounterMasks: 1 e0
AnchorPoint: "Top" 40 112 basechar 0
LayerCount: 2
Back
Fore
SplineSet
80 32 m 0
 80 48 73 48 32 48 c 1
 32 16 l 1
 73 16 80 16 80 32 c 0
0 96 m 2
 0 112 l 1
 32 112 l 1
 32 64 l 1
 88 64 96 56 96 32 c 0
 96 0 84 0 32 0 c 2
 16 0 l 1
 16 96 l 1
 0 96 l 2
EndSplineSet
Validated: 1
EndChar

StartChar: uni042C
Encoding: 1068 1068 410
Width: 96
VWidth: 16000
Flags: W
HStem: 0 16<16 52.4689> 48 16<16 52.7493>
VStem: 0 16<16 48 64 112> 64 16<21.4997 42.2734>
AnchorPoint: "Top" 40 112 basechar 0
LayerCount: 2
Fore
SplineSet
64 32 m 0
 64 48 57 48 16 48 c 1
 16 16 l 1
 57 16 64 16 64 32 c 0
16 112 m 1
 16 64 l 1
 72 64 80 56 80 32 c 0
 80 0 68 0 16 0 c 2
 0 0 l 1
 0 112 l 1
 16 112 l 1
EndSplineSet
Validated: 1
EndChar

StartChar: uni042B
Encoding: 1067 1067 411
Width: 128
VWidth: 16000
Flags: W
HStem: 0 16<16 52.4689> 48 16<16 52.7493>
VStem: 0 16<16 48 64 112> 64 16<21.4997 42.2734> 96 16<0 112>
AnchorPoint: "Top" 56 112 basechar 0
LayerCount: 2
Fore
SplineSet
96 112 m 1
 112 112 l 1
 112 0 l 1
 96 0 l 1
 96 112 l 1
64 32 m 0
 64 48 57 48 16 48 c 1
 16 16 l 1
 57 16 64 16 64 32 c 0
16 112 m 1
 16 64 l 1
 72 64 80 56 80 32 c 0
 80 0 68 0 16 0 c 2
 0 0 l 1
 0 112 l 1
 16 112 l 1
EndSplineSet
Validated: 1
EndChar

StartChar: uni042D
Encoding: 1069 1069 412
Width: 96
Flags: W
HStem: 0 16<18.5417 59.7393> 48 16<32 64> 96 16<18.2861 59.7393>
VStem: 0 16<18.4631 32 80 93.5369> 64 16<22.9889 48 64 89.0111>
CounterMasks: 1 e0
AnchorPoint: "Top" 40 112 basechar 0
LayerCount: 2
Back
Fore
SplineSet
40 0 m 0
 7 0 0 8 0 32 c 1
 16 32 l 1
 16 16 16 16 40 16 c 0
 64 16 64 16 64 48 c 1
 32 48 l 1
 32 64 l 1
 64 64 l 1
 64 96 64 96 40 96 c 0
 16 96 16 96 16 80 c 1
 0 80 l 1
 0 104 8 112 40 112 c 0
 72 112 80 104 80 56 c 0
 80 8 72 0 40 0 c 0
EndSplineSet
Validated: 1
EndChar

StartChar: uni042E
Encoding: 1070 1070 413
Width: 128
Flags: W
HStem: 0 16<53.1364 90.7498> 48 16<16 32> 96 16<53.1364 90.7498>
VStem: 0 16<0 48 64 112> 32 16<22.0189 48 64 89.9811> 96 16<21.6129 90.3871>
CounterMasks: 1 e0
AnchorPoint: "Top" 56 112 basechar 0
LayerCount: 2
Back
Fore
SplineSet
72 112 m 0
 106 112 112 104 112 56 c 0
 112 8 106 0 72 0 c 0
 40 0 32 7 32 48 c 1
 16 48 l 1
 16 0 l 1
 0 0 l 1
 0 112 l 1
 16 112 l 1
 16 64 l 1
 32 64 l 1
 32 105 40 112 72 112 c 0
72 16 m 0
 96 16 96 16 96 56 c 0
 96 96 96 96 72 96 c 0
 48 96 48 96 48 56 c 0
 48 16 48 16 72 16 c 0
EndSplineSet
Validated: 1
EndChar

StartChar: uni042F
Encoding: 1071 1071 414
Width: 96
VWidth: 16000
Flags: W
HStem: 0 21G<0 16 64 80> 64 16<29.5659 64> 96 16<27.0907 64>
VStem: 0 16<0 36.1782 82.0133 94.0254> 64 16<0 64 80 96>
AnchorPoint: "Top" 40 112 basechar 0
LayerCount: 2
Fore
SplineSet
64 64 m 1
 16 64 16 64 16 0 c 1
 0 0 l 1
 0 55 6 72 24 72 c 1
 1 72 0 83 0 88 c 0
 0 108 11 112 64 112 c 2
 80 112 l 1
 80 0 l 1
 64 0 l 1
 64 64 l 1
64 80 m 1
 64 96 l 1
 16 96 16 96 16 88 c 0
 16 80 16 80 64 80 c 1
EndSplineSet
Validated: 1
EndChar

StartChar: uni0431
Encoding: 1073 1073 415
Width: 96
Flags: W
HStem: 0 16<22.2881 60.6518> 64 16<16 52.7493> 96 16<43 80>
VStem: 0 16<27.2507 64 80 90.6902> 64 16<19.3482 57.9314>
AnchorPoint: "Top" 40 112 basechar 0
LayerCount: 2
Back
Fore
SplineSet
80 40 m 0
 80 6 74 0 40 0 c 0
 0 0 0 8 0 64 c 0
 0 104 0 112 80 112 c 1
 80 96 l 1
 16 96 16 96 16 80 c 1
 72 80 80 72 80 40 c 0
40 16 m 0
 64 16 64 16 64 40 c 0
 64 64 64 64 16 64 c 1
 16 16 16 16 40 16 c 0
EndSplineSet
Validated: 1
EndChar

StartChar: uni0432
Encoding: 1074 1074 416
Width: 96
VWidth: 16000
Flags: W
HStem: 0 16<16 52.9093> 32 16<16 53.0933> 64 16<16 52.9093>
VStem: 0 16<16 32 48 64> 64 16<18.4451 29.9154 50.0846 61.5549>
CounterMasks: 1 e0
AnchorPoint: "Top" 40 80 basechar 0
LayerCount: 2
Back
Fore
SplineSet
16 16 m 1
 62 16 64 16 64 24 c 0
 64 32 62 32 16 32 c 1
 16 16 l 1
0 0 m 1
 0 80 l 1
 16 80 l 2
 69 80 80 76 80 56 c 0
 80 47 73 40 64 40 c 1
 73 40 80 33 80 24 c 0
 80 4 69 0 16 0 c 2
 0 0 l 1
16 64 m 1
 16 48 l 1
 62 48 64 48 64 56 c 0
 64 64 62 64 16 64 c 1
EndSplineSet
Validated: 1
EndChar

StartChar: uni0433
Encoding: 1075 1075 417
Width: 80
Flags: W
HStem: 0 21G<0 16> 64 16<16 64>
VStem: 0 16<0 64>
AnchorPoint: "Top" 40 80 basechar 0
LayerCount: 2
Back
Fore
SplineSet
0 0 m 1
 0 80 l 1
 64 80 l 1
 64 64 l 1
 16 64 l 1
 16 0 l 1
 0 0 l 1
EndSplineSet
Validated: 1
EndChar

StartChar: uni0434
Encoding: 1076 1076 418
Width: 112
Flags: W
HStem: -16 32<0 16 80 96> 0 16<32 64> 64 16<45 64>
VStem: 0 16<-16 0> 64 16<16 64> 80 16<-16 0>
AnchorPoint: "Top" 56 80 basechar 0
LayerCount: 2
Back
Fore
SplineSet
32 16 m 1x78
 64 16 l 1
 64 64 l 1
 45 64 l 1
 32 16 l 1x78
0 16 m 1xb4
 16 16 l 1
 32 80 l 1
 80 80 l 1xb4
 80 16 l 1xb8
 96 16 l 1
 96 -16 l 1
 80 -16 l 1xb4
 80 0 l 1
 16 0 l 1x74
 16 -16 l 1
 0 -16 l 1
 0 16 l 1xb4
EndSplineSet
Validated: 1
EndChar

StartChar: uni0436
Encoding: 1078 1078 419
Width: 96
Flags: W
HStem: 0 21G<0 16 32 48 64 80> 32 8<19.249 24 56 60.751> 40 8<19.249 24 56 60.751>
VStem: 0 16<0 28.6951 51.3049 80> 32 16<0 32 48 80> 64 16<0 28.6951 51.3049 80>
CounterMasks: 1 1c
AnchorPoint: "Top" 40 80 basechar 0
LayerCount: 2
Back
Fore
SplineSet
32 80 m 1xbc
 48 80 l 1
 48 48 l 1xbc
 64 48 64 48 64 80 c 1
 80 80 l 1
 80 40 74 40 56 40 c 1
 74 40 80 40 80 0 c 1
 64 0 l 1
 64 32 64 32 48 32 c 1
 48 0 l 1
 32 0 l 1
 32 32 l 1
 16 32 16 32 16 0 c 1
 0 0 l 1
 0 40 6 40 24 40 c 1xdc
 6 40 0 40 0 80 c 1
 16 80 l 1
 16 48 16 48 32 48 c 1
 32 80 l 1xbc
EndSplineSet
Validated: 1
EndChar

StartChar: uni0437
Encoding: 1079 1079 420
Width: 96
Flags: W
HStem: 0 16<18.5041 62.9725> 32 16<32 63.1627> 64 16<18.5041 62.9725>
VStem: 0 16<18.9015 32 48 61.0985> 64 16<17.0913 30.4949 49.5051 62.9087>
CounterMasks: 1 e0
AnchorPoint: "Top" 40 80 basechar 0
LayerCount: 2
Back
Fore
SplineSet
32 32 m 1
 32 48 l 1
 64 48 64 48 64 56 c 0
 64 64 64 64 40 64 c 0
 16 64 16 64 16 48 c 1
 0 48 l 1
 0 73 9 80 40 80 c 0
 72 80 80 72 80 56 c 0
 80 53 78 45 72 40 c 1
 78 35 80 27 80 24 c 0
 80 8 72 0 40 0 c 0
 9 0 0 7 0 32 c 1
 16 32 l 1
 16 16 16 16 40 16 c 0
 64 16 64 16 64 24 c 0
 64 32 64 32 32 32 c 1
EndSplineSet
Validated: 1
EndChar

StartChar: uni0438
Encoding: 1080 1080 421
Width: 96
VWidth: 112
Flags: W
HStem: 0 21G<0 26.6667 64 80>
VStem: 0 16<32 80> 64 16<0 48>
AnchorPoint: "Top" 40 80 basechar 0
LayerCount: 2
Back
Fore
SplineSet
16 32 m 1
 80 80 l 1
 80 0 l 1
 64 0 l 1
 64 48 l 1
 0 0 l 1
 0 80 l 1
 16 80 l 1
 16 32 l 1
EndSplineSet
Validated: 1
EndChar

StartChar: uni043B
Encoding: 1083 1083 422
Width: 96
Flags: W
HStem: 0 16<0 10.9977> 64 16<32 64>
VStem: 16 16<43 64> 64 16<0 64>
AnchorPoint: "Top" 40 80 basechar 0
LayerCount: 2
Back
Fore
SplineSet
0 16 m 1
 16 16 16 16 16 80 c 1
 80 80 l 1
 80 0 l 1
 64 0 l 1
 64 64 l 1
 32 64 l 1
 32 0 24 0 0 0 c 1
 0 16 l 1
EndSplineSet
Validated: 1
EndChar

StartChar: uni043C
Encoding: 1084 1084 423
Width: 96
Flags: W
HStem: 0 21G<0 16 64 80>
VStem: 0 16<0 50> 64 16<0 50>
AnchorPoint: "Top" 40 80 basechar 0
LayerCount: 2
Back
Fore
SplineSet
0 80 m 1
 40 50 l 1
 80 80 l 1
 80 0 l 1
 64 0 l 1
 64 50 l 1
 40 32 l 1
 16 50 l 1
 16 0 l 1
 0 0 l 1
 0 80 l 1
EndSplineSet
Validated: 1
EndChar

StartChar: uni043D
Encoding: 1085 1085 424
AltUni2: 001d78.ffffffff.0
Width: 96
VWidth: 112
Flags: W
HStem: 0 21G<0 16 64 80> 32 16<16 64>
VStem: 0 16<0 32 48 80> 64 16<0 32 48 80>
AnchorPoint: "Top" 40 80 basechar 0
LayerCount: 2
Back
Fore
SplineSet
16 80 m 1
 16 48 l 1
 64 48 l 1
 64 80 l 1
 80 80 l 1
 80 0 l 1
 64 0 l 1
 64 32 l 1
 16 32 l 1
 16 0 l 1
 0 0 l 1
 0 80 l 1
 16 80 l 1
EndSplineSet
Validated: 1
EndChar

StartChar: uni0442
Encoding: 1090 1090 425
Width: 96
Flags: W
HStem: 0 21G<32 48> 64 16<0 32 48 80>
VStem: 32 16<0 64>
AnchorPoint: "Top" 40 80 basechar 0
LayerCount: 2
Back
Fore
SplineSet
0 80 m 1
 80 80 l 1
 80 64 l 1
 48 64 l 1
 48 0 l 1
 32 0 l 1
 32 64 l 1
 0 64 l 1
 0 80 l 1
EndSplineSet
Validated: 1
EndChar

StartChar: uni0444
Encoding: 1092 1092 426
Width: 96
Flags: W
HStem: 0 16<18.5145 32 48 60.9792> 64 16<18.8505 32 48 61.1495>
VStem: 0 16<18.2703 61.4583> 32 16<-16 0 16 64> 64 16<18.5041 61.4583>
CounterMasks: 1 38
AnchorPoint: "Top" 40 80 basechar 0
LayerCount: 2
Back
Fore
SplineSet
40 80 m 0
 73 80 80 73 80 40 c 0
 80 9 75 0 48 0 c 1
 48 -16 l 1
 32 -16 l 1
 32 0 l 1
 6 0 0 10 0 40 c 0
 0 73 7 80 40 80 c 0
32 64 m 1
 16 64 16 64 16 40 c 0
 16 16 16 16 32 16 c 1
 32 64 l 1
48 16 m 1
 64 16 64 16 64 40 c 0
 64 64 64 64 48 64 c 1
 48 16 l 1
EndSplineSet
Validated: 1
EndChar

StartChar: uni043F
Encoding: 1087 1087 427
Width: 96
Flags: W
HStem: 0 21G<0 16 64 80> 64 16<16 64>
VStem: 0 16<0 64> 64 16<0 64>
AnchorPoint: "Top" 40 80 basechar 0
LayerCount: 2
Back
Fore
SplineSet
0 0 m 1
 0 80 l 1
 80 80 l 1
 80 0 l 1
 64 0 l 1
 64 64 l 1
 16 64 l 1
 16 0 l 1
 0 0 l 1
EndSplineSet
Validated: 1
EndChar

StartChar: uni0446
Encoding: 1094 1094 428
Width: 96
Flags: W
HStem: 0 16<16 48>
VStem: 0 16<16 80> 48 16<16 80> 64 16<-16 0>
AnchorPoint: "Top" 40 80 basechar 0
LayerCount: 2
Back
Fore
SplineSet
0 80 m 1xd0
 16 80 l 1
 16 16 l 1
 48 16 l 1
 48 80 l 1
 64 80 l 1
 64 16 l 2xe0
 80 16 l 1
 80 -16 l 1
 64 -16 l 1
 64 0 l 1
 0 0 l 1
 0 80 l 1xd0
EndSplineSet
Validated: 1
EndChar

StartChar: uni0447
Encoding: 1095 1095 429
Width: 96
Flags: W
HStem: 0 21G<64 80> 32 16<27.0665 64>
VStem: 0 16<56.1677 80> 64 16<0 32 48 80>
AnchorPoint: "Top" 40 80 basechar 0
LayerCount: 2
Back
Fore
SplineSet
64 32 m 1
 4 32 0 44 0 80 c 1
 16 80 l 1
 16 48 16 48 64 48 c 1
 64 80 l 1
 80 80 l 1
 80 0 l 1
 64 0 l 1
 64 32 l 1
EndSplineSet
Validated: 1
EndChar

StartChar: uni0448
Encoding: 1096 1096 430
Width: 96
Flags: W
HStem: 0 16<16 32 48 64>
VStem: 0 16<16 80> 32 16<16 80> 64 16<16 80>
CounterMasks: 1 70
AnchorPoint: "Top" 40 80 basechar 0
LayerCount: 2
Back
Fore
SplineSet
0 80 m 1
 16 80 l 1
 16 16 l 1
 32 16 l 1
 32 80 l 1
 48 80 l 1
 48 16 l 1
 64 16 l 1
 64 80 l 1
 80 80 l 1
 80 0 l 1
 0 0 l 1
 0 80 l 1
EndSplineSet
Validated: 1
EndChar

StartChar: uni0449
Encoding: 1097 1097 431
Width: 112
Flags: W
HStem: 0 16<16 32 48 64>
VStem: 0 16<16 80> 32 16<16 80> 64 16<16 80> 80 16<-16 0>
AnchorPoint: "Top" 40 80 basechar 0
LayerCount: 2
Back
Fore
SplineSet
0 80 m 1xe8
 16 80 l 1
 16 16 l 1
 32 16 l 1
 32 80 l 1
 48 80 l 1
 48 16 l 1
 64 16 l 1
 64 80 l 1
 80 80 l 1
 80 16 l 1xf0
 96 16 l 1
 96 -16 l 1
 80 -16 l 1
 80 0 l 1
 0 0 l 1
 0 80 l 1xe8
EndSplineSet
Validated: 1
EndChar

StartChar: uni044C
Encoding: 1100 1100 432
Width: 96
VWidth: 16000
Flags: W
HStem: 0 16<16 52.9093> 32 16<16 52.074>
VStem: 0 16<16 32 48 80> 64 16<18.4451 29.7608>
AnchorPoint: "Top" 40 80 basechar 0
LayerCount: 2
Back
Fore
SplineSet
16 16 m 1
 62 16 64 16 64 24 c 0
 64 32 62 32 16 32 c 1
 16 16 l 1
16 48 m 1
 74 48 80 40 80 24 c 0
 80 4 69 0 16 0 c 2
 0 0 l 1
 0 80 l 1
 16 80 l 1
 16 48 l 1
EndSplineSet
Validated: 1
EndChar

StartChar: uni044B
Encoding: 1099 1099 433
Width: 112
VWidth: 16000
Flags: W
HStem: 0 16<16 46.437> 32 16<16 46.6299>
VStem: 0 16<16 32 48 80> 48 16<17.7099 30.4258> 80 16<0 80>
AnchorPoint: "Top" 48 80 basechar 0
LayerCount: 2
Back
Fore
SplineSet
80 80 m 1
 96 80 l 1
 96 0 l 1
 80 0 l 1
 80 80 l 1
16 16 m 1
 48 16 48 16 48 24 c 0
 48 32 48 32 16 32 c 1
 16 16 l 1
16 48 m 1
 60 48 64 40 64 24 c 0
 64 4 55 0 16 0 c 2
 0 0 l 1
 0 80 l 1
 16 80 l 1
 16 48 l 1
EndSplineSet
Validated: 1
EndChar

StartChar: uni044A
Encoding: 1098 1098 434
Width: 112
VWidth: 16000
Flags: W
HStem: 0 16<32 68.9093> 32 16<32 68.074> 64 16<0 16>
VStem: 16 16<16 32 48 64> 80 16<18.4451 29.7608>
CounterMasks: 1 e0
AnchorPoint: "Top" 40 80 basechar 0
LayerCount: 2
Fore
SplineSet
32 48 m 1
 90 48 96 40 96 24 c 0
 96 4 85 0 32 0 c 2
 16 0 l 1
 16 64 l 1
 0 64 l 1
 0 80 l 1
 32 80 l 1
 32 48 l 1
32 16 m 1
 78 16 80 16 80 24 c 0
 80 32 78 32 32 32 c 1
 32 16 l 1
EndSplineSet
Validated: 1
EndChar

StartChar: uni044D
Encoding: 1101 1101 435
Width: 96
Flags: W
HStem: 0 16<18.2861 61.7139> 32 16<32 64> 64 16<18.2861 61.7139>
VStem: 0 16<18.4631 32 48 61.5369> 64 16<18.3394 32 48 61.6606>
CounterMasks: 1 e0
AnchorPoint: "Top" 40 80 basechar 0
LayerCount: 2
Back
Fore
SplineSet
40 0 m 0
 8 0 0 8 0 32 c 1
 16 32 l 1
 16 16 16 16 40 16 c 0
 64 16 64 16 64 32 c 1
 32 32 l 1
 32 48 l 1
 64 48 l 1
 64 64 64 64 40 64 c 0
 16 64 16 64 16 48 c 1
 0 48 l 1
 0 72 8 80 40 80 c 0
 72 80 80 72 80 40 c 0
 80 8 72 0 40 0 c 0
EndSplineSet
Validated: 1
EndChar

StartChar: uni044E
Encoding: 1102 1102 436
Width: 128
Flags: W
HStem: 0 16<51.2506 92.6518> 32 16<16 32> 64 16<51.2506 92.4409>
VStem: 0 16<0 32 48 80> 32 16<19.3921 32 48 60.6079> 96 16<19.3482 60.4409>
CounterMasks: 1 e0
AnchorPoint: "Top" 56 80 basechar 0
LayerCount: 2
Back
Fore
SplineSet
72 80 m 0
 105 80 112 73 112 40 c 0
 112 6 106 0 72 0 c 0
 42 0 32 6 32 32 c 1
 16 32 l 1
 16 0 l 1
 0 0 l 1
 0 80 l 1
 16 80 l 1
 16 48 l 1
 32 48 l 1
 32 74 42 80 72 80 c 0
72 16 m 0
 96 16 96 16 96 40 c 0
 96 64 96 64 72 64 c 0
 48 64 48 64 48 40 c 0
 48 16 48 16 72 16 c 0
EndSplineSet
Validated: 1
EndChar

StartChar: uni044F
Encoding: 1103 1103 437
Width: 96
VWidth: 16000
Flags: W
HStem: 0 21G<0 16 64 80> 32 16<26.8616 64> 64 16<27.0907 64>
VStem: 0 16<0 24.1875 50.0133 62.0254> 64 16<0 32 48 64>
AnchorPoint: "Top" 40 80 basechar 0
LayerCount: 2
Back
Fore
SplineSet
64 48 m 1
 64 64 l 1
 16 64 16 64 16 56 c 0
 16 48 16 48 64 48 c 1
64 32 m 1
 16 32 16 32 16 0 c 1
 0 0 l 1
 0 36 6 40 24 40 c 1
 1 40 0 51 0 56 c 0
 0 76 11 80 64 80 c 2
 80 80 l 1
 80 0 l 1
 64 0 l 1
 64 32 l 1
EndSplineSet
Validated: 1
EndChar

StartChar: uni0454
Encoding: 1108 1108 438
Width: 96
Flags: W
HStem: 0 16<18.2861 61.7139> 32 16<16 48> 64 16<18.2861 61.7139>
VStem: 0 16<18.3394 32 48 61.6606> 64 16<18.4631 32 48 61.5369>
CounterMasks: 1 e0
AnchorPoint: "Top" 40 80 basechar 0
LayerCount: 2
Fore
SplineSet
40 0 m 0
 8 0 0 8 0 40 c 0
 0 72 8 80 40 80 c 0
 72 80 80 72 80 48 c 1
 64 48 l 1
 64 64 64 64 40 64 c 0
 16 64 16 64 16 48 c 1
 48 48 l 1
 48 32 l 1
 16 32 l 1
 16 16 16 16 40 16 c 0
 64 16 64 16 64 32 c 1
 80 32 l 1
 80 8 72 0 40 0 c 0
EndSplineSet
Validated: 1
EndChar

StartChar: uni0459
Encoding: 1113 1113 439
Width: 128
VWidth: 16000
Flags: W
HStem: 0 16<0 10.9977 64 94.437> 32 16<64 94.6299> 64 16<32 48>
VStem: 16 16<43 64> 48 16<16 32 48 64> 96 16<17.7099 30.4258>
CounterMasks: 1 e0
AnchorPoint: "Top" 40 80 basechar 0
LayerCount: 2
Back
Fore
SplineSet
0 16 m 1
 16 16 16 16 16 80 c 1
 64 80 l 1
 64 48 l 1
 108 48 112 40 112 24 c 0
 112 4 103 0 64 0 c 2
 48 0 l 1
 48 64 l 1
 32 64 l 1
 32 0 24 0 0 0 c 1
 0 16 l 1
64 32 m 1
 64 16 l 1
 96 16 96 16 96 24 c 0
 96 32 96 32 64 32 c 1
EndSplineSet
Validated: 1
EndChar

StartChar: uni045A
Encoding: 1114 1114 440
Width: 112
VWidth: 16000
Flags: W
HStem: 0 16<48 78.437> 32 16<16 32 48 78.6299>
VStem: 0 16<0 32 48 80> 32 16<16 32 48 80> 80 16<17.7099 30.4258>
AnchorPoint: "Top" 40 80 basechar 0
LayerCount: 2
Back
Fore
SplineSet
16 80 m 1
 16 48 l 1
 32 48 l 1
 32 80 l 1
 48 80 l 1
 48 48 l 1
 92 48 96 40 96 24 c 0
 96 4 87 0 48 0 c 2
 32 0 l 1
 32 32 l 1
 16 32 l 1
 16 0 l 1
 0 0 l 1
 0 80 l 1
 16 80 l 1
48 32 m 1
 48 16 l 1
 80 16 80 16 80 24 c 0
 80 32 80 32 48 32 c 1
EndSplineSet
Validated: 1
EndChar

StartChar: uni0306
Encoding: 774 774 442
Width: 80
Flags: W
HStem: 80 16<16.8088 47.1912> 92 20G<0 16 48 64>
VStem: 0 16<96.875 112> 48 16<96.875 112>
AnchorPoint: "Top" 32 64 mark 0
LayerCount: 2
Fore
SplineSet
32 80 m 0xb0
 8 80 0 88 0 112 c 1
 16 112 l 1x70
 16 96 16 96 32 96 c 3xb0
 48 96 48 96 48 112 c 1
 64 112 l 1x70
 64 88 56 80 32 80 c 0xb0
EndSplineSet
Validated: 1
EndChar

StartChar: uni0404
Encoding: 1028 1028 448
Width: 96
Flags: W
HStem: 0 16<19.1401 62.4913> 48 16<16 48> 80 21G<64 80> 96 16<19.1401 62.7295>
VStem: 0 16<19.3799 48 64 92.6201> 64 16<17.6587 32 80 94.3413>
LayerCount: 2
Fore
SplineSet
40 0 m 0xdc
 8 0 0 8 0 56 c 0
 0 104 8 112 40 112 c 0xdc
 72 112 80 104 80 80 c 1
 64 80 l 1xec
 64 96 64 96 40 96 c 0
 16 96 16 96 16 64 c 1
 48 64 l 1
 48 48 l 1
 16 48 l 1
 16 16 16 16 40 16 c 0
 64 16 64 16 64 32 c 1
 80 32 l 1
 80 8 73 0 40 0 c 0xdc
EndSplineSet
Validated: 1
EndChar

StartChar: Oslash
Encoding: 216 216 452
Width: 96
Flags: W
HStem: 0 16<32.5335 58.5233> 96 16<21.4767 47.4665>
VStem: 0 16<22.9889 90.2578> 64 16<21.7422 89.0111>
AnchorPoint: "Top" 40 112 basechar 0
LayerCount: 2
Back
Fore
SplineSet
40 112 m 0
 74 112 80 104 80 56 c 0
 80 8 74 0 40 0 c 0
 6 0 0 8 0 56 c 0
 0 104 6 112 40 112 c 0
40 16 m 0
 64 16 64 16 64 56 c 0
 64 75 64 85 64 90 c 1
 32 16 l 1
 34 16 37 16 40 16 c 0
48 96 m 1
 46 96 43 96 40 96 c 0
 16 96 16 96 16 56 c 0
 16 37 16 27 16 22 c 1
 48 96 l 1
EndSplineSet
Validated: 1
EndChar

StartChar: oslash
Encoding: 248 248 453
Width: 96
Flags: W
HStem: 0 16<32.7326 60.5938> 64 16<19.8281 47.2674>
VStem: 0 16<20.8369 60.1719> 64 16<19.4062 59.1631>
AnchorPoint: "Top" 40 80 basechar 0
LayerCount: 2
Back
Fore
SplineSet
40 80 m 0
 73 80 80 73 80 40 c 0
 80 6 74 0 40 0 c 0
 7 0 0 7 0 40 c 0
 0 73 7 80 40 80 c 0
40 16 m 0
 64 16 64 16 64 40 c 0
 64 51 64 57 64 60 c 1
 32 16 l 1
 34 16 37 16 40 16 c 0
48 64 m 1
 46 64 43 64 40 64 c 0
 16 64 16 64 16 40 c 0
 16 29 16 23 16 20 c 1
 48 64 l 1
EndSplineSet
Validated: 1
EndChar

StartChar: Thorn
Encoding: 222 222 454
Width: 96
VWidth: 16000
Flags: W
HStem: 0 21G<0 16> 0 21G<0 16> 32 16<16 62.9069> 64 16<16 62.9069> 92 20G<0 16>
VStem: 0 16<0 32 48 64 80 112> 64 16<49.5742 62.4258>
LayerCount: 2
Back
Fore
SplineSet
16 48 m 1x3e
 64 48 64 48 64 56 c 0
 64 64 64 64 16 64 c 1
 16 48 l 1x3e
0 0 m 1xbe
 0 112 l 1
 16 112 l 1
 16 80 l 1
 74 80 80 72 80 56 c 0
 80 40 74 32 16 32 c 1
 16 0 l 1
 0 0 l 1xbe
EndSplineSet
Validated: 1
EndChar

StartChar: eth
Encoding: 240 240 455
AltUni2: 001d9e.ffffffff.0
Width: 96
Flags: W
HStem: 0 16<16.3523 62.4913> 32 16<16.8337 64> 96 16<16 51.6414>
VStem: 0 16<16.8857 30.3566> 64 16<17.7246 32 48 72.3776>
LayerCount: 2
Back
Fore
SplineSet
40 16 m 0
 64 16 64 16 64 32 c 1
 16 32 16 32 16 24 c 0
 16 16 16 16 40 16 c 0
0 24 m 0
 0 48 8 48 64 48 c 1
 64 80 64 80 62 84 c 1
 32 64 l 1
 32 80 l 1
 52 92 l 1
 48 96 48 96 16 96 c 1
 16 112 l 1
 56 112 64 112 68 104 c 1
 80 112 l 1
 80 96 l 1
 74 92 l 1
 80 80 80 72 80 24 c 0
 80 8 73 0 40 0 c 0
 6 0 0 6 0 24 c 0
EndSplineSet
Validated: 1
EndChar

StartChar: uni018F
Encoding: 399 399 456
AltUni2: 0004d8.ffffffff.0
Width: 96
Flags: W
HStem: 0 16<20.5542 59.7393> 48 16<16 64> 96 16<18.2861 59.7393>
VStem: 0 16<27.2507 48 80 93.5369> 64 16<27.2507 48 64 90.6902>
CounterMasks: 1 e0
AnchorPoint: "Top" 40 112 basechar 0
LayerCount: 2
Back
Fore
SplineSet
40 0 m 0
 7 0 0 8 0 64 c 1
 64 64 l 1
 64 96 64 96 40 96 c 0
 16 96 16 96 16 80 c 1
 0 80 l 1
 0 104 8 112 40 112 c 0
 72 112 80 104 80 64 c 0
 80 8 72 0 40 0 c 0
16 48 m 1
 16 16 16 16 40 16 c 0
 64 16 64 16 64 48 c 1
 16 48 l 1
EndSplineSet
Validated: 1
EndChar

StartChar: uni0259
Encoding: 601 601 457
AltUni2: 0004d9.ffffffff.0 001d4a.ffffffff.0
Width: 96
Flags: W
HStem: 0 16<18.3977 61.4959> 32 16<16 64> 64 16<0 36.4225>
VStem: 0 16<19.1426 32> 64 16<18.3394 32 48 58.5449>
CounterMasks: 1 e0
AnchorPoint: "Top" 40 80 basechar 0
LayerCount: 2
Fore
SplineSet
0 80 m 1
 72 80 80 80 80 40 c 0
 80 8 71 0 40 0 c 0
 4 0 0 8 0 48 c 1
 64 48 l 1
 64 64 64 64 0 64 c 1
 0 80 l 1
64 32 m 1
 16 32 l 1
 16 16 16 16 40 16 c 0
 64 16 64 16 64 32 c 1
EndSplineSet
Validated: 1
EndChar

StartChar: uni04D8
Encoding: 1240 1240 481
Width: 96
Flags: W
HStem: 0 16<20.5542 59.7393> 48 16<16 64> 80 21G<0 16> 96 16<18.2861 59.7393>
VStem: 0 16<27.2507 48 80 93.5369> 64 16<27.2507 48 64 90.6902>
LayerCount: 2
Fore
SplineSet
40 0 m 4xdc
 7 0 0 8 0 64 c 5
 64 64 l 5
 64 96 64 96 40 96 c 4xdc
 16 96 16 96 16 80 c 5
 0 80 l 5xec
 0 104 8 112 40 112 c 4
 72 112 80 104 80 64 c 4
 80 8 72 0 40 0 c 4xdc
16 48 m 5
 16 16 16 16 40 16 c 4
 64 16 64 16 64 48 c 5
 16 48 l 5
EndSplineSet
Validated: 1
EndChar

StartChar: uni04D9
Encoding: 1241 1241 482
Width: 96
Flags: W
HStem: 0 16<18.3977 61.4959> 32 16<16 64> 64 16<0 36.4225>
VStem: 0 16<19.1426 32> 64 16<18.3394 32 48 58.5449>
CounterMasks: 1 e0
LayerCount: 2
Fore
SplineSet
0 80 m 1
 72 80 80 80 80 40 c 0
 80 8 71 0 40 0 c 0
 4 0 0 8 0 48 c 1
 64 48 l 1
 64 64 64 64 0 64 c 1
 0 80 l 1
64 32 m 1
 16 32 l 1
 16 16 16 16 40 16 c 0
 64 16 64 16 64 32 c 1
EndSplineSet
Validated: 1
EndChar

StartChar: uni04E8
Encoding: 1256 1256 485
Width: 96
Flags: W
HStem: 0 16<20.3481 59.6519> 48 16<16 64> 96 16<20.3481 59.6519>
VStem: 0 16<20.5394 48 64 91.4606> 64 16<20.5394 48 64 91.4606>
CounterMasks: 1 e0
AnchorPoint: "Top" 40 112 basechar 0
LayerCount: 2
Fore
SplineSet
40 112 m 0
 74 112 80 104 80 56 c 0
 80 8 74 0 40 0 c 0
 6 0 0 8 0 56 c 0
 0 104 6 112 40 112 c 0
64 48 m 1
 16 48 l 1
 16 16 16 16 40 16 c 0
 64 16 64 16 64 48 c 1
64 64 m 1
 64 96 64 96 40 96 c 0
 16 96 16 96 16 64 c 1
 64 64 l 1
EndSplineSet
Validated: 1
EndChar

StartChar: uni04E9
Encoding: 1257 1257 486
Width: 96
Flags: W
HStem: 0 16<18.5417 61.6732> 32 16<16 64> 64 16<18.5417 61.4583>
VStem: 0 16<18.8505 32 48 61.1495> 64 16<18.4207 32 48 61.1495>
CounterMasks: 1 e0
AnchorPoint: "Top" 40 80 basechar 0
LayerCount: 2
Back
Fore
SplineSet
40 80 m 0
 73 80 80 73 80 40 c 0
 80 6 74 0 40 0 c 0
 7 0 0 7 0 40 c 0
 0 73 7 80 40 80 c 0
64 32 m 1
 16 32 l 1
 16 16 16 16 40 16 c 0
 64 16 64 16 64 32 c 1
64 48 m 1
 64 64 64 64 40 64 c 0
 16 64 16 64 16 48 c 1
 64 48 l 1
EndSplineSet
Validated: 1
EndChar

StartChar: uni0182
Encoding: 386 386 500
Width: 96
VWidth: 16000
Flags: W
HStem: 0 16<16 56.5826> 64 16<16 57.0342> 96 16<16 80>
VStem: 0 16<16 64 80 96> 64 16<22.5134 57.7061>
LayerCount: 2
Fore
SplineSet
64 40 m 0
 64 64 57 64 16 64 c 1
 16 16 l 1
 57 16 64 16 64 40 c 0
80 112 m 2
 80 96 l 1
 16 96 l 1
 16 80 l 1
 72 80 80 72 80 40 c 0
 80 0 68 0 16 0 c 2
 0 0 l 1
 0 112 l 1
 80 112 l 2
EndSplineSet
Validated: 1
EndChar

StartChar: uni019F
Encoding: 415 415 502
Width: 96
Flags: W
HStem: 0 16<19.2031 60.7969> 48 16<16 64> 96 16<19.2031 60.7969>
VStem: 0 16<19.3799 48 64 92.6201> 64 16<19.3799 48 64 92.6201>
CounterMasks: 1 e0
LayerCount: 2
Back
Fore
SplineSet
40 112 m 0
 74 112 80 104 80 56 c 0
 80 8 74 0 40 0 c 0
 6 0 0 8 0 56 c 0
 0 104 6 112 40 112 c 0
64 48 m 1
 16 48 l 1
 16 16 16 16 40 16 c 0
 64 16 64 16 64 48 c 1
64 64 m 1
 64 96 64 96 40 96 c 0
 16 96 16 96 16 64 c 1
 64 64 l 1
EndSplineSet
Validated: 1
EndChar

StartChar: thorn
Encoding: 254 254 510
Width: 96
Flags: W
HStem: 16 16<16 55.457> 64 16<16 56.1013> 92 20G<0 16>
VStem: 0 16<-16 16 32 64 80 112> 64 16<38.277 57.723>
LayerCount: 2
Back
Fore
SplineSet
0 112 m 1
 16 112 l 1
 16 80 l 1
 73 80 80 64 80 48 c 0
 80 32 72 16 16 16 c 1
 16 -16 l 1
 0 -16 l 1
 0 112 l 1
16 64 m 1
 16 32 l 1
 64 32 64 40 64 48 c 0
 64 56 64 64 16 64 c 1
EndSplineSet
Validated: 1
EndChar

StartChar: germandbls
Encoding: 223 223 511
Width: 96
VWidth: 16000
Flags: W
HStem: 0 16<32 60.8574> 64 16<32 55.5868> 96 16<21.0501 63.4797>
VStem: 0 16<-16 32.3929> 64 16<18.9922 60.8359 81.1158 95.0025>
LayerCount: 2
Back
Fore
SplineSet
32 16 m 1
 64 16 64 16 64 40 c 0
 64 64 64 64 32 64 c 1
 32 80 l 1
 64 80 64 80 64 88 c 0
 64 96 64 96 33 96 c 0
 16 96 16 96 16 -16 c 1
 0 -16 l 1
 0 104 0 112 33 112 c 0
 72 112 80 104 80 88 c 0
 80 76 76 72 56 72 c 1
 80 72 80 64 80 40 c 0
 80 5 72 0 32 0 c 1
 32 16 l 1
EndSplineSet
Validated: 1
EndChar

StartChar: uni04D5
Encoding: 1237 1237 512
AltUni2: 0004d5.ffffffff.0
Width: 160
Flags: W
HStem: 0 16<26.8616 64 107 144> 32 16<27.2507 64 80 128> 64 16<16 52.8047 82.2596 125.602>
VStem: 0 16<18.1641 29.8359> 64 16<20.522 32 48 60.0938> 128 16<48 60.8574>
CounterMasks: 1 fc
AnchorPoint: "Top" 72 80 basechar 0
LayerCount: 2
Back
Fore
SplineSet
16 24 m 0
 16 16 16 16 64 16 c 1
 64 32 l 1
 16 32 16 32 16 24 c 0
80 48 m 1
 128 48 l 1
 128 64 128 64 104 64 c 0
 80 64 80 64 80 48 c 1
72 72 m 1
 80 80 88 80 104 80 c 0
 140 80 144 72 144 32 c 1
 80 32 l 1
 80 16 80 16 144 16 c 1
 144 0 l 1
 111 0 88 0 80 8 c 1
 80 0 l 1
 64 0 l 0
 7 0 0 8 0 24 c 0
 0 40 8 48 64 48 c 1
 64 64 64 64 16 64 c 1
 16 80 l 1
 56 80 64 80 72 72 c 1
EndSplineSet
Validated: 1
EndChar

StartChar: uni04D4
Encoding: 1236 1236 513
AltUni2: 001d2d.ffffffff.0 0004d4.ffffffff.0
Width: 160
VWidth: 112
Flags: W
HStem: 0 16<80 144> 64 16<16 64 80 112> 96 16<27.5311 64 80 144>
VStem: 0 16<0 64 80 91.6906> 64 16<16 64 80 96>
AnchorPoint: "Top" 72 112 basechar 0
LayerCount: 2
Back
Fore
SplineSet
0 0 m 1
 0 80 l 2
 0 112 12 112 64 112 c 2
 144 112 l 1
 144 96 l 1
 80 96 l 1
 80 80 l 1
 112 80 l 1
 112 64 l 1
 80 64 l 1
 80 16 l 1
 144 16 l 1
 144 0 l 1
 80 0 l 1
 64 0 l 1
 64 64 l 1
 16 64 l 1
 16 0 l 1
 0 0 l 1
64 80 m 1
 64 96 l 0
 16 96 16 96 16 80 c 1
 64 80 l 1
EndSplineSet
Validated: 1
EndChar

StartChar: uni0275
Encoding: 629 629 518
AltUni2: 001db1.ffffffff.0
Width: 96
Flags: W
HStem: 0 16<18.5417 61.6732> 32 16<16 64> 64 16<18.5417 61.4583>
VStem: 0 16<18.8505 32 48 61.1495> 64 16<18.4207 32 48 61.1495>
CounterMasks: 1 e0
AnchorPoint: "Top" 40 80 basechar 0
LayerCount: 2
Fore
SplineSet
40 80 m 4
 73 80 80 73 80 40 c 4
 80 6 74 0 40 0 c 4
 7 0 0 7 0 40 c 4
 0 73 7 80 40 80 c 4
64 32 m 5
 16 32 l 5
 16 16 16 16 40 16 c 4
 64 16 64 16 64 32 c 5
64 48 m 5
 64 64 64 64 40 64 c 4
 16 64 16 64 16 48 c 5
 64 48 l 5
EndSplineSet
Validated: 1
EndChar

StartChar: uni05D0
Encoding: 1488 1488 710
Width: 96
Flags: W
HStem: 0 21G<0 21 46 80>
VStem: 0 16<0 10.2283> 64 16<69.7717 80>
AnchorPoint: "Top" 40 80 basechar 0
LayerCount: 2
Back
Fore
SplineSet
58 28 m 1
 80 0 l 1
 62 0 l 1
 30 40 l 1
 26 40 26 40 16 0 c 1
 0 0 l 1
 10 41 14 52 22 52 c 1
 0 80 l 1
 18 80 l 1
 50 40 l 1
 54 40 54 40 64 80 c 1
 80 80 l 1
 70 39 66 28 58 28 c 1
EndSplineSet
Validated: 1
EndChar

StartChar: uni05D1
Encoding: 1489 1489 711
Width: 96
Flags: W
HStem: 0 16<0 48 64 80> 64 16<0 36.2812>
VStem: 48 16<16 52.2812>
AnchorPoint: "Top" 40 80 basechar 0
LayerCount: 2
Back
Fore
SplineSet
48 16 m 1
 48 64 48 64 0 64 c 1
 0 80 l 1
 56 80 64 76 64 16 c 1
 80 16 l 1
 80 0 l 1
 0 0 l 1
 0 16 l 1
 48 16 l 1
EndSplineSet
Validated: 1
EndChar

StartChar: uni05D2
Encoding: 1490 1490 712
Width: 80
Flags: W
HStem: 0 21G<0 16 48 64> 16 16<19.1426 48> 64 16<0 36.7493>
VStem: 0 16<0 12.7116> 48 16<0 14.082>
AnchorPoint: "Top" 40 80 basechar 0
LayerCount: 2
Back
Fore
SplineSet
0 80 m 1x78
 56 80 64 80 64 0 c 1
 48 0 l 1xb8
 48 16 l 1x78
 16 16 16 16 16 0 c 1
 0 0 l 1xb8
 0 24 8 32 48 32 c 1
 48 64 48 64 0 64 c 1
 0 80 l 1x78
EndSplineSet
Validated: 1
EndChar

StartChar: uni05D3
Encoding: 1491 1491 713
Width: 96
Flags: W
HStem: 0 21G<48 64> 64 16<0 48 64 80>
VStem: 48 16<0 64>
AnchorPoint: "Top" 40 80 basechar 0
LayerCount: 2
Back
Fore
SplineSet
0 80 m 1
 80 80 l 1
 80 64 l 1
 64 64 l 1
 64 0 l 1
 48 0 l 1
 48 64 l 1
 0 64 l 1
 0 80 l 1
EndSplineSet
Validated: 1
EndChar

StartChar: uni05D4
Encoding: 1492 1492 714
Width: 96
Flags: W
HStem: 0 21G<0 16 64 80> 64 16<0 64>
VStem: 0 16<0 48> 64 16<0 64>
AnchorPoint: "Top" 40 80 basechar 0
LayerCount: 2
Back
Fore
SplineSet
0 80 m 1
 80 80 l 1
 80 0 l 1
 64 0 l 1
 64 64 l 1
 0 64 l 1
 0 80 l 1
0 48 m 1
 16 48 l 1
 16 0 l 1
 0 0 l 1
 0 48 l 1
EndSplineSet
Validated: 1
EndChar

StartChar: uni05D5
Encoding: 1493 1493 715
Width: 32
Flags: W
HStem: 0 21G<0 16>
VStem: 0 16<0 80>
AnchorPoint: "Top" 40 80 basechar 0
LayerCount: 2
Back
Fore
SplineSet
0 80 m 1
 16 80 l 1
 16 0 l 1
 0 0 l 1
 0 80 l 1
EndSplineSet
Validated: 1
EndChar

StartChar: uni05D6
Encoding: 1494 1494 716
Width: 64
Flags: W
HStem: 0 21G<16 32> 64 16<0 16 32 48>
VStem: 16 16<0 64>
AnchorPoint: "Top" 40 80 basechar 0
LayerCount: 2
Back
Fore
SplineSet
0 80 m 1
 48 80 l 1
 48 64 l 1
 32 64 l 1
 32 0 l 1
 16 0 l 1
 16 64 l 1
 0 64 l 1
 0 80 l 1
EndSplineSet
Validated: 1
EndChar

StartChar: uni05D7
Encoding: 1495 1495 717
Width: 96
Flags: W
HStem: 0 21G<0 16 64 80> 64 16<16 49.6285>
VStem: 0 16<0 64> 64 16<0 36.4225>
AnchorPoint: "Top" 40 80 basechar 0
LayerCount: 2
Back
Fore
SplineSet
16 64 m 1
 16 0 l 1
 0 0 l 1
 0 80 l 1
 16 80 l 2
 76 80 80 72 80 0 c 1
 64 0 l 1
 64 64 64 64 16 64 c 1
EndSplineSet
Validated: 1
EndChar

StartChar: uni05D8
Encoding: 1496 1496 718
Width: 96
Flags: W
HStem: 0 16<22.8617 60.6518> 64 16<32 59.1261>
VStem: 0 16<43.5775 80> 64 16<19.3482 59.4458>
AnchorPoint: "Top" 40 80 basechar 0
LayerCount: 2
Back
Fore
SplineSet
40 0 m 0
 4 0 0 8 0 80 c 1
 16 80 l 1
 16 16 16 16 40 16 c 0
 64 16 64 16 64 40 c 0
 64 64 64 64 32 64 c 1
 32 80 l 1
 73 80 80 73 80 40 c 0
 80 6 74 0 40 0 c 0
EndSplineSet
Validated: 1
EndChar

StartChar: uni05D9
Encoding: 1497 1497 719
Width: 32
Flags: W
HStem: 48 32<0 16>
VStem: 0 16<48 80>
AnchorPoint: "Top" 40 80 basechar 0
LayerCount: 2
Back
Fore
SplineSet
0 80 m 1
 16 80 l 1
 16 48 l 1
 0 48 l 1
 0 80 l 1
EndSplineSet
Validated: 1
EndChar

StartChar: uni05DB
Encoding: 1499 1499 720
Width: 96
Flags: W
HStem: 0 16<0 36.4225> 64 16<0 36.4225>
VStem: 64 16<23.0598 56.9402>
AnchorPoint: "Top" 40 80 basechar 0
LayerCount: 2
Back
Fore
SplineSet
0 0 m 0
 0 16 l 0
 64 16 64 16 64 40 c 0
 64 64 64 64 0 64 c 0
 0 80 l 0
 72 80 80 72 80 40 c 0
 80 8 72 0 0 0 c 0
EndSplineSet
Validated: 1
EndChar

StartChar: uni05DC
Encoding: 1500 1500 721
Width: 96
Flags: W
HStem: 0 21G<32 48> 17 15<48 58.3047> 64 16<16 64>
VStem: 0 16<80 96> 32 16<0 17> 64 16<42.773 64>
CounterMasks: 1 1c
AnchorPoint: "Top" 40 80 basechar 0
LayerCount: 2
Back
Fore
SplineSet
0 96 m 1x7c
 16 96 l 1
 16 80 l 1
 80 80 l 1
 80 32 76 17 48 17 c 1x7c
 48 0 l 1
 32 0 l 1xbc
 32 32 l 1
 64 32 64 32 64 64 c 1
 0 64 l 1
 0 96 l 1x7c
EndSplineSet
Validated: 1
EndChar

StartChar: uni05DE
Encoding: 1502 1502 722
Width: 96
Flags: W
HStem: 0 16<48 64> 64 16<31.0674 59.9795>
VStem: 64 16<16 37.0898>
AnchorPoint: "Top" 40 80 basechar 0
LayerCount: 2
Back
Fore
SplineSet
0 80 m 1
 16 80 l 1
 20 72 l 1
 26 76 34 80 48 80 c 0
 72 80 80 80 80 0 c 1
 48 0 l 1
 48 16 l 1
 64 16 l 1
 64 64 64 64 48 64 c 0
 25 64 25 64 16 0 c 1
 0 0 l 1
 8 56 l 1
 0 80 l 1
EndSplineSet
Validated: 1
EndChar

StartChar: uni05DD
Encoding: 1501 1501 723
Width: 96
Flags: W
HStem: 0 16<16 64> 64 16<16 52.2812>
VStem: 0 16<16 64> 64 16<16 52.2812>
AnchorPoint: "Top" 40 80 basechar 0
LayerCount: 2
Back
Fore
SplineSet
0 0 m 1
 0 80 l 1
 16 80 l 2
 72 80 80 72 80 16 c 2
 80 0 l 1
 0 0 l 1
16 16 m 1
 64 16 l 1
 64 64 64 64 16 64 c 1
 16 16 l 1
EndSplineSet
Validated: 1
EndChar

StartChar: uni05E0
Encoding: 1504 1504 724
Width: 64
Flags: W
HStem: 0 16<0 32> 64 16<0 24.1875>
VStem: 32 16<16 52.7493>
AnchorPoint: "Top" 40 80 basechar 0
LayerCount: 2
Back
Fore
SplineSet
32 16 m 1
 32 64 32 64 0 64 c 1
 0 80 l 1
 40 80 48 72 48 16 c 2
 48 0 l 1
 0 0 l 1
 0 16 l 1
 32 16 l 1
EndSplineSet
Validated: 1
EndChar

StartChar: uni05DF
Encoding: 1503 1503 725
Width: 32
Flags: W
VStem: 0 16<-16 80>
AnchorPoint: "Top" 40 80 basechar 0
LayerCount: 2
Back
Fore
SplineSet
0 80 m 1
 16 80 l 1
 16 -16 l 1
 0 -16 l 1
 0 80 l 1
EndSplineSet
Validated: 1
EndChar

StartChar: uni05E1
Encoding: 1505 1505 726
Width: 96
Flags: W
HStem: 0 16<22.2881 60.6518> 64 16<16 36.4225>
VStem: 0 16<43.5775 64> 64 16<19.3482 57.7119>
AnchorPoint: "Top" 40 80 basechar 0
LayerCount: 2
Back
Fore
SplineSet
40 16 m 0
 64 16 64 16 64 40 c 0
 64 64 64 64 16 64 c 1
 16 16 16 16 40 16 c 0
80 40 m 0
 80 6 74 0 40 0 c 0
 0 0 0 8 0 80 c 1
 72 80 80 80 80 40 c 0
EndSplineSet
Validated: 1
EndChar

StartChar: uni05E2
Encoding: 1506 1506 727
Width: 96
Flags: W
VStem: 16 16<43.6105 80> 64 16<44.7383 80>
AnchorPoint: "Top" 40 80 basechar 0
LayerCount: 2
Back
Fore
SplineSet
16 80 m 1
 32 80 l 1
 32 16 32 16 56 16 c 0
 64 16 64 16 64 80 c 1
 80 80 l 1
 80 4 72 4 56 0 c 2
 0 -16 l 1
 0 0 l 1
 32 8 l 1
 16 8 16 16 16 80 c 1
EndSplineSet
Validated: 1
EndChar

StartChar: uni05E4
Encoding: 1508 1508 728
Width: 96
Flags: W
HStem: 0 16<0 36.4225> 32 16<19.0106 48> 64 16<16 36.4225>
VStem: 0 16<51.1426 64> 64 16<22.7499 57.7119>
CounterMasks: 1 e0
AnchorPoint: "Top" 40 80 basechar 0
LayerCount: 2
Back
Fore
SplineSet
80 40 m 0
 80 0 72 0 0 0 c 1
 0 16 l 1
 64 16 64 16 64 40 c 0
 64 64 64 64 16 64 c 1
 16 48 16 48 48 48 c 1
 48 32 l 1
 0 32 0 40 0 80 c 1
 72 80 80 80 80 40 c 0
EndSplineSet
Validated: 1
EndChar

StartChar: uni05E3
Encoding: 1507 1507 729
Width: 96
Flags: W
HStem: 32 16<18.1735 32> 64 16<16 36.4225>
VStem: 0 16<50.1131 64> 64 16<-16 19.0717>
AnchorPoint: "Top" 40 80 basechar 0
LayerCount: 2
Back
Fore
SplineSet
64 -16 m 0
 64 64 64 64 16 64 c 1
 16 48 16 48 32 48 c 1
 32 32 l 1
 0 32 0 40 0 80 c 1
 72 80 80 80 80 -16 c 0
 64 -16 l 0
EndSplineSet
Validated: 1
EndChar

StartChar: uni05E6
Encoding: 1510 1510 730
Width: 96
Flags: W
HStem: 0 16<0 44> 32 16<48 58.1086>
VStem: 64 16<54.0189 80>
AnchorPoint: "Top" 40 80 basechar 0
LayerCount: 2
Back
Fore
SplineSet
80 0 m 1
 0 0 l 1
 0 16 l 1
 44 16 l 1
 0 60 l 1
 0 80 l 1
 32 48 l 1
 64 48 64 48 64 80 c 1
 80 80 l 1
 80 39 72 32 48 32 c 1
 80 0 l 1
EndSplineSet
Validated: 1
EndChar

StartChar: uni05E5
Encoding: 1509 1509 731
Width: 96
Flags: W
HStem: 32 16<48 60.6079> 64 16<0 25.3125>
VStem: 32 16<-16 32 48 58.1086> 64 16<50.9772 80>
AnchorPoint: "Top" 40 80 basechar 0
LayerCount: 2
Back
Fore
SplineSet
32 32 m 2
 32 64 32 64 0 64 c 1
 0 80 l 1
 32 80 48 72 48 48 c 1
 64 48 64 48 64 80 c 1
 80 80 l 1
 80 39 74 33 48 32 c 1
 48 -16 l 1
 32 -16 l 1
 32 32 l 2
EndSplineSet
Validated: 1
EndChar

StartChar: uni05E7
Encoding: 1511 1511 732
Width: 96
Flags: W
HStem: 0 21G<32 48> 32 16<49.7246 62.8338> 64 16<0 64>
VStem: 0 16<-16 48> 32 16<0 30.1772> 64 16<49.1641 64>
CounterMasks: 1 1c
AnchorPoint: "Top" 40 80 basechar 0
LayerCount: 2
Back
Fore
SplineSet
0 48 m 1
 16 48 l 1
 16 -16 l 1
 0 -16 l 1
 0 48 l 1
64 64 m 1
 0 64 l 1
 0 80 l 1
 80 80 l 1
 80 64 l 2
 80 32 70 32 56 32 c 0
 48 32 48 32 48 0 c 1
 32 0 l 1
 32 48 40 48 56 48 c 0
 64 48 64 48 64 64 c 1
EndSplineSet
Validated: 1
EndChar

StartChar: uni05E8
Encoding: 1512 1512 733
Width: 96
Flags: W
HStem: 0 21G<64 80> 64 16<0 36.4225>
VStem: 64 16<0 36.4225>
AnchorPoint: "Top" 40 80 basechar 0
LayerCount: 2
Back
Fore
SplineSet
0 64 m 1
 0 80 l 1
 72 80 80 72 80 0 c 1
 64 0 l 1
 64 64 64 64 0 64 c 1
EndSplineSet
Validated: 1
EndChar

StartChar: uni05E9
Encoding: 1513 1513 734
Width: 96
Flags: W
HStem: 0 16<27 64> 32 16<16 28.7116>
VStem: 0 16<20.1348 32 48 80> 32 16<51.1426 80> 64 16<16 80>
CounterMasks: 1 38
AnchorPoint: "Top" 40 80 basechar 0
LayerCount: 2
Back
Fore
SplineSet
64 16 m 1
 64 80 l 1
 80 80 l 1
 80 0 l 1
 64 0 l 2
 0 0 0 8 0 32 c 1
 0 80 l 1
 16 80 l 1
 16 48 l 1
 32 48 32 48 32 80 c 1
 48 80 l 1
 48 40 40 32 16 32 c 1
 16 16 16 16 64 16 c 1
EndSplineSet
Validated: 1
EndChar

StartChar: uni05EA
Encoding: 1514 1514 735
Width: 96
Flags: W
HStem: 0 16<0 16> 64 16<0 16 32 54.9561>
VStem: 16 16<16 64> 64 16<0 36.4225>
AnchorPoint: "Top" 40 80 basechar 0
LayerCount: 2
Back
Fore
SplineSet
0 64 m 1
 0 80 l 1
 32 80 l 2
 72 80 80 72 80 0 c 1
 64 0 l 1
 64 64 64 64 32 64 c 1
 32 0 l 1
 0 0 l 1
 0 16 l 1
 16 16 l 1
 16 64 l 1
 0 64 l 1
EndSplineSet
Validated: 1
EndChar

StartChar: uni2620
Encoding: 9760 9760 736
Width: 128
Flags: W
HStem: 0 32<48 64> 24 24<32.6699 47.2557 64.7443 79.3301> 80 32<16.9651 95.0349>
VStem: 0 16<48.9533 78.6738> 16 16<0 23.8418> 48 16<0 23.8418 48.7426 79.2574> 80 16<0 23.8418> 96 16<48.9533 78.6738>
LayerCount: 2
Back
Fore
SplineSet
48 32 m 0xa4
 64 32 l 0xa4
 64 48 64 48 56 48 c 0x64
 48 48 48 48 48 32 c 0xa4
96 64 m 4x65
 96 80 96 80 80 80 c 4
 64 80 64 80 64 64 c 4
 64 48 64 48 80 48 c 4x66
 96 48 96 48 96 64 c 4x65
48 64 m 4
 48 80 48 80 32 80 c 4x6c
 16 80 16 80 16 64 c 4x74
 16 48 16 48 32 48 c 4x6c
 48 48 48 48 48 64 c 4
0 64 m 0xb4
 0 112 8 112 56 112 c 0
 104 112 112 112 112 64 c 0
 112 32 112 32 96 32 c 1xb5
 96 0 l 1
 80 0 l 1xa6
 80 24 80 24 72 24 c 0x66
 64 24 64 24 64 0 c 1
 48 0 l 1xa6
 48 24 48 24 40 24 c 0x66
 32 24 32 24 32 0 c 1
 16 0 l 1
 16 32 l 1xae
 0 32 0 32 0 64 c 0xb4
EndSplineSet
Validated: 1
EndChar

StartChar: uni2694
Encoding: 9876 9876 737
Width: 128
HStem: 0 21G<0 22 22 48 64 90 90 112> 0 21G<0 22 22 48 64 90 90 112> 92 20G<0 36 76 112>
LayerCount: 2
Back
Fore
SplineSet
12 0 m 1xa0
 0 12 l 1
 10 22 l 1
 0 32 l 0
 0 48 l 1
 16 32 l 1
 40 56 l 1
 0 96 l 1
 0 112 l 1
 16 112 l 1
 56 72 l 1
 96 112 l 1
 112 112 l 1
 112 96 l 1
 72 56 l 1
 96 32 l 1
 112 48 l 1
 112 32 l 0
 102 22 l 1
 112 12 l 0
 100 0 l 0
 90 10 l 1
 80 0 l 0
 64 0 l 1
 80 16 l 1
 56 40 l 1
 32 16 l 1
 48 0 l 1
 32 0 l 0
 22 10 l 1
 12 0 l 1xa0
EndSplineSet
Validated: 1
EndChar

StartChar: uni2600
Encoding: 9728 9728 738
Width: 144
Flags: W
HStem: -16 26<56 72> 40 16<0 26 102 128> 86 26<56 72>
VStem: 0 26<40 56> 56 16<-16 10 86 112> 102 26<40 56>
CounterMasks: 1 fc
LayerCount: 2
Back
Fore
SplineSet
72 86 m 5
 56 86 l 5
 56 112 l 5
 72 112 l 5
 72 86 l 5
72 -16 m 1
 56 -16 l 1
 56 10 l 1
 72 10 l 1
 72 -16 l 1
102 40 m 1
 102 56 l 1
 128 56 l 1
 128 40 l 1
 102 40 l 1
0 40 m 1
 0 56 l 1
 26 56 l 1
 26 40 l 1
 0 40 l 1
112 -12 m 1
 88 12 l 1
 100 24 l 1
 124 0 l 1
 112 -12 l 1
124 96 m 5
 100 72 l 5
 88 84 l 5
 112 108 l 5
 124 96 l 5
16 -12 m 1
 4 0 l 1
 28 24 l 1
 40 12 l 1
 16 -12 l 1
5 97 m 5
 17 109 l 5
 41 85 l 5
 29 73 l 5
 5 97 l 5
64 80 m 0
 89 80 96 73 96 48 c 0
 96 22 89 16 64 16 c 0
 39 16 32 23 32 48 c 0
 32 73 39 80 64 80 c 0
EndSplineSet
Validated: 1
EndChar

StartChar: uni26C6
Encoding: 9926 9926 739
Width: 144
Flags: W
HStem: -16 24<28 36 60 68 92 100> 16 16<18.4645 109.316> 64 16<20.25 40> 96 16<59.1401 93.7684>
VStem: 0 16<35.0347 59.9795> 40 16<80 92.7116> 96 16<80 94.3413> 112 16<35.0347 63.1912>
LayerCount: 2
Back
Fore
SplineSet
92 8 m 1xfd
 112 8 l 1
 100 -16 l 1
 80 -16 l 1
 92 8 l 1xfd
60 8 m 1
 80 8 l 1
 68 -16 l 1
 48 -16 l 1
 60 8 l 1
28 8 m 1
 48 8 l 1
 36 -16 l 1
 16 -16 l 1
 28 8 l 1
0 48 m 4
 0 72 8 80 40 80 c 5
 40 104 48 112 80 112 c 4
 104 112 112 104 112 80 c 5xfe
 120 80 128 72 128 48 c 4
 128 16 120 16 64 16 c 4
 7 16 0 16 0 48 c 4
56 64 m 5
 24 64 16 64 16 48 c 4
 16 32 16 32 64 32 c 4
 112 32 112 32 112 48 c 4xfd
 112 64 112 64 96 64 c 5
 96 96 96 96 80 96 c 4
 56 96 56 96 56 64 c 5
EndSplineSet
Validated: 1
EndChar

StartChar: uni26C8
Encoding: 9928 9928 740
Width: 144
Flags: W
HStem: 16 16<30.0296 76 98 110.738> 64 16<20.25 40> 96 16<59.1401 93.7684>
VStem: 0 16<35.8293 59.9795> 40 16<80 92.7116> 96 16<80 94.3413> 112 16<32.9946 63.1912>
LayerCount: 2
Back
Fore
SplineSet
56 64 m 1xfc
 24 64 16 64 16 48 c 0
 16 32 16 32 78 32 c 1
 64 48 l 1
 84 48 l 1
 98 32 l 1
 111 32 112 32 112 48 c 0xfa
 112 64 112 64 96 64 c 1
 96 96 96 96 80 96 c 0
 56 96 56 96 56 64 c 1xfc
0 48 m 0
 0 72 8 80 40 80 c 1
 40 104 48 112 80 112 c 0
 104 112 112 104 112 80 c 1xfc
 120 80 128 72 128 48 c 0xfa
 128 23 123 16 96 16 c 1xfc
 80 0 l 1
 92 -16 l 1
 72 -16 l 1
 60 0 l 1
 76 16 l 1
 8 16 0 16 0 48 c 0
EndSplineSet
Validated: 1
EndChar

StartChar: female
Encoding: 9792 9792 741
Width: 64
Flags: W
HStem: 0 21G<16 32> 0 21G<16 32> 16 16<0 16 32 48> 80 16<16.2559 31.7441>
VStem: 0 16<64.2559 79.7441> 16 16<0 16 32 48> 32 16<64.2559 79.7441>
LayerCount: 2
Back
Fore
SplineSet
0 72 m 0x38
 0 88 8 96 24 96 c 0
 40 96 48 88 48 72 c 0x3a
 48 56 40 48 32 48 c 1
 32 32 l 1x34
 48 32 l 1
 48 16 l 1x32
 32 16 l 1x34
 32 0 l 1
 16 0 l 1x94
 16 16 l 1x34
 0 16 l 1
 0 32 l 1x38
 16 32 l 1
 16 48 l 1x34
 8 48 0 56 0 72 c 0x38
16 72 m 0
 16 64 16 64 24 64 c 0
 32 64 32 64 32 72 c 0
 32 80 32 80 24 80 c 0
 16 80 16 80 16 72 c 0
EndSplineSet
Validated: 1
EndChar

StartChar: male
Encoding: 9794 9794 742
Width: 96
Flags: W
HStem: 16 16<16.2559 31.9346> 48 16<16.1852 31.9473> 80 16<32 54>
VStem: 0 16<32.2559 47.9346> 32 16<32.1852 47.9473> 64 16<48 70>
CounterMasks: 1 fc
LayerCount: 2
Back
Fore
SplineSet
80 96 m 1
 80 48 l 1
 64 48 l 1
 64 70 l 1
 48 54 l 5
 48 30 48 16 24 16 c 4
 8 16 0 24 0 40 c 4
 0 64 14 64 38 64 c 5
 54 80 l 1
 32 80 l 1
 32 96 l 1
 80 96 l 1
16 40 m 4
 16 32 16 32 24 32 c 4
 32 32 32 32 32 40 c 4
 32 48 32 48 24 48 c 4
 16 48 16 48 16 40 c 4
EndSplineSet
Validated: 1
EndChar

StartChar: uni26A5
Encoding: 9893 9893 743
Width: 96
Flags: W
HStem: 0 16<0 16 32 48> 64 16<16.1852 31.9473> 96 16<32 54>
VStem: 0 16<48.2559 63.9346> 16 16<-16 0 16 32> 32 16<48.7318 63.9473> 64 16<64 86>
LayerCount: 2
Back
Fore
SplineSet
48 70 m 1xf6
 48 40 44 32 32 32 c 1
 32 16 l 1xea
 48 16 l 1
 48 0 l 1xe6
 32 0 l 1
 32 -16 l 1
 16 -16 l 1
 16 0 l 1xea
 0 0 l 1
 0 16 l 1xf2
 16 16 l 1
 16 32 l 1xea
 8 32 0 40 0 56 c 0
 0 80 14 80 38 80 c 1
 54 96 l 1
 32 96 l 1
 32 112 l 1
 80 112 l 1
 80 64 l 1
 64 64 l 1
 64 86 l 1
 48 70 l 1xf6
16 56 m 0xf6
 16 48 16 48 24 48 c 0
 32 48 32 48 32 56 c 0
 32 64 32 64 24 64 c 0
 16 64 16 64 16 56 c 0xf6
EndSplineSet
Validated: 1
EndChar

StartChar: uni26CF
Encoding: 9935 9935 744
Width: 128
Flags: W
HStem: 0 21G<0 32> 0 21G<0 32> 96 16<32 66.2046>
VStem: 96 16<32 66.2046>
LayerCount: 2
Back
Fore
SplineSet
32 112 m 1xb0
 88 112 112 88 112 32 c 1
 96 32 l 1
 96 55 92 68 88 76 c 1
 12 0 l 0
 0 12 l 0
 76 88 l 1
 68 92 56 96 32 96 c 1
 32 112 l 1xb0
EndSplineSet
Validated: 1
EndChar

StartChar: uni0531
Encoding: 1329 1329 746
Width: 96
Flags: W
HStem: 0 16<24.5906 52.4655>
VStem: 0 16<76.9283 112> 64 16<76.1782 112>
AnchorPoint: "Top" 40 112 basechar 0
LayerCount: 2
Back
Fore
SplineSet
80 112 m 0
 80 32 76 30 72 22 c 1
 80 18 l 1
 80 0 l 1
 64 8 l 1
 56 0 48 0 40 0 c 0
 6 0 0 4 0 112 c 0
 16 112 l 0
 16 16 16 16 40 16 c 0
 64 16 64 32 64 112 c 1
 80 112 l 0
EndSplineSet
Validated: 1
EndChar

StartChar: uni0532
Encoding: 1330 1330 747
Width: 96
Flags: W
HStem: 0 21G<0 16> 32 16<16 80> 96 16<22.0686 59.7393>
VStem: 0 16<0 32 48 84.7493> 64 16<64 90.6902>
AnchorPoint: "Top" 40 112 basechar 0
LayerCount: 2
Back
Fore
SplineSet
40 112 m 0
 72 112 80 104 80 64 c 1
 64 64 l 1
 64 96 64 96 40 96 c 0
 16 96 16 96 16 48 c 1
 80 48 l 1
 80 32 l 1
 16 32 l 1
 16 0 l 1
 0 0 l 1
 0 48 l 2
 0 104 8 112 40 112 c 0
EndSplineSet
Validated: 1
EndChar

StartChar: uni0533
Encoding: 1331 1331 748
Width: 112
Flags: W
HStem: 0 21G<64 80> 32 16<27.2507 64 80 96> 96 16<19.5517 58.4922>
VStem: 0 16<54.0686 92.0758> 64 16<0 32 48 84.7493>
AnchorPoint: "Top" 40 112 basechar 0
LayerCount: 2
Back
Fore
SplineSet
80 32 m 1
 80 0 l 1
 64 0 l 1
 64 32 l 1
 8 32 0 40 0 72 c 0
 0 104 8 112 41 112 c 0
 73 112 80 104 80 48 c 1
 96 48 l 1
 96 32 l 1
 80 32 l 1
64 48 m 1
 64 96 64 96 41 96 c 0
 16 96 16 96 16 72 c 0
 16 48 16 48 64 48 c 1
EndSplineSet
Validated: 1
EndChar

StartChar: uni0534
Encoding: 1332 1332 749
Width: 112
Flags: W
HStem: 0 21G<64 80> 32 16<80 96> 96 16<22.0686 57.9314>
VStem: 0 16<48 84.7493> 64 16<0 32 48 84.7493>
AnchorPoint: "Top" 40 112 basechar 0
LayerCount: 2
Back
Fore
SplineSet
40 112 m 0
 72 112 80 104 80 48 c 1
 96 48 l 1
 96 32 l 1
 80 32 l 1
 80 0 l 1
 64 0 l 1
 64 48 l 2
 64 96 64 96 40 96 c 0
 16 96 16 96 16 48 c 1
 0 48 l 1
 0 104 8 112 40 112 c 0
EndSplineSet
Validated: 1
EndChar

StartChar: uni0535
Encoding: 1333 1333 750
Width: 96
Flags: W
HStem: 0 16<22.0686 61.7139> 64 16<16 80>
VStem: 0 16<27.2507 64 80 112> 64 16<18.4631 32>
AnchorPoint: "Top" 40 112 basechar 0
LayerCount: 2
Back
Fore
SplineSet
40 0 m 0
 8 0 0 8 0 64 c 2
 0 112 l 1
 16 112 l 1
 16 80 l 1
 80 80 l 1
 80 64 l 1
 16 64 l 1
 16 16 16 16 40 16 c 0
 64 16 64 16 64 32 c 1
 80 32 l 1
 80 8 72 0 40 0 c 0
EndSplineSet
Validated: 1
EndChar

StartChar: uni0536
Encoding: 1334 1334 751
Width: 96
Flags: W
HStem: 0 16<16 47.9035 66 80> 96 16<18.5041 59.7393>
VStem: 0 16<16 32 80 93.0985> 64 16<36.6535 91.1517>
AnchorPoint: "Top" 40 112 basechar 0
LayerCount: 2
Back
Fore
SplineSet
80 0 m 1
 0 0 l 1
 0 32 l 1
 16 32 l 1
 16 16 l 1
 46 16 l 1
 60 32 64 32 64 64 c 0
 64 96 64 96 40 96 c 0
 16 96 16 96 16 80 c 1
 0 80 l 1
 0 105 9 112 40 112 c 0
 72 112 80 104 80 64 c 0
 80 24 70 20 66 16 c 1
 80 16 l 1
 80 0 l 1
EndSplineSet
Validated: 1
EndChar

StartChar: uni0537
Encoding: 1335 1335 752
Width: 96
Flags: W
HStem: 0 16<16 80> 64 16<16 80>
VStem: 0 16<16 64 80 112>
AnchorPoint: "Top" 40 112 basechar 0
LayerCount: 2
Back
Fore
SplineSet
0 0 m 1
 0 112 l 1
 16 112 l 1
 16 80 l 1
 80 80 l 1
 80 64 l 1
 16 64 l 1
 16 16 l 0
 80 16 l 1
 80 0 l 1
 0 0 l 1
EndSplineSet
Validated: 1
EndChar

StartChar: uni0538
Encoding: 1336 1336 753
Width: 96
Flags: W
HStem: 0 16<16 80> 96 16<23.5677 61.7139>
VStem: 0 16<16 53.0001> 64 16<80 93.5369>
AnchorPoint: "Top" 40 112 basechar 0
LayerCount: 2
Back
Fore
SplineSet
40 112 m 0
 72 112 80 104 80 80 c 1
 64 80 l 1
 64 96 64 96 40 96 c 0
 16 96 16 96 16 16 c 1
 80 16 l 1
 80 0 l 1
 0 0 l 1
 0 16 l 2
 0 108 8 112 40 112 c 0
EndSplineSet
Validated: 1
EndChar

StartChar: uni0539
Encoding: 1337 1337 754
Width: 112
Flags: W
HStem: 0 16<49.8446 77.1552> 48 16<51.1426 80> 96 16<27.1776 74.1836>
VStem: 0 16<0 35.0717> 32 16<17.5737 44.932> 80 16<27.2507 48 64 90.0625>
CounterMasks: 1 e0
AnchorPoint: "Top" 40 112 basechar 0
LayerCount: 2
Back
Fore
SplineSet
48 96 m 0
 16 96 16 96 16 0 c 1
 0 0 l 1
 0 108 4 112 48 112 c 0
 92 112 96 108 96 64 c 0
 96 8 92 0 65 0 c 0
 40 0 32 8 32 32 c 0
 32 56 40 64 80 64 c 1
 80 96 80 96 48 96 c 0
80 48 m 1
 48 48 48 48 48 32 c 0
 48 16 48 16 65 16 c 0
 80 16 80 16 80 48 c 1
EndSplineSet
Validated: 1
EndChar

StartChar: uni053A
Encoding: 1338 1338 755
Width: 112
Flags: W
HStem: 0 16<19.5517 58.4922> 64 16<27.2507 64 80 96>
VStem: 0 16<19.9242 57.9314> 64 16<27.2507 64 80 112>
AnchorPoint: "Top" 40 112 basechar 0
LayerCount: 2
Back
Fore
SplineSet
80 80 m 1
 96 80 l 1
 96 64 l 1
 80 64 l 1
 80 8 73 0 41 0 c 0
 8 0 0 8 0 40 c 0
 0 72 8 80 64 80 c 1
 64 112 l 1
 80 112 l 1
 80 80 l 1
64 64 m 1
 16 64 16 64 16 40 c 0
 16 16 16 16 41 16 c 0
 64 16 64 16 64 64 c 1
EndSplineSet
Validated: 1
EndChar

StartChar: uni053B
Encoding: 1339 1339 756
Width: 96
Flags: W
HStem: 0 21G<0 16> 64 16<16 51.3125>
VStem: 0 16<0 64 80 112> 64 16<16 52.2812>
AnchorPoint: "Top" 40 112 basechar 0
LayerCount: 2
Back
Fore
SplineSet
16 80 m 1
 76 80 80 68 80 16 c 1
 64 16 l 1
 64 64 64 64 16 64 c 1
 16 0 l 1
 0 0 l 1
 0 112 l 1
 16 112 l 1
 16 80 l 1
EndSplineSet
Validated: 1
EndChar

StartChar: uni053C
Encoding: 1340 1340 757
Width: 80
Flags: W
HStem: 0 16<16 64>
VStem: 0 16<16 112>
AnchorPoint: "Top" 40 112 basechar 0
LayerCount: 2
Back
Fore
SplineSet
0 112 m 1
 16 112 l 1
 16 16 l 1
 64 16 l 1
 64 0 l 1
 0 0 l 1
 0 112 l 1
EndSplineSet
Validated: 1
EndChar

StartChar: uni053D
Encoding: 1341 1341 758
Width: 112
Flags: W
HStem: 0 16<52.5392 75.0203> 64 16<16 32>
VStem: 0 16<0 64 80 112> 32 16<43 64> 80 16<43.5775 80>
AnchorPoint: "Top" 40 112 basechar 0
LayerCount: 2
Back
Fore
SplineSet
0 112 m 1
 16 112 l 1
 16 80 l 1
 48 80 l 1
 48 16 48 16 64 16 c 0
 80 16 80 16 80 80 c 1
 96 80 l 1
 96 8 96 0 64 0 c 0
 36 0 32 8 32 64 c 1
 16 64 l 1
 16 0 l 1
 0 0 l 1
 0 112 l 1
EndSplineSet
Validated: 1
EndChar

StartChar: uni053E
Encoding: 1342 1342 759
Width: 96
Flags: W
HStem: 0 16<19.2852 60.7148> 96 16<55.6706 80>
VStem: 0 16<19.2852 52.5059> 64 16<19.2852 52.3289>
AnchorPoint: "Top" 40 112 basechar 0
LayerCount: 2
Back
Fore
SplineSet
48 84 m 1
 64 73 80 64 80 40 c 0
 80 8 72 0 40 0 c 0
 8 0 0 8 0 40 c 0
 0 64 12 68 24 80 c 1
 0 96 l 1
 0 112 l 1
 32 92 l 1
 48 112 48 112 80 112 c 1
 80 96 l 1
 56 96 56 96 48 84 c 1
16 40 m 0
 16 16 16 16 40 16 c 0
 64 16 64 16 64 40 c 0
 64 52 64 52 40 72 c 1
 16 52 16 52 16 40 c 0
EndSplineSet
Validated: 1
EndChar

StartChar: uni053F
Encoding: 1343 1343 760
Width: 96
Flags: W
HStem: 0 21G<64 80> 48 16<28.6875 64>
VStem: 0 16<75.7188 112> 64 16<0 48 64 96>
AnchorPoint: "Top" 40 112 basechar 0
LayerCount: 2
Back
Fore
SplineSet
64 48 m 1
 4 48 0 60 0 112 c 1
 16 112 l 1
 16 64 16 64 64 64 c 1
 64 96 l 1
 80 96 l 1
 80 0 l 1
 64 0 l 1
 64 48 l 1
EndSplineSet
Validated: 1
EndChar

StartChar: uni0540
Encoding: 1344 1344 761
Width: 96
VWidth: 16000
Flags: W
HStem: 0 21G<64 80> 64 16<16 50.4341> 96 16<0 36.0355>
VStem: 64 16<0 36.3895 82.0103 93.468>
AnchorPoint: "Top" 40 112 basechar 0
LayerCount: 2
Back
Fore
SplineSet
16 64 m 1
 16 80 l 1
 64 80 64 80 64 88 c 0
 64 96 64 96 0 96 c 1
 0 112 l 1
 71 112 80 112 80 88 c 0
 80 76 72 72 64 72 c 1
 72 72 80 64 80 0 c 1
 64 0 l 1
 64 64 64 64 16 64 c 1
EndSplineSet
Validated: 1
EndChar

StartChar: uni0541
Encoding: 1345 1345 762
Width: 96
Flags: W
HStem: 0 16<48.0542 80> 32 16<16.459 31.541> 96 16<20.4717 59.7393>
VStem: 0 16<16.8496 31.2329 64 91.1261> 64 16<47.3405 91.1517>
AnchorPoint: "Top" 40 112 basechar 0
LayerCount: 2
Back
Fore
SplineSet
32 32 m 1
 16 32 16 32 16 24 c 0
 16 16 16 16 32 16 c 1
 32 32 l 1
48 16 m 1
 80 16 l 1
 80 0 l 1
 0 0 0 0 0 24 c 0
 0 43 8 48 24 48 c 0
 40 48 48 48 48 32 c 1
 57 39 64 44 64 64 c 0
 64 96 64 96 40 96 c 0
 16 96 16 96 16 64 c 1
 0 64 l 1
 0 105 9 112 40 112 c 0
 72 112 80 104 80 64 c 0
 80 24 56 20 48 16 c 1
EndSplineSet
Validated: 1
EndChar

StartChar: uni0542
Encoding: 1346 1346 763
Width: 112
Flags: W
HStem: 0 16<80 96> 96 16<20.2607 56.4323>
VStem: 0 16<64 90.6902> 64 16<16 53.0001>
AnchorPoint: "Top" 40 112 basechar 0
LayerCount: 2
Back
Fore
SplineSet
40 112 m 0
 72 112 80 108 80 16 c 1
 96 16 l 1
 96 0 l 1
 64 0 l 1
 64 16 l 2
 64 96 64 96 40 96 c 0
 16 96 16 96 16 64 c 1
 0 64 l 1
 0 104 8 112 40 112 c 0
EndSplineSet
Validated: 1
EndChar

StartChar: uni0543
Encoding: 1347 1347 764
Width: 96
Flags: W
HStem: 0 16<16 64> 64 16<16 52.2812> 96 16<43 80>
VStem: 0 16<16 64 80 90.6902> 64 16<16 52.2812>
AnchorPoint: "Top" 40 112 basechar 0
LayerCount: 2
Back
Fore
SplineSet
80 0 m 0
 0 0 l 0
 0 64 l 0
 0 104 0 112 80 112 c 1
 80 96 l 1
 16 96 16 96 16 80 c 1
 72 80 80 72 80 16 c 2
 80 0 l 0
16 16 m 0
 64 16 l 0
 64 64 64 64 16 64 c 1
 16 16 l 0
EndSplineSet
Validated: 1
EndChar

StartChar: uni0544
Encoding: 1348 1348 765
Width: 112
Flags: W
HStem: 0 16<24.237 55.4094> 96 16<80 96>
VStem: 0 16<76.9283 112> 64 16<76.9283 96>
AnchorPoint: "Top" 40 112 basechar 0
LayerCount: 2
Back
Fore
SplineSet
80 96 m 1
 80 8 74 0 40 0 c 0
 4 0 0 4 0 112 c 1
 16 112 l 1
 16 16 16 16 40 16 c 0
 64 16 64 16 64 112 c 1
 96 112 l 1
 96 96 l 1
 80 96 l 1
EndSplineSet
Validated: 1
EndChar

StartChar: uni0545
Encoding: 1349 1349 766
Width: 96
Flags: W
HStem: 0 16<18.5041 61.7139> 48 16<0 37> 96 16<18.5041 61.7139>
VStem: 0 16<18.9015 32 80 93.0985> 64 16<18.3283 43.4607 68.5393 93.6717>
CounterMasks: 1 e0
AnchorPoint: "Top" 40 112 basechar 0
LayerCount: 2
Back
Fore
SplineSet
68 56 m 1
 76 56 80 43 80 32 c 0
 80 8 72 0 40 0 c 0
 9 0 0 7 0 32 c 1
 16 32 l 1
 16 16 16 16 40 16 c 0
 64 16 64 16 64 32 c 0
 64 48 64 48 0 48 c 1
 0 64 l 1
 64 64 64 64 64 80 c 0
 64 96 64 96 40 96 c 0
 16 96 16 96 16 80 c 1
 0 80 l 1
 0 105 9 112 40 112 c 0
 72 112 80 104 80 80 c 0
 80 69 76 56 68 56 c 1
EndSplineSet
Validated: 1
EndChar

StartChar: uni0546
Encoding: 1350 1350 767
Width: 96
Flags: W
HStem: 0 16<37.3775 62.4263> 96 16<0 16>
VStem: 16 16<58.9999 96> 64 16<17.6587 32>
AnchorPoint: "Top" 40 112 basechar 0
LayerCount: 2
Back
Fore
SplineSet
48 0 m 0
 20 0 16 4 16 96 c 1
 0 96 l 1
 0 112 l 1
 32 112 l 1
 32 96 l 2
 32 16 32 16 48 16 c 0
 64 16 64 16 64 32 c 1
 80 32 l 1
 80 8 72 0 48 0 c 0
EndSplineSet
Validated: 1
EndChar

StartChar: uni0547
Encoding: 1351 1351 768
Width: 96
Flags: W
HStem: 0 16<20.2607 61.4959> 96 16<0 30 46.9724 80>
VStem: 0 16<20.8483 63.9659> 64 16<18.9015 32>
AnchorPoint: "Top" 40 112 basechar 0
LayerCount: 2
Back
Fore
SplineSet
0 112 m 1
 80 112 l 1
 80 96 l 1
 50 96 l 1
 28 76 16 72 16 48 c 0
 16 16 16 16 40 16 c 0
 64 16 64 16 64 32 c 1
 80 32 l 1
 80 7 71 0 40 0 c 0
 8 0 0 8 0 48 c 0
 0 80 18 88 30 96 c 1
 0 96 l 1
 0 112 l 1
EndSplineSet
Validated: 1
EndChar

StartChar: uni0548
Encoding: 1352 1352 769
Width: 96
Flags: W
HStem: 0 21G<0 16 64 80> 96 16<24.3843 55.6157>
VStem: 0 16<0 34.6719> 64 16<0 34.6719>
AnchorPoint: "Top" 40 112 basechar 0
LayerCount: 2
Back
Fore
SplineSet
40 96 m 0
 16 96 16 96 16 0 c 0
 0 0 l 0
 0 104 8 112 40 112 c 0
 72 112 80 104 80 0 c 0
 64 0 l 0
 64 96 64 96 40 96 c 0
EndSplineSet
Validated: 1
EndChar

StartChar: uni0549
Encoding: 1353 1353 770
Width: 96
Flags: W
HStem: 0 21G<0 80> 96 16<18.5041 59.7393>
VStem: 0 16<80 93.0985> 64 16<54.4944 91.1517>
AnchorPoint: "Top" 40 112 basechar 0
LayerCount: 2
Back
Fore
SplineSet
80 0 m 1
 0 16 l 1
 0 32 l 1
 30 26 l 1
 52 42 64 52 64 64 c 0
 64 96 64 96 40 96 c 0
 16 96 16 96 16 80 c 1
 0 80 l 1
 0 105 9 112 40 112 c 0
 72 112 80 104 80 64 c 0
 80 44 60 26 48 22 c 1
 80 16 l 1
 80 0 l 1
EndSplineSet
Validated: 1
EndChar

StartChar: uni054A
Encoding: 1354 1354 771
Width: 96
Flags: W
HStem: 0 21G<64 80> 96 16<19.2802 32 48 58.4382>
VStem: 0 16<64 91.792> 32 16<48 96> 64 16<0 35.0717>
CounterMasks: 1 38
AnchorPoint: "Top" 40 112 basechar 0
LayerCount: 2
Back
Fore
SplineSet
40 112 m 0
 77 112 80 108 80 0 c 1
 64 0 l 1
 64 96 64 96 48 96 c 1
 48 48 l 1
 32 48 l 1
 32 96 l 1
 16 96 16 96 16 64 c 1
 0 64 l 1
 0 104 8 112 40 112 c 0
EndSplineSet
Validated: 1
EndChar

StartChar: uni054B
Encoding: 1355 1355 772
Width: 96
Flags: W
HStem: 0 16<0 40 64 80> 64 16<16 30.2344> 96 16<18.5041 59.7393>
VStem: 0 16<80 93.0985> 40 16<24 53> 64 16<34.4096 91.1517>
AnchorPoint: "Top" 40 112 basechar 0
LayerCount: 2
Back
Fore
SplineSet
80 0 m 1
 0 0 l 1
 0 16 l 1
 40 16 l 1
 40 64 40 64 0 64 c 1
 0 80 l 2
 0 105 9 112 40 112 c 0
 72 112 80 104 80 64 c 0
 80 28 72 18 64 16 c 1
 80 16 l 1
 80 0 l 1
56 24 m 1
 64 32 64 49 64 64 c 0
 64 96 64 96 40 96 c 0
 16 96 16 96 16 80 c 1
 48 80 56 72 56 24 c 1
EndSplineSet
Validated: 1
EndChar

StartChar: uni054C
Encoding: 1356 1356 773
Width: 112
Flags: W
HStem: 0 21G<0 16 64 80> 16 16<80 96> 96 16<24.3843 56.9402>
VStem: 0 16<0 34.6719> 64 16<0 16 32 68.4225>
AnchorPoint: "Top" 40 112 basechar 0
LayerCount: 2
Back
Fore
SplineSet
40 112 m 0xb8
 72 112 80 104 80 32 c 1
 96 32 l 1
 96 16 l 1
 80 16 l 1x78
 80 0 l 1
 64 0 l 1xb8
 64 32 l 2x78
 64 96 64 96 40 96 c 0
 16 96 16 96 16 0 c 1
 0 0 l 1
 0 104 8 112 40 112 c 0xb8
EndSplineSet
Validated: 1
EndChar

StartChar: uni054D
Encoding: 1357 1357 774
Width: 96
Flags: W
HStem: 0 16<24.3843 55.6157>
VStem: 0 16<77.3281 112> 64 16<77.3281 112>
AnchorPoint: "Top" 40 112 basechar 0
LayerCount: 2
Back
Fore
SplineSet
40 16 m 0
 64 16 64 16 64 112 c 0
 80 112 l 0
 80 8 72 0 40 0 c 0
 8 0 0 8 0 112 c 0
 16 112 l 0
 16 16 16 16 40 16 c 0
EndSplineSet
Validated: 1
EndChar

StartChar: uni054F
Encoding: 1359 1359 775
Width: 96
Flags: W
HStem: 0 16<18.5041 61.4959> 48 16<18.7752 61.2248> 96 16<18.5041 61.4959>
VStem: 0 16<18.9015 32 66.5474 93.4526> 64 16<18.5474 45.4526 80 93.0985>
CounterMasks: 1 e0
AnchorPoint: "Top" 40 112 basechar 0
LayerCount: 2
Back
Fore
SplineSet
40 96 m 0
 16 96 16 96 16 80 c 0
 16 64 16 64 40 64 c 0
 71 64 80 57 80 32 c 0
 80 7 71 0 40 0 c 0
 9 0 0 7 0 32 c 1
 16 32 l 1
 16 16 16 16 40 16 c 0
 64 16 64 16 64 32 c 0
 64 48 64 48 40 48 c 0
 9 48 0 55 0 80 c 0
 0 105 9 112 40 112 c 0
 71 112 80 105 80 80 c 1
 64 80 l 1
 64 96 64 96 40 96 c 0
EndSplineSet
Validated: 1
EndChar

StartChar: uni054E
Encoding: 1358 1358 776
Width: 96
Flags: W
HStem: 0 21G<64 80> 32 16<27.0665 64>
VStem: 0 16<56.1677 80> 64 16<0 32 48 112>
AnchorPoint: "Top" 40 112 basechar 0
LayerCount: 2
Back
Fore
SplineSet
64 32 m 1
 4 32 0 44 0 80 c 1
 16 80 l 1
 16 48 16 48 64 48 c 1
 64 112 l 1
 80 112 l 1
 80 0 l 1
 64 0 l 1
 64 32 l 1
EndSplineSet
Validated: 1
EndChar

StartChar: uni0550
Encoding: 1360 1360 777
Width: 96
Flags: W
HStem: 0 21G<0 16> 96 16<24.4138 61.7139>
VStem: 0 16<0 35.0717> 64 16<80 93.5369>
AnchorPoint: "Top" 40 112 basechar 0
LayerCount: 2
Back
Fore
SplineSet
40 112 m 0
 72 112 80 104 80 80 c 1
 64 80 l 1
 64 96 64 96 40 96 c 0
 16 96 16 96 16 0 c 1
 0 0 l 1
 0 108 5 112 40 112 c 0
EndSplineSet
Validated: 1
EndChar

StartChar: uni0551
Encoding: 1361 1361 778
Width: 96
Flags: W
HStem: 0 16<16 52.074> 48 16<18.2329 61.7671> 96 16<18.5417 61.4583>
VStem: 0 16<32 45.4912 66.3511 93.6717> 64 16<20.0205 45.6489 66.3511 93.6717>
CounterMasks: 1 e0
AnchorPoint: "Top" 40 112 basechar 0
LayerCount: 2
Back
Fore
SplineSet
16 16 m 0
 64 16 64 16 64 32 c 0
 64 48 64 48 40 48 c 0
 16 48 16 48 16 32 c 0
 0 32 l 0
 0 43 3 51 8 56 c 1
 3 61 0 69 0 80 c 0
 0 104 7 112 40 112 c 0
 73 112 80 104 80 80 c 0
 80 69 77 61 72 56 c 1
 77 51 80 43 80 32 c 0
 80 8 74 0 16 0 c 0
 16 16 l 0
40 64 m 0
 64 64 64 64 64 80 c 0
 64 96 64 96 40 96 c 0
 16 96 16 96 16 80 c 0
 16 64 16 64 40 64 c 0
EndSplineSet
Validated: 1
EndChar

StartChar: uni0552
Encoding: 1362 1362 779
Width: 80
Flags: W
HStem: 0 21G<0 16> 64 16<16 64>
VStem: 0 16<0 64 80 112>
AnchorPoint: "Top" 40 112 basechar 0
LayerCount: 2
Back
Fore
SplineSet
0 0 m 1
 0 112 l 1
 16 112 l 1
 16 80 l 1
 64 80 l 1
 64 64 l 1
 16 64 l 1
 16 0 l 1
 0 0 l 1
EndSplineSet
Validated: 1
EndChar

StartChar: uni0553
Encoding: 1363 1363 780
Width: 96
Flags: W
HStem: 0 21G<32 48> 16 16<18.5145 32 48 61.4855> 80 16<18.9015 32 48 61.0985>
VStem: 0 16<34.2861 77.4959> 32 16<0 16 32 80 96 112> 64 16<34.2861 77.4959>
CounterMasks: 1 1c
AnchorPoint: "Top" 40 112 basechar 0
LayerCount: 2
Back
Fore
SplineSet
32 112 m 1x7c
 48 112 l 1
 48 96 l 1
 73 96 80 87 80 56 c 0
 80 24 74 16 48 16 c 1x7c
 48 0 l 1
 32 0 l 1xbc
 32 16 l 1
 6 16 0 24 0 56 c 0
 0 87 7 96 32 96 c 1
 32 112 l 1x7c
32 80 m 1
 16 80 16 80 16 56 c 0
 16 32 16 32 32 32 c 1
 32 80 l 1
48 32 m 1
 64 32 64 32 64 56 c 0
 64 80 64 80 48 80 c 1
 48 32 l 1
EndSplineSet
Validated: 1
EndChar

StartChar: uni0554
Encoding: 1364 1364 781
Width: 96
Flags: W
HStem: 0 21G<0 16> 16 16<16 80> 48 16<16 52.7493> 96 16<20.1462 61.4817>
VStem: 0 16<0 16 32 48 64 84.7493> 64 16<68.0205 93.569>
AnchorPoint: "Top" 40 112 basechar 0
LayerCount: 2
Back
Fore
SplineSet
39 112 m 0xbc
 72 112 80 104 80 80 c 0
 80 56 72 48 16 48 c 1
 16 32 l 1
 80 32 l 1
 80 16 l 1
 16 16 l 1x7c
 16 0 l 1
 0 0 l 1
 0 48 l 2
 0 104 4 112 39 112 c 0xbc
16 64 m 1
 64 64 64 64 64 80 c 0
 64 96 64 96 39 96 c 0
 16 96 16 96 16 64 c 1
EndSplineSet
Validated: 1
EndChar

StartChar: uni0556
Encoding: 1366 1366 782
Width: 96
Flags: W
HStem: 0 16<17.8674 32 48 61.6606> 64 16<16.5415 32 48 61.5369> 96 16<18.1131 32>
VStem: 0 16<18.0626 32 80.8151 95.0849> 32 16<16 64 80 96> 64 16<18.2861 61.7139>
CounterMasks: 1 1c
AnchorPoint: "Top" 40 112 basechar 0
LayerCount: 2
Back
Fore
SplineSet
32 96 m 1
 16 96 16 96 16 88 c 0
 16 80 16 80 32 80 c 1
 32 96 l 1
32 16 m 1
 32 64 l 1
 9 65 0 73 0 88 c 0
 0 104 8 112 48 112 c 1
 48 80 l 1
 72 80 80 72 80 40 c 0
 80 8 72 0 40 0 c 0
 9 0 0 7 0 32 c 1
 16 32 l 1
 16 16 16 16 32 16 c 1
48 16 m 1
 64 16 64 16 64 40 c 0
 64 64 64 64 48 64 c 1
 48 16 l 1
EndSplineSet
Validated: 1
EndChar

StartChar: uni05DA
Encoding: 1498 1498 783
Width: 96
Flags: W
HStem: 64 16<0 64>
VStem: 64 16<-16 64>
AnchorPoint: "Top" 40 80 basechar 0
LayerCount: 2
Back
Fore
SplineSet
64 64 m 1
 0 64 l 1
 0 80 l 1
 80 80 l 1
 80 -16 l 1
 64 -16 l 1
 64 64 l 1
EndSplineSet
Validated: 1
EndChar

StartChar: uni0561
Encoding: 1377 1377 784
Width: 96
Flags: W
HStem: 59 21G<64 80 0 16> 59 21G<64 80 0 16> 0 16<51.1328 64 20.5565 32>
VStem: 64 16<16 80> 32 16<18.9772 48> 0 16<43 80>
CounterMasks: 1 38
LayerCount: 2
Back
Fore
SplineSet
64 16 m 1xbc
 64 80 l 1
 80 80 l 1
 80 0 l 1
 64 0 l 2
 52 0 48 0 40 8 c 1
 38 4 34 0 28 0 c 0
 4 0 0 12 0 80 c 1
 16 80 l 1
 16 16 16 16 28 16 c 0
 32 16 32 16 32 48 c 1
 48 48 l 1
 48 16 48 16 64 16 c 1xbc
EndSplineSet
Validated: 1
EndChar

StartChar: uni0562
Encoding: 1378 1378 785
Width: 96
Flags: W
HStem: 16 16<16 80> 64 16<33.9659 62.4263>
VStem: 0 16<-16 16 32 50.6145 68 80> 64 16<48 62.3413>
AnchorPoint: "Top" 40 80 basechar 0
LayerCount: 2
Back
Fore
SplineSet
16 80 m 1
 16 68 l 1
 24 73 32 80 48 80 c 0
 72 80 80 72 80 48 c 0
 64 48 l 0
 64 64 64 64 48 64 c 0
 33 64 24 56 16 48 c 1
 16 32 l 1
 80 32 l 1
 80 16 l 1
 16 16 l 1
 16 -16 l 1
 0 -16 l 1
 0 80 l 1
 16 80 l 1
EndSplineSet
Validated: 1
EndChar

StartChar: uni0563
Encoding: 1379 1379 786
Width: 112
Flags: W
HStem: 16 16<27.2507 64 80 96> 64 16<17.5737 46.0341>
VStem: 0 16<36.0205 62.4263> 64 16<-16 16 32 50.6145 68 80>
AnchorPoint: "Top" 40 80 basechar 0
LayerCount: 2
Back
Fore
SplineSet
64 48 m 1
 56 56 47 64 32 64 c 0
 16 64 16 64 16 48 c 0
 16 32 16 32 64 32 c 1
 64 48 l 1
80 16 m 1
 80 -16 l 1
 64 -16 l 1
 64 16 l 1
 8 16 0 24 0 48 c 0
 0 72 8 80 32 80 c 0
 48 80 56 73 64 68 c 1
 64 80 l 1
 80 80 l 1
 80 32 l 1
 96 32 l 1
 96 16 l 1
 80 16 l 1
EndSplineSet
Validated: 1
EndChar

StartChar: uni0564
Encoding: 1380 1380 787
Width: 112
Flags: W
HStem: -0 16<80 96> 64 16<16 47.9375>
VStem: 0 16<0 64> 64 16<-16 -1.91797>
AnchorPoint: "Top" 40 80 basechar 0
LayerCount: 2
Back
Fore
SplineSet
16 64 m 1
 16 0 l 1
 0 0 l 1
 0 80 l 1
 16 80 l 2
 68 80 80 72 80 16 c 1
 96 16 l 1
 96 0 l 1
 80 -0 l 1
 80 -16 l 1
 64 -16 l 1
 64 64 64 64 16 64 c 1
EndSplineSet
Validated: 1
EndChar

StartChar: uni0565
Encoding: 1381 1381 788
Width: 96
Flags: W
HStem: 0 16<22.2881 56.4066> 64 16<16 39>
VStem: 0 16<83.3608 112> 64 16<0 8 24.4375 48>
AnchorPoint: "Top" 40 112 basechar 0
LayerCount: 2
Back
Fore
SplineSet
16 64 m 1
 16 16 16 16 40 16 c 0
 59 16 60 20 64 32 c 1
 64 48 l 1
 80 48 l 1
 80 0 l 1
 64 0 l 1
 64 8 l 1
 60 0 52 0 40 0 c 0
 0 0 0 0 0 112 c 1
 16 112 l 1
 16 80 l 1
 39 80 l 1
 39 64 l 1
 16 64 l 1
EndSplineSet
Validated: 1
EndChar

StartChar: uni0566
Encoding: 1382 1382 789
Width: 112
Flags: W
HStem: -16 16<80 96> 16 16<27.2507 64> 64 16<17.5737 46.0341>
VStem: 0 16<36.0205 62.4263> 64 16<0 16 32 50.6145 68 80>
AnchorPoint: "Top" 40 80 basechar 0
LayerCount: 2
Back
Fore
SplineSet
64 48 m 1
 56 56 47 64 32 64 c 0
 16 64 16 64 16 48 c 0
 16 32 16 32 64 32 c 1
 64 48 l 1
64 -16 m 1
 64 16 l 1
 8 16 0 24 0 48 c 0
 0 72 8 80 32 80 c 0
 48 80 56 73 64 68 c 1
 64 80 l 1
 80 80 l 1
 80 0 l 1
 96 0 l 1
 96 -16 l 1
 64 -16 l 1
EndSplineSet
Validated: 1
EndChar

StartChar: uni0567
Encoding: 1383 1383 790
Width: 80
Flags: W
HStem: 0 16<16 48> 64 16<16 64>
VStem: 0 16<16 64 80 112> 48 16<-16 0>
AnchorPoint: "Top" 40 112 basechar 0
LayerCount: 2
Back
Fore
SplineSet
0 0 m 1
 0 112 l 1
 16 112 l 1
 16 80 l 1
 64 80 l 1
 64 64 l 1
 16 64 l 1
 16 16 l 1
 64 16 l 1
 64 -16 l 1
 48 -16 l 1
 48 0 l 1
 0 0 l 1
EndSplineSet
Validated: 1
EndChar

StartChar: uni0568
Encoding: 1384 1384 791
Width: 96
Flags: W
HStem: -16 16<16 80> 64 16<33.9659 59.9795>
VStem: 0 16<0 50.6145 68 80> 64 16<16 52.7493>
AnchorPoint: "Top" 40 80 basechar 0
LayerCount: 2
Back
Fore
SplineSet
0 -16 m 1
 0 80 l 1
 16 80 l 1
 16 68 l 1
 24 73 32 80 48 80 c 0
 72 80 80 72 80 16 c 0
 64 16 l 0
 64 64 64 64 48 64 c 0
 33 64 24 56 16 48 c 1
 16 0 l 1
 80 0 l 1
 80 -16 l 1
 0 -16 l 1
EndSplineSet
Validated: 1
EndChar

StartChar: uni0569
Encoding: 1385 1385 792
Width: 96
Flags: W
HStem: 0 16<48.459 63.541> 32 16<48.875 64> 64 16<33.9659 60.1429>
VStem: 0 16<-16 50.6145 68 80> 32 16<16.7671 31.0849> 64 16<16 32 48 52.7493>
CounterMasks: 1 fc
AnchorPoint: "Top" 40 80 basechar 0
LayerCount: 2
Back
Fore
SplineSet
0 -16 m 1
 0 80 l 1
 16 80 l 1
 16 68 l 1
 24 73 32 80 48 80 c 0
 72 80 80 72 80 16 c 0
 80 8 72 0 56 0 c 0
 40 0 32 5 32 24 c 0
 32 40 40 48 64 48 c 1
 63 64 59 64 48 64 c 0
 33 64 24 56 16 48 c 1
 16 -16 l 1
 0 -16 l 1
64 16 m 1
 64 32 l 1
 48 32 48 32 48 24 c 0
 48 16 48 16 64 16 c 1
EndSplineSet
Validated: 1
EndChar

StartChar: uni056A
Encoding: 1386 1386 793
Width: 112
Flags: W
HStem: 0 16<43.5775 64> 64 16<27.2507 64 80 96>
VStem: 0 16<22.0686 57.9314> 64 16<16 64 80 112>
AnchorPoint: "Top" 40 112 basechar 0
LayerCount: 2
Back
Fore
SplineSet
80 80 m 1
 96 80 l 1
 96 64 l 1
 80 64 l 1
 80 0 l 0
 8 0 0 8 0 40 c 0
 0 72 8 80 64 80 c 1
 64 112 l 1
 80 112 l 1
 80 80 l 1
64 64 m 1
 16 64 16 64 16 40 c 0
 16 16 16 16 64 16 c 0
 64 64 l 1
EndSplineSet
Validated: 1
EndChar

StartChar: uni056B
Encoding: 1387 1387 794
Width: 96
Flags: W
HStem: 0 21G<64 80> 64 16<33.9659 59.4608>
VStem: 0 16<-16 50.6145 68 112> 64 16<0 35.6045>
AnchorPoint: "Top" 40 112 basechar 0
LayerCount: 2
Back
Fore
SplineSet
64 0 m 0
 64 64 64 64 48 64 c 0
 33 64 24 56 16 48 c 1
 16 -16 l 1
 0 -16 l 1
 0 112 l 1
 16 112 l 1
 16 68 l 1
 24 73 32 80 48 80 c 0
 76 80 80 76 80 0 c 0
 64 0 l 0
EndSplineSet
Validated: 1
EndChar

StartChar: uni056C
Encoding: 1388 1388 795
Width: 48
Flags: W
HStem: -16 16<16 32>
VStem: 0 16<0 80>
AnchorPoint: "Top" 40 80 basechar 0
LayerCount: 2
Back
Fore
SplineSet
0 80 m 1
 16 80 l 1
 16 -0 l 1
 32 0 l 1
 32 -16 l 1
 0 -16 l 1
 0 80 l 1
EndSplineSet
Validated: 1
EndChar

StartChar: uni056D
Encoding: 1389 1389 796
Width: 112
Flags: W
HStem: 0 16<66.6494 80> 64 16<31.4072 46.8384>
VStem: 0 16<-16 50.8748 68 112> 48 16<18.3394 62.4388> 80 16<16 80>
AnchorPoint: "Top" 40 112 basechar 0
LayerCount: 2
Back
Fore
SplineSet
80 16 m 1
 80 80 l 1
 96 80 l 1
 96 0 l 1
 80 0 l 2
 52 0 48 8 48 40 c 0
 48 64 48 64 40 64 c 0
 33 64 24 57 16 48 c 1
 16 -16 l 1
 0 -16 l 1
 0 112 l 1
 16 112 l 1
 16 68 l 1
 24 77 32 80 40 80 c 0
 60 80 64 76 64 40 c 0
 64 16 64 16 80 16 c 1
EndSplineSet
Validated: 1
EndChar

StartChar: uni056E
Encoding: 1390 1390 797
Width: 96
Flags: W
HStem: 0 16<19.2852 60.7148> 96 16<16.875 32>
VStem: 0 16<19.2852 55.8307 80.8083 95.0849> 64 16<19.2852 49.9306>
AnchorPoint: "Top" 40 112 basechar 0
LayerCount: 2
Back
Fore
SplineSet
12 71 m 1
 4 71 0 80 0 88 c 0
 0 104 8 112 32 112 c 1
 32 96 l 1
 16 96 16 96 16 88 c 0
 16 80 16 80 32 80 c 1
 80 106 l 1
 80 88 l 1
 48 72 l 1
 60 68 80 64 80 40 c 0
 80 8 72 0 40 0 c 0
 8 0 0 8 0 40 c 0
 0 53 0 60 12 71 c 1
64 40 m 0
 64 52 63 52 24 64 c 1
 16 52 16 52 16 40 c 0
 16 16 16 16 40 16 c 0
 64 16 64 16 64 40 c 0
EndSplineSet
Validated: 1
EndChar

StartChar: uni056F
Encoding: 1391 1391 798
Width: 96
Flags: W
HStem: 16 16<22.4717 46.0341>
VStem: 0 16<75.5775 112> 64 16<-16 28 45.3855 75>
AnchorPoint: "Top" 40 112 basechar 0
LayerCount: 2
Back
Fore
SplineSet
16 112 m 0
 16 40 16 32 32 32 c 0
 47 32 56 40 64 48 c 1
 64 75 l 1
 80 75 l 1
 80 -16 l 1
 64 -16 l 1
 64 28 l 1
 56 23 48 16 32 16 c 0
 0 16 0 28 0 112 c 0
 16 112 l 0
EndSplineSet
Validated: 1
EndChar

StartChar: uni0571
Encoding: 1393 1393 799
Width: 96
Flags: W
HStem: 0 16<17.5737 46.0341> 48 16<18.7107 61.8602> 80 16<18.4006 62.9206>
VStem: 0 16<17.5737 45.569 98.8637 112> 64 16<0 10.5328 65.0905 78.9087>
AnchorPoint: "Top" 40 112 basechar 0
LayerCount: 2
Back
Fore
SplineSet
80 0 m 1
 64 0 l 1
 64 12 l 1
 56 7 48 0 32 0 c 0
 8 0 0 8 0 32 c 0
 0 56 8 64 41 64 c 0
 64 64 64 64 64 72 c 0
 64 80 64 80 41 80 c 0
 0 80 0 89 0 112 c 1
 16 112 l 1
 16 96 16 96 41 96 c 0
 72 96 80 88 80 72 c 0
 80 64 80 56 72 56 c 1
 80 56 80 48 80 0 c 1
64 32 m 1
 64 48 64 48 41 48 c 0
 16 48 16 48 16 32 c 0
 16 16 16 16 32 16 c 0
 47 16 56 24 64 32 c 1
EndSplineSet
Validated: 1
EndChar

StartChar: uni0572
Encoding: 1394 1394 800
Width: 112
Flags: W
HStem: -16 16<80 96> 0 21G<0 16> 64 16<16 47.9375>
VStem: 0 16<0 64> 64 16<0 21.0898>
AnchorPoint: "Top" 40 80 basechar 0
LayerCount: 2
Back
Fore
SplineSet
16 64 m 1xb8
 16 0 l 1
 0 0 l 1x78
 0 80 l 1
 16 80 l 2
 68 80 80 72 80 0 c 1
 96 0 l 1
 96 -16 l 1
 64 -16 l 1
 64 64 64 64 16 64 c 1xb8
EndSplineSet
Validated: 1
EndChar

StartChar: uni0573
Encoding: 1395 1395 801
Width: 96
Flags: W
HStem: 0 16<20.0205 46.0341> 64 16<16 53> 96 16<43 80>
VStem: 0 16<26.8616 63.7656> 64 16<0 10.7309>
AnchorPoint: "Top" 40 112 basechar 0
LayerCount: 2
Back
Fore
SplineSet
0 40 m 0
 0 112 0 112 80 112 c 1
 80 96 l 1
 16 96 16 96 16 80 c 1
 80 80 80 80 80 0 c 1
 64 0 l 1
 64 12 l 1
 56 7 48 0 32 0 c 0
 8 0 0 8 0 40 c 0
64 32 m 1
 64 64 64 64 16 64 c 1
 16 16 16 16 32 16 c 0
 47 16 56 24 64 32 c 1
EndSplineSet
Validated: 1
EndChar

StartChar: uni0574
Encoding: 1396 1396 802
Width: 112
Flags: W
HStem: 0 16<30.3715 64> 96 16<80 96>
VStem: 0 16<43.5775 80> 64 16<16 96>
AnchorPoint: "Top" 40 112 basechar 0
LayerCount: 2
Back
Fore
SplineSet
64 16 m 1
 64 112 l 1
 96 112 l 1
 96 96 l 1
 80 96 l 1
 80 0 l 1
 64 0 l 2
 4 0 0 8 0 80 c 1
 16 80 l 1
 16 16 16 16 64 16 c 1
EndSplineSet
Validated: 1
EndChar

StartChar: uni0575
Encoding: 1397 1397 803
Width: 96
Flags: W
HStem: -16 16<18.2861 56.035>
VStem: 0 16<2.46313 16> 64 16<42.9999 80>
AnchorPoint: "Top" 40 80 basechar 0
LayerCount: 2
Back
Fore
SplineSet
40 -16 m 0
 8 -16 0 -8 0 16 c 1
 16 16 l 1
 16 0 16 0 40 0 c 0
 64 0 64 0 64 80 c 0
 80 80 l 0
 80 -12 76 -16 40 -16 c 0
EndSplineSet
Validated: 1
EndChar

StartChar: uni0576
Encoding: 1398 1398 804
Width: 112
Flags: W
HStem: 0 16<48.6855 80> 96 16<0 16>
VStem: 16 16<76.9283 96> 80 16<16 80>
AnchorPoint: "Top" 40 112 basechar 0
LayerCount: 2
Back
Fore
SplineSet
80 16 m 1
 80 80 l 1
 96 80 l 1
 96 0 l 1
 80 0 l 2
 20 0 16 8 16 96 c 1
 0 96 l 1
 0 112 l 1
 32 112 l 1
 32 16 32 16 80 16 c 1
EndSplineSet
Validated: 1
EndChar

StartChar: uni0577
Encoding: 1399 1399 805
Width: 96
Flags: W
HStem: -16 16<16 80> 16 16<20.9496 61.6606> 64 16<18.5041 61.7139>
VStem: 0 16<0 11.379 48 61.0985> 64 16<34.3283 61.6717>
AnchorPoint: "Top" 40 80 basechar 0
LayerCount: 2
Back
Fore
SplineSet
80 -16 m 1
 0 -16 l 1
 0 0 l 2
 0 31 16 32 40 32 c 0
 64 32 64 32 64 48 c 0
 64 64 64 64 40 64 c 0
 16 64 16 64 16 48 c 1
 0 48 l 1
 0 73 9 80 40 80 c 0
 72 80 80 72 80 48 c 0
 80 24 72 16 40 16 c 0
 23 16 16 16 16 0 c 1
 80 0 l 1
 80 -16 l 1
EndSplineSet
Validated: 1
EndChar

StartChar: uni0579
Encoding: 1401 1401 806
Width: 96
Flags: W
HStem: -16 16<16 80> 16 16<18.3394 61.6606> 48 16<43 64>
VStem: 0 16<0 13.5369 69.4375 80> 64 16<34.4631 48>
CounterMasks: 1 e0
AnchorPoint: "Top" 40 80 basechar 0
LayerCount: 2
Back
Fore
SplineSet
80 -16 m 1
 0 -16 l 1
 0 0 l 1
 0 24 8 32 40 32 c 0
 64 32 64 32 64 48 c 1
 8 48 0 48 0 80 c 1
 16 80 l 1
 16 64 16 64 80 64 c 1
 80 48 l 2
 80 24 72 16 40 16 c 0
 16 16 16 16 16 0 c 1
 80 0 l 1
 80 -16 l 1
EndSplineSet
Validated: 1
EndChar

StartChar: uni0578
Encoding: 1400 1400 807
Width: 96
Flags: W
HStem: 0 21G<0 16 64 80> 64 16<33.9659 59.4608>
VStem: 0 16<0 50.6145 68 80> 64 16<0 35.6045>
AnchorPoint: "Top" 40 80 basechar 0
LayerCount: 2
Back
Fore
SplineSet
64 0 m 0
 64 64 64 64 48 64 c 0
 33 64 24 56 16 48 c 1
 16 0 l 1
 0 0 l 1
 0 80 l 1
 16 80 l 1
 16 68 l 1
 24 73 32 80 48 80 c 0
 76 80 80 76 80 0 c 0
 64 0 l 0
EndSplineSet
Validated: 1
EndChar

StartChar: uni057A
Encoding: 1402 1402 808
Width: 96
Flags: W
HStem: 0 16<18.524 30.5195 50.8477 64>
VStem: 0 16<43.5775 80> 32 16<18.9772 48> 64 16<-16 0 16 80>
CounterMasks: 1 70
AnchorPoint: "Top" 40 80 basechar 0
LayerCount: 2
Back
Fore
SplineSet
64 16 m 1
 64 80 l 1
 80 80 l 1
 80 -16 l 1
 64 -16 l 1
 64 -0 l 1
 52 0 48 0 40 8 c 1
 36 2 34 0 24 0 c 0
 4 0 0 8 0 80 c 1
 16 80 l 1
 16 16 16 16 24 16 c 0
 32 16 32 16 32 48 c 1
 48 48 l 1
 48 16 48 16 64 16 c 1
EndSplineSet
Validated: 1
EndChar

StartChar: uni057B
Encoding: 1403 1403 809
Width: 96
Flags: W
HStem: -16 16<16 80> 16 16<20.6374 61.6606> 64 16<18.5041 61.7139>
VStem: 0 16<0 11.4299 34.1856 61.4526> 64 16<34.3283 61.6717>
AnchorPoint: "Top" 40 80 basechar 0
LayerCount: 2
Back
Fore
SplineSet
40 32 m 0
 64 32 64 32 64 48 c 0
 64 64 64 64 40 64 c 0
 16 64 16 64 16 48 c 0
 16 32 16 32 40 32 c 0
0 48 m 0
 0 73 9 80 40 80 c 0
 72 80 80 72 80 48 c 0
 80 24 72 16 40 16 c 0
 23 16 16 16 16 0 c 1
 80 0 l 1
 80 -16 l 1
 0 -16 l 1
 0 0 l 2
 0 16 0 16 8 24 c 1
 0 32 0 32 0 48 c 0
EndSplineSet
Validated: 1
EndChar

StartChar: uni057C
Encoding: 1404 1404 810
Width: 96
Flags: W
HStem: 0 16<64 80> 64 16<16 52.7493>
VStem: 0 16<0 64> 48 32<0 16> 64 16<34.388 59.9795>
AnchorPoint: "Top" 40 80 basechar 0
LayerCount: 2
Back
Fore
SplineSet
16 64 m 1xe8
 16 0 l 1
 0 0 l 1
 0 80 l 1
 16 80 l 2
 72 80 80 72 80 48 c 0
 80 32 80 32 64 16 c 1xe8
 80 16 l 1
 80 0 l 1
 48 0 l 1
 48 20 l 1xf0
 64 36 64 36 64 48 c 0
 64 64 64 64 16 64 c 1xe8
EndSplineSet
Validated: 1
EndChar

StartChar: uni057E
Encoding: 1406 1406 811
Width: 112
Flags: W
HStem: -16 16<80 96> 0 16<30.3715 64>
VStem: 0 16<43.5775 80> 64 16<16 112>
AnchorPoint: "Top" 40 112 basechar 0
LayerCount: 2
Back
Fore
SplineSet
64 16 m 1x70
 64 112 l 1
 80 112 l 1
 80 0 l 1
 96 0 l 1
 96 -16 l 1
 64 -16 l 1xb0
 64 0 l 1
 4 0 0 8 0 80 c 1
 16 80 l 1
 16 16 16 16 64 16 c 1x70
EndSplineSet
Validated: 1
EndChar

StartChar: uni057F
Encoding: 1407 1407 812
Width: 128
Flags: W
HStem: 0 16<25.837 48> 64 16<64 86.163>
VStem: 0 16<43.5775 80> 48 16<16 64> 96 16<0 36.4225>
CounterMasks: 1 38
AnchorPoint: "Top" 40 80 basechar 0
LayerCount: 2
Back
Fore
SplineSet
48 0 m 2
 4 0 0 8 0 80 c 1
 16 80 l 1
 16 16 16 16 48 16 c 1
 48 80 l 1
 64 80 l 2
 108 80 112 72 112 0 c 1
 96 0 l 1
 96 64 96 64 64 64 c 1
 64 0 l 1
 48 0 l 2
EndSplineSet
Validated: 1
EndChar

StartChar: uni0580
Encoding: 1408 1408 813
Width: 96
Flags: W
HStem: 0 21G<64 80> 64 16<16 49.6285>
VStem: 0 16<-16 64> 64 16<0 36.4225>
AnchorPoint: "Top" 40 80 basechar 0
LayerCount: 2
Back
Fore
SplineSet
16 64 m 1
 16 -16 l 1
 0 -16 l 1
 0 80 l 1
 16 80 l 2
 76 80 80 72 80 0 c 1
 64 0 l 1
 64 64 64 64 16 64 c 1
EndSplineSet
Validated: 1
EndChar

StartChar: uni0581
Encoding: 1409 1409 814
Width: 96
Flags: W
HStem: -16 16<0 37> 16 16<30.5582 64> 64 16<30.5582 64>
VStem: 0 16<39.6266 56.3734> 64 16<4.55652 16 32 64>
AnchorPoint: "Top" 40 80 basechar 0
LayerCount: 2
Back
Fore
SplineSet
16 48 m 0
 16 40 16 32 64 32 c 1
 64 64 l 1
 16 64 16 56 16 48 c 0
0 -16 m 1
 0 0 l 1
 64 0 64 0 64 16 c 1
 8 16 0 32 0 48 c 0
 0 64 7 80 64 80 c 1
 80 80 l 1
 80 16 l 2
 80 -12 68 -16 0 -16 c 1
EndSplineSet
Validated: 1
EndChar

StartChar: uni0582
Encoding: 1410 1410 815
Width: 80
Flags: W
HStem: 0 16<16 64>
VStem: 0 16<16 80>
AnchorPoint: "Top" 40 80 basechar 0
LayerCount: 2
Back
Fore
SplineSet
0 80 m 1
 16 80 l 1
 16 16 l 1
 64 16 l 1
 64 0 l 1
 0 0 l 1
 0 80 l 1
EndSplineSet
Validated: 1
EndChar

StartChar: uni0583
Encoding: 1411 1411 816
Width: 128
Flags: W
HStem: 0 16<25.837 48> 64 16<64 86.163>
VStem: 0 16<43.5775 80> 48 16<-16 0 16 64 80 112> 96 16<0 36.4225>
CounterMasks: 1 38
AnchorPoint: "Top" 40 112 basechar 0
LayerCount: 2
Back
Fore
SplineSet
48 112 m 1
 64 112 l 1
 64 80 l 1
 108 80 112 72 112 0 c 1
 96 0 l 1
 96 64 96 64 64 64 c 1
 64 -16 l 1
 48 -16 l 1
 48 0 l 1
 4 0 0 8 0 80 c 1
 16 80 l 1
 16 16 16 16 48 16 c 1
 48 112 l 1
EndSplineSet
Validated: 1
EndChar

StartChar: uni0584
Encoding: 1412 1412 817
Width: 112
Flags: W
HStem: 0 16<0 16 32 96> 32 16<32 69> 64 16<49.9659 79.3532>
VStem: 16 16<-16 0 16 32 68 80> 80 16<50.1641 63.0849>
CounterMasks: 1 e0
AnchorPoint: "Top" 40 80 basechar 0
LayerCount: 2
Back
Fore
SplineSet
16 80 m 1
 32 80 l 1
 32 68 l 1
 40 73 48 80 64 80 c 0
 88 80 96 72 96 56 c 0
 96 40 96 32 32 32 c 1
 32 16 l 1
 96 16 l 1
 96 0 l 1
 32 0 l 1
 32 -16 l 1
 16 -16 l 1
 16 -0 l 1
 0 0 l 1
 0 16 l 1
 16 16 l 1
 16 80 l 1
32 48 m 1
 80 48 80 48 80 56 c 0
 80 64 80 64 64 64 c 0
 49 64 40 56 32 48 c 1
EndSplineSet
Validated: 1
EndChar

StartChar: uni0586
Encoding: 1414 1414 818
Width: 96
Flags: W
HStem: 0 16<18.0626 32 48 61.0985> 64 16<16.5415 32 48 61.5369> 96 16<18.1131 32>
VStem: 0 16<18.0709 32 80.8151 95.0849> 32 16<-16 0 16 64 80 96> 64 16<18.4904 61.7139>
CounterMasks: 1 1c
AnchorPoint: "Top" 40 112 basechar 0
LayerCount: 2
Back
Fore
SplineSet
32 96 m 1
 16 96 16 96 16 88 c 0
 16 80 16 80 32 80 c 1
 32 96 l 1
32 0 m 1
 7 0 0 9 0 32 c 1
 16 32 l 1
 16 16 16 16 32 16 c 1
 32 64 l 1
 9 65 0 73 0 88 c 0
 0 104 8 112 48 112 c 1
 48 80 l 1
 72 80 80 72 80 40 c 0
 80 11 73 0 48 0 c 1
 48 -16 l 1
 32 -16 l 1
 32 0 l 1
48 16 m 1
 64 16 64 16 64 40 c 0
 64 64 64 64 48 64 c 1
 48 16 l 1
EndSplineSet
Validated: 1
EndChar

StartChar: uni0587
Encoding: 1415 1415 819
Width: 112
Flags: W
HStem: 0 16<21.4133 39.148 64 96>
VStem: 0 16<76.3347 112> 48 16<26.0674 80>
AnchorPoint: "Top" 40 112 basechar 0
LayerCount: 2
Back
Fore
SplineSet
16 112 m 1
 16 24 16 16 28 16 c 0
 39 16 43 20 48 32 c 1
 48 80 l 1
 64 80 l 1
 64 16 l 1
 96 16 l 1
 96 0 l 1
 48 0 l 1
 48 12 l 1
 43 4 40 0 28 0 c 0
 4 0 0 12 0 112 c 1
 16 112 l 1
EndSplineSet
Validated: 1
EndChar

StartChar: uni0559
Encoding: 1369 1369 820
Width: 48
Flags: W
HStem: 64 16<0 12.7783>
VStem: 16 16<83.1426 112>
AnchorPoint: "Top" 16 48 mark 0
LayerCount: 2
Back
Fore
SplineSet
32 112 m 1
 32 72 32 64 0 64 c 1
 0 80 l 1
 16 80 16 80 16 112 c 1
 32 112 l 1
EndSplineSet
Validated: 1
EndChar

StartChar: uni025B
Encoding: 603 603 822
Width: 96
Flags: W
HStem: 0 16<33.1917 80> 32 16<16.2109 48> 64 16<33.1917 80>
VStem: 0 16<17.7688 31.0134 48.9866 62.2312>
CounterMasks: 1 e0
LayerCount: 2
Fore
SplineSet
8 40 m 1
 2 45 0 45 0 56 c 0
 0 80 8 80 80 80 c 0
 80 64 l 0
 16 64 16 64 16 56 c 0
 16 48 16 48 48 48 c 1
 48 32 l 1
 16 32 16 32 16 24 c 0
 16 16 16 16 80 16 c 0
 80 0 l 0
 8 0 0 0 0 24 c 0
 0 35 2 35 8 40 c 1
EndSplineSet
Validated: 1
EndChar

StartChar: uni026A
Encoding: 618 618 823
Width: 64
Flags: W
HStem: 0 16<0 16 32 48> 64 16<0 16 32 48>
VStem: 16 16<16 64>
AnchorPoint: "Top" 40 80 basechar 0
LayerCount: 2
Back
Fore
SplineSet
0 80 m 1
 48 80 l 1
 48 64 l 1
 32 64 l 1
 32 16 l 1
 48 16 l 1
 48 0 l 1
 0 0 l 1
 0 16 l 1
 16 16 l 1
 16 64 l 1
 0 64 l 1
 0 80 l 1
EndSplineSet
Validated: 1
EndChar

StartChar: uni04AF
Encoding: 1199 1199 824
Width: 96
Flags: W
HStem: 60 20G<0 32.5 47.5 80>
VStem: 32 16<-16 32>
LayerCount: 2
Back
Fore
SplineSet
32 32 m 1
 0 80 l 1
 20 80 l 1
 40 48 l 1
 60 80 l 1
 80 80 l 1
 48 32 l 1
 48 -16 l 1
 32 -16 l 1
 32 32 l 1
EndSplineSet
Validated: 1
EndChar

StartChar: uni1E9E
Encoding: 7838 7838 825
Width: 96
VWidth: 16000
Flags: W
HStem: 0 16<32 60.8574> 64 16<32 55.5868> 96 16<31.6843 64>
VStem: 0 16<-16 30.7622> 64 16<18.9922 60.8359 82.4414 96>
LayerCount: 2
Back
Fore
SplineSet
32 16 m 1
 64 16 64 16 64 40 c 0
 64 64 64 64 32 64 c 1
 32 80 l 1
 64 80 64 80 64 96 c 1
 16 96 16 96 16 -16 c 1
 0 -16 l 1
 0 112 0 112 80 112 c 1
 80 80 80 72 56 72 c 1
 80 72 80 64 80 40 c 0
 80 5 72 0 32 0 c 1
 32 16 l 1
EndSplineSet
Validated: 1
EndChar

StartChar: uni20BD
Encoding: 8381 8381 826
Width: 112
VWidth: 16000
Flags: W
HStem: 0 21G<16 32> 0 21G<16 32> 32 16<0 16 32 64> 64 16<32 78.6172> 96 16<32 78.6172>
VStem: 16 16<0 32 48 64 80 96> 80 16<81.7099 94.2901>
LayerCount: 2
Back
Fore
SplineSet
32 96 m 1x3e
 32 80 l 1
 80 80 80 80 80 88 c 0
 80 96 80 96 32 96 c 1x3e
32 32 m 1
 32 0 l 1
 16 0 l 1xbe
 16 32 l 1
 0 32 l 1
 0 48 l 1
 16 48 l 1
 16 112 l 1
 32 112 l 2
 92 112 96 108 96 88 c 0
 96 68 92 64 32 64 c 1
 32 48 l 1
 64 48 l 1
 64 32 l 1
 32 32 l 1
EndSplineSet
Validated: 1
EndChar

StartChar: Euro
Encoding: 8364 8364 827
Width: 112
Flags: W
HStem: 0 16<33.2705 78.7295> 32 16<0 16 32 64> 64 16<0 16 32 64> 80 21G<80 96> 96 16<33.2705 78.7295>
VStem: 16 16<17.6587 32 48 64 80 94.3413> 80 16<17.6587 32 80 94.3413>
LayerCount: 2
Back
Fore
SplineSet
0 32 m 1xee
 0 48 l 1
 16 48 l 1
 16 64 l 1
 0 64 l 1
 0 80 l 1
 16 80 l 1
 16 104 24 112 56 112 c 0xee
 88 112 96 104 96 80 c 1
 80 80 l 1xd6
 80 96 80 96 56 96 c 0
 32 96 32 96 32 80 c 1
 64 80 l 1
 64 64 l 1
 32 64 l 1
 32 48 l 1
 64 48 l 1
 64 32 l 1
 32 32 l 1
 32 16 32 16 56 16 c 0
 80 16 80 16 80 32 c 1
 96 32 l 1
 96 8 88 0 56 0 c 0
 24 0 16 8 16 32 c 1
 0 32 l 1xee
EndSplineSet
Validated: 1
EndChar

StartChar: uni0462
Encoding: 1122 1122 828
Width: 112
VWidth: 16000
Flags: W
HStem: 0 16<32 68.4689> 48 16<32 68.7493> 80 16<0 16 32 48>
VStem: 16 16<16 48 64 80 96 112> 80 16<21.4997 42.2734>
AnchorPoint: "Top" 40 112 basechar 0
LayerCount: 2
Back
Fore
SplineSet
80 32 m 0
 80 48 73 48 32 48 c 1
 32 16 l 1
 73 16 80 16 80 32 c 0
0 80 m 1
 0 96 l 1
 16 96 l 1
 16 112 l 1
 32 112 l 1
 32 96 l 1
 48 96 l 1
 48 80 l 1
 32 80 l 1
 32 64 l 1
 88 64 96 56 96 32 c 0
 96 0 84 0 32 0 c 2
 16 0 l 1
 16 80 l 1
 0 80 l 1
EndSplineSet
Validated: 1
EndChar

StartChar: uni0463
Encoding: 1123 1123 829
Width: 112
VWidth: 16000
Flags: W
HStem: 0 16<32 68.9093> 32 16<32 68.074> 64 16<0 16 32 48>
VStem: 16 16<16 32 48 64 80 96> 80 16<18.4451 29.7608>
CounterMasks: 1 e0
AnchorPoint: "Top" 40 96 basechar 0
LayerCount: 2
Back
Fore
SplineSet
32 48 m 1
 90 48 96 40 96 24 c 0
 96 4 85 0 32 0 c 2
 16 0 l 1
 16 64 l 1
 0 64 l 1
 0 80 l 1
 16 80 l 1
 16 96 l 1
 32 96 l 1
 32 80 l 1
 48 80 l 1
 48 64 l 1
 32 64 l 1
 32 48 l 1
32 16 m 1
 78 16 80 16 80 24 c 0
 80 32 78 32 32 32 c 1
 32 16 l 1
EndSplineSet
Validated: 1
EndChar

StartChar: uni0474
Encoding: 1140 1140 830
Width: 112
Flags: W
HStem: 0 21G<26.2857 53.8333>
VStem: 80 16<88 95.541>
AnchorPoint: "Top" 40 112 basechar 0
LayerCount: 2
Back
Fore
SplineSet
76 96 m 1
 48 0 l 1
 32 0 l 1
 0 112 l 1
 16 112 l 1
 40 28 l 1
 64 112 l 1
 88 112 96 104 96 88 c 1
 80 88 l 1
 80 96 80 96 76 96 c 1
EndSplineSet
Validated: 1
EndChar

StartChar: uni0475
Encoding: 1141 1141 831
Width: 112
Flags: W
HStem: 0 21G<24 56.75>
VStem: 80 16<56 63.541>
AnchorPoint: "Top" 40 80 basechar 0
LayerCount: 2
Back
Fore
SplineSet
0 80 m 1
 18 80 l 1
 40 22 l 1
 68 80 l 1
 88 80 96 72 96 56 c 1
 80 56 l 1
 80 64 80 64 76 64 c 1
 48 0 l 1
 32 0 l 1
 0 80 l 1
EndSplineSet
Validated: 1
EndChar

StartChar: uni0472
Encoding: 1138 1138 832
Width: 96
Flags: W
HStem: 0 16<21.2502 60.6518> 40 16<49.0555 64> 96 16<19.3482 58.7498>
VStem: 0 16<21.7422 56 72 91.4606> 64 16<20.5394 40 56 90.2578>
AnchorPoint: "Top" 40 112 basechar 0
LayerCount: 2
Fore
SplineSet
40 112 m 0
 74 112 80 104 80 56 c 0
 80 8 74 0 40 0 c 0
 6 0 0 8 0 56 c 0
 0 104 6 112 40 112 c 0
64 40 m 1
 40 40 40 56 16 56 c 1
 16 16 16 16 40 16 c 0
 64 16 64 16 64 40 c 1
64 56 m 1
 64 96 64 96 40 96 c 0
 16 96 16 96 16 72 c 1
 40 72 40 56 64 56 c 1
EndSplineSet
Validated: 1
EndChar

StartChar: uni0473
Encoding: 1139 1139 833
Width: 96
Flags: W
HStem: 0 16<19.5591 62.9522> 24 16<49.0555 64> 64 16<16.8074 60.4409>
VStem: 0 16<19.8281 40 56 62.0965> 64 16<17.4676 24 40 60.1719>
AnchorPoint: "Top" 40 80 basechar 0
LayerCount: 2
Fore
SplineSet
16 40 m 1
 16 16 16 16 40 16 c 0
 64 16 64 16 64 24 c 1
 40 24 40 40 16 40 c 1
64 40 m 1
 64 64 64 64 40 64 c 0
 16 64 16 64 16 56 c 1
 40 56 40 40 64 40 c 1
40 80 m 0
 73 80 80 73 80 40 c 0
 80 6 74 0 40 0 c 0
 7 0 0 7 0 40 c 0
 0 73 7 80 40 80 c 0
EndSplineSet
Validated: 1
EndChar

StartChar: uni2070
Encoding: 8304 8304 834
Width: 80
Flags: W
HStem: 32 16<17.7012 46.4991> 96 16<17.7012 46.2988>
VStem: 0 16<49.5087 94.4913> 48 16<49.2908 94.4913>
LayerCount: 2
Back
Fore
SplineSet
32 48 m 0
 48 48 48 48 48 72 c 0
 48 96 48 96 32 96 c 0
 16 96 16 96 16 72 c 0
 16 48 16 48 32 48 c 0
32 112 m 0
 57 112 64 105 64 72 c 0
 64 38 58 32 32 32 c 0
 7 32 0 39 0 72 c 0
 0 105 7 112 32 112 c 0
EndSplineSet
Validated: 1
EndChar

StartChar: uni00B9
Encoding: 185 185 835
Width: 64
Flags: W
HStem: 32 16<0 16 32 48> 92 20G<6 32>
VStem: 16 16<48 80>
LayerCount: 2
Back
Fore
SplineSet
0 32 m 1
 0 48 l 1
 16 48 l 1
 16 80 l 1
 0 80 l 1
 16 112 l 1
 32 112 l 1
 32 48 l 1
 48 48 l 1
 48 32 l 1
 0 32 l 1
EndSplineSet
Validated: 1
EndChar

StartChar: uni00B3
Encoding: 179 179 836
Width: 80
Flags: W
HStem: 32 16<16.8088 47.8914> 64 16<32 47.8945> 80 21G<0 16> 96 16<16.8088 47.7207>
VStem: 0 16<49.2466 64 80 94.7534> 48 16<48.4151 63.5803 80.4197 95.5849>
LayerCount: 2
Back
Fore
SplineSet
32 64 m 1xdc
 32 80 l 1
 48 80 48 80 48 88 c 0
 48 96 48 96 32 96 c 0xdc
 16 96 16 96 16 80 c 1
 0 80 l 1xac
 0 105 8 112 32 112 c 0
 57 112 64 104 64 88 c 0
 64 85 62 77 56 72 c 1
 62 67 64 59 64 56 c 0
 64 40 56 32 32 32 c 0
 8 32 0 39 0 64 c 1
 16 64 l 1
 16 48 16 48 32 48 c 0
 48 48 48 48 48 56 c 0
 48 64 48 64 32 64 c 1xdc
EndSplineSet
Validated: 1
EndChar

StartChar: uni0294
Encoding: 660 660 837
Width: 96
Flags: W
HStem: 0 21G<32 48> 0 21G<32 48> 32 16<48 60.7116> 80 21G<0 16> 96 16<17.5087 61.5699>
VStem: 0 16<80 94.3413> 32 16<0 32> 64 16<51.355 93.8254>
CounterMasks: 1 07
LayerCount: 2
Back
Fore
SplineSet
32 0 m 1xaf
 32 48 l 0
 64 48 64 48 64 72 c 0
 64 96 64 96 40 96 c 0xaf
 16 96 16 96 16 80 c 1
 0 80 l 1x37
 0 104 7 112 40 112 c 0
 73 112 80 104 80 72 c 0
 80 41 72 32 48 32 c 1
 48 0 l 1
 32 0 l 1xaf
EndSplineSet
Validated: 1
EndChar

StartChar: uni02E4
Encoding: 740 740 838
AltUni2: 0002e4.ffffffff.0
Width: 96
Flags: W
HStem: 0 21G<32 48> 0 21G<32 48> 32 16<19.2884 32> 80 21G<64 80> 96 16<18.4301 62.4913>
VStem: 0 16<51.355 93.8254> 32 16<0 32> 64 16<80 94.3413>
CounterMasks: 1 07
LayerCount: 2
Back
Fore
SplineSet
48 0 m 1xaf
 32 0 l 1
 32 32 l 1
 8 32 0 41 0 72 c 0
 0 104 7 112 40 112 c 0xaf
 73 112 80 104 80 80 c 1
 64 80 l 1x37
 64 96 64 96 40 96 c 0
 16 96 16 96 16 72 c 0
 16 48 16 48 48 48 c 0
 48 0 l 1xaf
EndSplineSet
Validated: 1
EndChar

StartChar: uni263D
Encoding: 9789 9789 839
Width: 144
Flags: W
HStem: -16 32<43.5849 74.936> 92 20G<72 80>
VStem: 96 32<37.064 68.4151>
LayerCount: 2
Back
Fore
SplineSet
96 56 m 0
 96 88 80 96 64 112 c 1
 96 112 128 80 128 48 c 0
 128 8 104 -16 64 -16 c 0
 32 -16 0 16 0 48 c 1
 16 32 24 16 56 16 c 0
 80 16 96 32 96 56 c 0
EndSplineSet
Validated: 1
EndChar

StartChar: uni2601
Encoding: 9729 9729 840
Width: 144
Flags: W
HStem: 16 16<18.4645 109.316> 64 16<20.25 40> 96 16<59.1401 93.7684>
VStem: 0 16<35.0347 59.9795> 40 16<80 92.7116> 96 16<80 94.3413> 112 16<35.0347 63.1912>
LayerCount: 2
Fore
SplineSet
0 48 m 0xfa
 0 72 8 80 40 80 c 1
 40 104 48 112 80 112 c 0
 104 112 112 104 112 80 c 1xfc
 120 80 128 72 128 48 c 0
 128 16 120 16 64 16 c 0
 7 16 0 16 0 48 c 0xfa
56 64 m 1
 24 64 16 64 16 48 c 0
 16 32 16 32 64 32 c 0
 112 32 112 32 112 48 c 0xfa
 112 64 112 64 96 64 c 1
 96 96 96 96 80 96 c 0
 56 96 56 96 56 64 c 1
EndSplineSet
Validated: 1
EndChar

StartChar: uni2607
Encoding: 9735 9735 841
Width: 127
Flags: W
HStem: 0 16<64 84>
VStem: 96 16<28 48>
LayerCount: 2
Back
Fore
SplineSet
96 48 m 1
 112 48 l 1
 112 0 l 1
 64 0 l 1
 64 16 l 1
 84 16 l 1
 46 56 l 1
 92 112 l 1
 112 112 l 1
 66 56 l 1
 96 28 l 1
 96 48 l 1
EndSplineSet
Validated: 1
EndChar

StartChar: uni2632
Encoding: 9778 9778 842
Width: 96
Flags: W
HStem: 16 16<0 80> 48 16<0 32 48 80> 80 16<0 80>
VStem: 0 32<48 64> 48 32<48 64>
CounterMasks: 1 e0
LayerCount: 2
Back
Fore
SplineSet
0 96 m 1
 80 96 l 1
 80 80 l 1
 0 80 l 1
 0 96 l 1
0 32 m 1
 80 32 l 1
 80 16 l 1
 0 16 l 1
 0 32 l 1
48 64 m 1
 80 64 l 1
 80 48 l 1
 48 48 l 1
 48 64 l 1
32 64 m 1
 32 48 l 1
 0 48 l 1
 0 64 l 1
 32 64 l 1
EndSplineSet
Validated: 1
EndChar

StartChar: uni2635
Encoding: 9781 9781 843
Width: 96
Flags: W
HStem: 16 16<0 32 48 80> 48 16<0 80> 80 16<0 32 48 80>
VStem: 0 32<16 32 80 96> 48 32<16 32 80 96>
CounterMasks: 1 e0
LayerCount: 2
Back
Fore
SplineSet
48 96 m 1
 80 96 l 1
 80 80 l 1
 48 80 l 1
 48 96 l 1
32 96 m 1
 32 80 l 1
 0 80 l 1
 0 96 l 1
 32 96 l 1
0 64 m 1
 80 64 l 1
 80 48 l 1
 0 48 l 1
 0 64 l 1
48 32 m 1
 80 32 l 1
 80 16 l 1
 48 16 l 1
 48 32 l 1
32 32 m 1
 32 16 l 1
 0 16 l 1
 0 32 l 1
 32 32 l 1
EndSplineSet
Validated: 1
EndChar

StartChar: spade
Encoding: 9824 9824 844
Width: 96
Flags: W
HStem: 0 21G<16 64> 0 21G<16 64>
VStem: 0 80<32.9121 62.25>
LayerCount: 2
Back
Fore
SplineSet
0 48 m 0xa0
 0 72 24 72 40 96 c 1
 56 72 80 72 80 48 c 0
 80 32 72 24 48 24 c 9
 64 0 l 1
 16 0 l 1
 32 24 l 1
 8 24 0 32 0 48 c 0xa0
EndSplineSet
Validated: 1
EndChar

StartChar: club
Encoding: 9827 9827 845
Width: 96
Flags: W
VStem: 0 80<32.0798 66.4485>
LayerCount: 2
Back
Fore
SplineSet
16 0 m 1
 28 24 l 1
 12 24 0 28 0 48 c 0
 0 68 8 72 16 72 c 1
 16 88 24 96 40 96 c 0
 56 96 64 88 64 72 c 1
 72 72 80 68 80 48 c 0
 80 28 68 24 52 24 c 1
 64 0 l 1
 16 0 l 1
EndSplineSet
Validated: 1
EndChar

StartChar: heart
Encoding: 9829 9829 846
Width: 96
Flags: W
HStem: 0 21G<32 48> 0 21G<32 48>
VStem: 0 40<72 85.6598>
LayerCount: 2
Back
Fore
SplineSet
40 72 m 1xa0
 40 88 48 96 56 96 c 0
 72 96 80 88 80 60 c 0
 80 36 56 24 40 0 c 1
 24 24 0 36 0 60 c 0
 0 88 8 96 24 96 c 0
 32 96 40 88 40 72 c 1xa0
EndSplineSet
Validated: 1
EndChar

StartChar: diamond
Encoding: 9830 9830 847
Width: 96
Flags: W
HStem: 0 21G<23.3333 56.6667> 0 21G<23.3333 56.6667>
LayerCount: 2
Back
Fore
SplineSet
40 0 m 1x80
 0 48 l 1
 40 96 l 1
 80 48 l 1
 40 0 l 1x80
EndSplineSet
Validated: 1
EndChar

StartChar: perthousand
Encoding: 8240 8240 848
Width: 128
Flags: W
HStem: 0 32<58.4639 77.5361 90.4639 109.536> 80 32<2.46387 21.5361>
VStem: 0 24<82.2487 109.751> 56 24<2.24866 29.7513> 88 24<2.24866 29.7513>
LayerCount: 2
Back
Fore
SplineSet
100 32 m 0
 108 32 112 28 112 16 c 0
 112 4 108 0 100 0 c 0
 92 0 88 4 88 16 c 0
 88 28 92 32 100 32 c 0
12 112 m 0
 20 112 24 108 24 96 c 0
 24 84 20 80 12 80 c 0
 4 80 0 84 0 96 c 0
 0 108 4 112 12 112 c 0
68 32 m 0
 76 32 80 28 80 16 c 0
 80 4 76 0 68 0 c 0
 60 0 56 4 56 16 c 0
 56 28 60 32 68 32 c 0
0 0 m 1
 62 112 l 1
 80 112 l 1
 18 0 l 1
 0 0 l 1
EndSplineSet
Validated: 1
EndChar

StartChar: periodcentered
Encoding: 183 183 849
Width: 32
Flags: W
HStem: 48 16<0 16>
VStem: 0 16<48 64>
LayerCount: 2
Back
Fore
SplineSet
0 64 m 1
 16 64 l 1
 16 48 l 1
 0 48 l 1
 0 64 l 1
EndSplineSet
Validated: 1
EndChar

StartChar: uni20B4
Encoding: 8372 8372 850
Width: 128
Flags: W
HStem: 0 16<49.1917 96> 32 16<0 16 32 112> 64 16<0 80 96 112> 96 16<16 62.8083>
VStem: 16 16<19.5879 32> 80 16<80 92.4121>
LayerCount: 2
Back
Fore
SplineSet
16 32 m 1
 0 32 l 1
 0 48 l 1
 16 48 l 1
 16 56 24 64 80 64 c 1
 0 64 l 1
 0 80 l 1
 80 80 l 1
 80 96 80 96 16 96 c 1
 16 112 l 1
 88 112 96 108 96 80 c 1
 112 80 l 1
 112 64 l 1
 96 64 l 1
 96 56 88 48 32 48 c 1
 112 48 l 1
 112 32 l 1
 32 32 l 1
 32 16 32 16 96 16 c 1
 96 0 l 1
 24 0 16 4 16 32 c 1
EndSplineSet
Validated: 1
EndChar

StartChar: notequal
Encoding: 8800 8800 851
Width: 96
Flags: W
HStem: 0 21G<16 39> 0 21G<16 39> 16 16<0 21 44 80> 64 16<0 36 59 80>
LayerCount: 2
Back
Fore
SplineSet
44 32 m 1x30
 80 32 l 1
 80 16 l 1
 39 16 l 1x30
 34 0 l 1
 16 0 l 1x90
 21 16 l 1
 0 16 l 1
 0 32 l 1
 26 32 l 1
 36 64 l 1
 0 64 l 1
 0 80 l 1
 41 80 l 1
 46 96 l 1
 64 96 l 1
 59 80 l 1
 80 80 l 1
 80 64 l 1
 54 64 l 1
 44 32 l 1x30
EndSplineSet
Validated: 1
EndChar

StartChar: emdash
Encoding: 8212 8212 852
Width: 144
Flags: W
HStem: 48 16<0 128>
LayerCount: 2
Back
Fore
SplineSet
0 64 m 1
 128 64 l 1
 128 48 l 1
 0 48 l 1
 0 64 l 1
EndSplineSet
Validated: 1
EndChar

StartChar: endash
Encoding: 8211 8211 853
Width: 112
Flags: W
HStem: 48 16<0 96>
LayerCount: 2
Back
Fore
SplineSet
0 64 m 1
 96 64 l 1
 96 48 l 1
 0 48 l 1
 0 64 l 1
EndSplineSet
Validated: 1
EndChar

StartChar: quoteleft
Encoding: 8216 8216 854
Width: 48
Flags: W
VStem: 0 16<64 84.7897>
LayerCount: 2
Back
Fore
SplineSet
0 64 m 1
 0 88 8 104 16 112 c 1
 32 112 l 1
 24 96 16 88 16 64 c 1
 0 64 l 1
EndSplineSet
Validated: 1
EndChar

StartChar: quoteright
Encoding: 8217 8217 855
Width: 48
Flags: W
VStem: 16 16<91.2103 112>
LayerCount: 2
Back
Fore
SplineSet
32 112 m 1
 32 88 24 72 16 64 c 1
 0 64 l 1
 8 80 16 88 16 112 c 1
 32 112 l 1
EndSplineSet
Validated: 1
EndChar

StartChar: quotedblleft
Encoding: 8220 8220 856
Width: 48
Flags: W
VStem: 0 16<64 84.7897> 32 16<64 84.7897>
LayerCount: 2
Back
Fore
SplineSet
32 64 m 5
 32 88 40 104 48 112 c 5
 64 112 l 5
 56 96 48 88 48 64 c 5
 32 64 l 5
0 64 m 1
 0 88 8 104 16 112 c 1
 32 112 l 1
 24 96 16 88 16 64 c 1
 0 64 l 1
EndSplineSet
Validated: 1
Substitution2: "'ss01' Style Set 1 lookup 1-1" quotedblleft.sga
EndChar

StartChar: quotedblright
Encoding: 8221 8221 857
Width: 48
Flags: W
VStem: 16 16<91.2103 112> 48 16<91.2103 112>
LayerCount: 2
Back
Fore
SplineSet
32 112 m 5
 32 88 24 72 16 64 c 5
 0 64 l 5
 8 80 16 88 16 112 c 5
 32 112 l 5
64 112 m 1
 64 88 56 72 48 64 c 1
 32 64 l 1
 40 80 48 88 48 112 c 1
 64 112 l 1
EndSplineSet
Validated: 1
Substitution2: "'ss01' Style Set 1 lookup 1-1" quotedblright.sga
EndChar

StartChar: quotedblbase
Encoding: 8222 8222 858
Width: 48
Flags: W
VStem: 16 16<11.2103 32> 48 16<11.2103 32>
LayerCount: 2
Back
Fore
SplineSet
32 32 m 1
 32 8 24 -8 16 -16 c 1
 0 -16 l 1
 8 0 16 8 16 32 c 1
 32 32 l 1
64 32 m 1
 64 8 56 -8 48 -16 c 1
 32 -16 l 1
 40 0 48 8 48 32 c 1
 64 32 l 1
EndSplineSet
Validated: 1
EndChar

StartChar: ellipsis
Encoding: 8230 8230 859
Width: 128
HStem: 0 16<0 16 48 64 96 112>
VStem: 0 16<0 16> 48 16<0 16> 96 16<0 16>
CounterMasks: 1 70
LayerCount: 2
Back
Fore
SplineSet
96 16 m 1
 112 16 l 1
 112 0 l 1
 96 0 l 1
 96 16 l 1
48 16 m 1
 64 16 l 1
 64 0 l 1
 48 0 l 1
 48 16 l 1
0 16 m 1
 16 16 l 1
 16 0 l 1
 0 0 l 1
 0 16 l 1
EndSplineSet
Validated: 1
EndChar

StartChar: uni204A
Encoding: 8266 8266 860
Width: 80
Flags: W
HStem: 0 21G<14 40> 0 21G<14 40> 64 16<0 40>
VStem: 0 64<76.57 80>
LayerCount: 2
Back
Fore
SplineSet
14 0 m 1xb0
 40 64 l 1
 0 64 l 1
 0 80 l 1
 64 80 l 1
 32 0 l 1
 14 0 l 1xb0
EndSplineSet
Validated: 1
EndChar

StartChar: arrowleft
Encoding: 8592 8592 861
Width: 128
HStem: 48 16<48 112>
LayerCount: 2
Back
Fore
SplineSet
48 64 m 1
 112 64 l 1
 112 48 l 1
 48 48 l 1
 48 16 l 1
 0 56 l 1
 48 96 l 1
 48 64 l 1
EndSplineSet
Validated: 1
EndChar

StartChar: arrowup
Encoding: 8593 8593 862
Width: 96
Flags: W
HStem: 0 21G<32 48> 0 21G<32 48> 92 20G<23.3333 56.6667>
VStem: 32 16<0 64>
LayerCount: 2
Back
Fore
SplineSet
48 64 m 1xb0
 48 0 l 1
 32 0 l 1
 32 64 l 1
 0 64 l 1
 40 112 l 1
 80 64 l 1
 48 64 l 1xb0
EndSplineSet
Validated: 1
EndChar

StartChar: arrowright
Encoding: 8594 8594 863
Width: 128
Flags: W
HStem: 48 16<0 64>
LayerCount: 2
Back
Fore
SplineSet
64 48 m 1
 0 48 l 1
 0 64 l 1
 64 64 l 1
 64 96 l 1
 112 56 l 1
 64 16 l 1
 64 48 l 1
EndSplineSet
Validated: 1
EndChar

StartChar: arrowdown
Encoding: 8595 8595 864
Width: 96
Flags: W
HStem: 0 21G<23.3333 56.6667> 0 21G<23.3333 56.6667> 92 20G<32 48>
VStem: 32 16<48 112>
LayerCount: 2
Back
Fore
SplineSet
32 48 m 1xb0
 32 112 l 1
 48 112 l 1
 48 48 l 1
 80 48 l 1
 40 0 l 1
 0 48 l 1
 32 48 l 1xb0
EndSplineSet
Validated: 1
EndChar

StartChar: uni21C4
Encoding: 8644 8644 865
Width: 128
Flags: W
HStem: 32 16<32 112> 80 16<0 80> 92 20G<80 106.667>
LayerCount: 2
Back
Fore
SplineSet
80 96 m 1xc0
 80 112 l 1xa0
 112 88 l 1
 80 64 l 1
 80 80 l 1
 0 80 l 1
 0 96 l 1
 80 96 l 1xc0
32 48 m 1
 112 48 l 1
 112 32 l 1
 32 32 l 1
 32 16 l 1
 0 40 l 1
 32 64 l 1
 32 48 l 1
EndSplineSet
Validated: 1
EndChar

StartChar: uni02BB
Encoding: 699 699 866
Width: 48
Flags: W
HStem: 80 32
VStem: 0 32
LayerCount: 2
Back
Fore
SplineSet
16 112 m 1
 32 112 l 1
 16 80 l 1
 0 80 l 1
 16 112 l 1
EndSplineSet
Validated: 1
EndChar

StartChar: uni02CC
Encoding: 716 716 867
Width: 32
Flags: W
HStem: -16 32<0 16>
VStem: 0 16<-16 16>
LayerCount: 2
Back
Fore
SplineSet
0 16 m 1
 16 16 l 1
 16 -16 l 1
 0 -16 l 1
 0 16 l 1
EndSplineSet
Validated: 1
EndChar

StartChar: uni2074
Encoding: 8308 8308 868
Width: 80
Flags: W
HStem: 48 16<16 48> 92 20G<24 64>
VStem: 48 16<32 48 64 96>
LayerCount: 2
Back
Fore
SplineSet
16 64 m 1
 48 64 l 1
 48 96 l 1
 16 64 l 1
64 112 m 1
 64 32 l 1
 48 32 l 1
 48 48 l 1
 0 48 l 1
 0 68 l 1
 44 112 l 1
 64 112 l 1
EndSplineSet
Validated: 1
EndChar

StartChar: uni2075
Encoding: 8309 8309 869
Width: 80
Flags: W
HStem: 32 16<0 47.1663> 64 16<16 46.8811> 96 16<16 64>
VStem: 0 16<80 96> 48 16<49.5742 62.4258>
CounterMasks: 1 e0
LayerCount: 2
Back
Fore
SplineSet
16 80 m 0
 56 80 64 72 64 56 c 0
 64 40 56 32 0 32 c 0
 0 48 l 0
 48 48 48 48 48 56 c 0
 48 64 48 64 0 64 c 1
 0 112 l 1
 64 112 l 1
 64 96 l 1
 16 96 l 0
 16 80 l 0
EndSplineSet
Validated: 1
EndChar

StartChar: uni2076
Encoding: 8310 8310 870
Width: 80
Flags: W
HStem: 32 16<16.8088 47.8914> 64 16<16 46.8811> 96 16<18.1131 48>
VStem: 0 16<49.0859 64 80 93.8027> 48 16<48.4151 62.957>
CounterMasks: 1 e0
LayerCount: 2
Back
Fore
SplineSet
64 56 m 0
 64 40 56 32 32 32 c 0
 8 32 0 40 0 56 c 0
 0 112 8 112 48 112 c 1
 48 96 l 1
 16 96 16 96 16 80 c 1
 56 80 64 72 64 56 c 0
32 48 m 0
 48 48 48 48 48 56 c 0
 48 64 48 64 16 64 c 1
 16 48 16 48 32 48 c 0
EndSplineSet
Validated: 1
EndChar

StartChar: uni2077
Encoding: 8311 8311 871
Width: 80
Flags: W
HStem: 80 32<0 16> 96 16<16 48>
VStem: 0 16<80 96>
LayerCount: 2
Back
Fore
SplineSet
16 32 m 1x60
 48 96 l 1
 16 96 l 1x60
 16 80 l 1
 0 80 l 1
 0 112 l 1xa0
 64 112 l 1
 64 96 l 1
 32 32 l 1
 16 32 l 1x60
EndSplineSet
Validated: 1
EndChar

StartChar: uni2078
Encoding: 8312 8312 872
Width: 80
Flags: W
HStem: 32 16<16.0864 47.5523> 64 16<16.1675 47.8325> 96 16<16.2793 47.8914>
VStem: 0 16<48.4051 63.5284 80.3929 95.5849> 48 16<48.4051 63.5284 80.3734 95.5849>
CounterMasks: 1 e0
LayerCount: 2
Back
Fore
SplineSet
32 48 m 0
 48 48 48 48 48 55 c 0
 48 64 48 64 32 64 c 0
 16 64 16 64 16 55 c 0
 16 48 16 48 32 48 c 0
32 112 m 0
 56 112 64 104 64 88 c 0
 64 80 64 80 56 72 c 1
 64 64 64 64 64 55 c 0
 64 40 58 32 32 32 c 0
 8 32 0 40 0 55 c 0
 0 64 0 64 8 72 c 1
 0 79 0 79 0 88 c 0
 0 104 7 112 32 112 c 0
32 80 m 0
 48 80 48 80 48 88 c 0
 48 96 48 96 32 96 c 0
 16 96 16 96 16 88 c 0
 16 80 16 80 32 80 c 0
EndSplineSet
Validated: 1
EndChar

StartChar: uni2079
Encoding: 8313 8313 873
Width: 80
Flags: W
HStem: 32 16<16 45.8869> 64 16<17.1189 48> 96 16<16.1086 47.1912>
VStem: 0 16<81.043 95.5849> 48 16<50.1973 64 80 94.9141>
CounterMasks: 1 e0
LayerCount: 2
Back
Fore
SplineSet
0 88 m 0
 0 104 8 112 32 112 c 0
 56 112 64 104 64 88 c 0
 64 32 56 32 16 32 c 1
 16 48 l 1
 48 48 48 48 48 64 c 1
 8 64 0 72 0 88 c 0
32 96 m 0
 16 96 16 96 16 88 c 0
 16 80 16 80 48 80 c 1
 48 96 48 96 32 96 c 0
EndSplineSet
Validated: 1
EndChar

StartChar: uni207A
Encoding: 8314 8314 874
Width: 64
Flags: W
HStem: 64 16<0 16 32 48>
VStem: 16 16<48 64 80 96>
LayerCount: 2
Back
Fore
SplineSet
16 96 m 1
 32 96 l 1
 32 80 l 1
 48 80 l 1
 48 64 l 1
 32 64 l 1
 32 48 l 1
 16 48 l 1
 16 64 l 1
 0 64 l 1
 0 80 l 1
 16 80 l 1
 16 96 l 1
EndSplineSet
Validated: 1
EndChar

StartChar: uni207B
Encoding: 8315 8315 875
Width: 64
Flags: W
HStem: 64 16<0 48>
VStem: 0 48<64 80>
LayerCount: 2
Back
Fore
SplineSet
0 80 m 1
 48 80 l 1
 48 64 l 1
 0 64 l 1
 0 80 l 1
EndSplineSet
Validated: 1
EndChar

StartChar: uni207C
Encoding: 8316 8316 876
Width: 64
Flags: W
HStem: 48 16<0 48> 80 16<0 48>
VStem: 0 48<48 64 80 96>
LayerCount: 2
Back
Fore
SplineSet
0 64 m 1
 48 64 l 1
 48 48 l 1
 0 48 l 1
 0 64 l 1
0 96 m 1
 48 96 l 1
 48 80 l 1
 0 80 l 1
 0 96 l 1
EndSplineSet
Validated: 1
EndChar

StartChar: uni207D
Encoding: 8317 8317 877
Width: 48
Flags: W
HStem: 32 16<17.662 32> 96 16<17.662 32>
VStem: 0 16<49.2705 94.7295>
LayerCount: 2
Back
Fore
SplineSet
32 32 m 0
 6 32 0 40 0 72 c 0
 0 104 6 112 32 112 c 0
 32 96 l 0
 16 96 16 96 16 72 c 0
 16 48 16 48 32 48 c 0
 32 32 l 0
EndSplineSet
Validated: 1
EndChar

StartChar: uni207E
Encoding: 8318 8318 878
Width: 48
Flags: W
HStem: 32 16<0 14.338> 96 16<0 14.338>
VStem: 16 16<49.2705 94.7295>
LayerCount: 2
Fore
SplineSet
0 112 m 0
 26 112 32 104 32 72 c 0
 32 40 26 32 0 32 c 0
 0 48 l 0
 16 48 16 48 16 72 c 0
 16 96 16 96 0 96 c 0
 0 112 l 0
EndSplineSet
Validated: 1
EndChar

StartChar: uni2071
Encoding: 8305 8305 879
Width: 32
Flags: W
HStem: 60 20G<0 16> 96 16<0 16>
VStem: 0 16<32 80 96 112>
LayerCount: 2
Back
Fore
SplineSet
0 112 m 1
 16 112 l 1
 16 96 l 1
 0 96 l 1
 0 112 l 1
0 80 m 1
 16 80 l 1
 16 32 l 1
 0 32 l 1
 0 80 l 1
EndSplineSet
Validated: 1
EndChar

StartChar: trademark
Encoding: 8482 8482 880
Width: 144
Flags: W
HStem: 96 16<0 20 36 56>
VStem: 20 16<48 96> 64 16<48 82> 112 16<48 82>
LayerCount: 2
Back
Fore
SplineSet
64 112 m 1
 96 82 l 1
 128 112 l 1
 128 48 l 1
 112 48 l 1
 112 82 l 1
 96 64 l 1
 80 82 l 1
 80 48 l 1
 64 48 l 1
 64 112 l 1
0 112 m 1
 56 112 l 1
 56 96 l 1
 36 96 l 1
 36 48 l 1
 20 48 l 1
 20 96 l 1
 0 96 l 1
 0 112 l 1
EndSplineSet
Validated: 1
EndChar

StartChar: uni29C8
Encoding: 10696 10696 881
Width: 128
HStem: 0 16<16 96> 32 16<48 64> 64 16<48 64> 96 16<16 96>
VStem: 0 16<16 96> 32 16<48 64> 64 16<48 64> 96 16<16 96>
LayerCount: 2
Back
Fore
SplineSet
48 64 m 1
 48 48 l 1
 64 48 l 1
 64 64 l 1
 48 64 l 1
32 80 m 1
 80 80 l 1
 80 32 l 1
 32 32 l 1
 32 80 l 1
16 96 m 1
 16 16 l 1
 96 16 l 1
 96 96 l 1
 16 96 l 1
0 112 m 1
 112 112 l 1
 112 0 l 1
 0 0 l 1
 0 112 l 1
EndSplineSet
Validated: 1
EndChar

StartChar: uni049A
Encoding: 1178 1178 882
Width: 112
Flags: W
HStem: -16 32<80 96> 0 21G<0 16> 0 21G<0 16> 64 16<16 47.3145> 92 20G<0 16 64 80>
VStem: 0 16<0 64 80 112> 64 16<16 48.375 92.816 112> 80 16<-16 0>
LayerCount: 2
Back
Fore
SplineSet
0 112 m 1x5e
 16 112 l 1
 16 80 l 1
 53 80 64 87 64 112 c 1
 80 112 l 1
 80 89 66 72 48 72 c 1
 73 72 80 64 80 16 c 1x9e
 96 16 l 1
 96 -16 l 1
 80 -16 l 1x9d
 80 0 l 1x3d
 64 0 l 1x3e
 64 64 64 64 16 64 c 1
 16 0 l 1
 0 0 l 1
 0 112 l 1x5e
EndSplineSet
Validated: 1
EndChar

StartChar: uni049B
Encoding: 1179 1179 883
Width: 96
Flags: W
HStem: -16 32<64 80> 0 16<48 64> 60 20G<0 16 25.3333 64>
VStem: 0 16<0 30 50 80> 64 16<-16 0>
LayerCount: 2
Back
Fore
SplineSet
0 80 m 1x78
 16 80 l 1
 16 50 l 1
 44 80 l 1
 64 80 l 1
 25 40 l 1
 48 16 l 1x78
 80 16 l 1
 80 -16 l 1
 64 -16 l 1xb8
 64 0 l 1
 44 0 l 1
 16 30 l 1
 16 0 l 1
 0 0 l 1
 0 80 l 1x78
EndSplineSet
Validated: 1
EndChar

StartChar: uni0492
Encoding: 1170 1170 884
Width: 112
Flags: W
HStem: 0 21G<16 32> 0 21G<16 32> 64 16<0 16 32 48> 96 16<32 96>
VStem: 16 16<0 64 80 96>
LayerCount: 2
Back
Fore
SplineSet
16 64 m 1xb8
 0 64 l 1
 0 80 l 1
 16 80 l 1
 16 112 l 1
 96 112 l 1
 96 96 l 1
 32 96 l 1
 32 80 l 1
 48 80 l 1
 48 64 l 1
 32 64 l 1
 32 0 l 1
 16 0 l 1
 16 64 l 1xb8
EndSplineSet
Validated: 1
EndChar

